<?xml version="1.0" encoding="utf-8"?>
<!-- Generator: Adobe Illustrator 19.0.0, SVG Export Plug-In . SVG Version: 6.00 Build 0)  -->
<svg version="1.1" id="Layer_1" xmlns="http://www.w3.org/2000/svg" xmlns:xlink="http://www.w3.org/1999/xlink" x="0px" y="0px"
	 viewBox="0 0 250 250" enable-background="new 0 0 250 250" xml:space="preserve">
<g id="XMLID_80_">
	<path id="XMLID_1238_" fill="#292321" d="M177.4,237.3c-0.2,0.2-0.4,0.5-0.7,0.6c-6,2.8-12.4,4.8-18.7,7c-5.7,2-11.7,2.8-17.7,3.6
		c-3.7,0.5-7.6,0.4-11.4,0.4c-2.9,0-5.7-0.4-8.6-0.2c-6.1,0.5-12-0.1-18-1.2c-7.2-1.3-14.2-3.1-21.1-5.7c-1.8-0.7-3.5-1.3-5.1-2.4
		c-1.8-1.2-4.1-1.7-6.1-2.7c-0.5-0.2-0.7-1-1-1.5l-0.2,0.2c1.6-0.2,3.2-0.1,4.7,0.4c1.7,0.5,3.2-0.1,4.2-1.5c3-4.1,6-8.2,8.8-12.5
		c1.2-1.9,2.5-3.7,3.9-5.4c0.8-1.1,1.9-1.7,3.2-1.7c6.8-0.4,13.1,2.1,19.5,4c0.5,0.1,1,0.8,1.2,1.4c0.4,1.2,0.8,2.5,0.8,3.7
		c-0.3,7.2,2.5,13.7,3.7,20.6c0.1,0.8,1.1,1.6,2.1,1.7c1.3,0.1,2.5,0.3,3.8,0.3c2.4,0,3.6-1,4-3.2c0.4-2.2,0.4-4.5,1.1-6.6
		c1.4-4.3,2.1-8.6,2.7-13.1c0.1-0.9,0.5-1.9,0.9-2.7c0.3-0.5,0.8-1.2,1.3-1.3c4.7-0.8,9.4-1.3,13.7-0.9c1.5,1.4,2.9,2.4,3.8,3.6
		c0.7,1,0.9,2.4,1.5,3.5c2.4,4.1,4.8,8.2,7.3,12.3c0.7,1.2,2,1.5,3.3,1.4c1.3-0.1,2.5-0.3,3.7-0.6c1.3-0.3,2.2-1.3,2.5-2.6
		c0.3-1.6,0.4-3.2,0.6-4.7c1.6,0.9,2.7,2.2,3.4,3.9C175.2,236.6,176.2,237,177.4,237.3z M113.4,238.9c-0.2-1.6,0.1-4-0.7-6
		c-1.2-2.8-1.2-5.6-1.6-8.4c-0.2-1-0.8-1.7-1.6-2.3c-1.9-1.2-3.9-2.2-6.2-2.2c-1.9,0-3.8,0-5.8,0c-1.7,0-3.1,0.7-4.3,1.8
		c-2.5,2.1-4,5-6.3,7.2c-2.5,2.4-3,5.5-3.9,8.4c-0.2,0.5,0.2,1.3,0.5,1.7c1.1,1.6,2.5,2.9,4.5,3.4c4.9,1.3,9.9,2.6,14.8,3.6
		c2.5,0.5,5.1,0.4,7.6,0.4c1.2,0,2.5-1.2,2.6-2.3C113.1,242.7,113.2,241.1,113.4,238.9z"/>
	<path id="XMLID_1237_" fill="#4E4541" d="M217,208.7c-3.7,4.9-8.4,8.7-13,12.5c-1.9,1.6-3.5,3.7-6.2,4.3c0.4-0.8,0.9-1.7,1.3-2.5
		c1-2.1,0.8-3.6-0.7-5.2c-0.9-0.9-1.7-2.1-2.8-2.6c-2.9-1.4-5.1-3.7-7.6-5.7c-1.1-0.9-3.5-1.1-4.5-0.1c-2.1,2-4.5,3.5-7,4.8
		c-1.1,0.6-2.3,1.1-3.4,1.7c-1.6,0.8-2.2,2.2-2.3,3.9c-0.1,1.6-0.3,3.1-0.5,4.7c-1.2-0.5-2.3-1.3-2.5-2.7c-0.3-1.6-0.3-3.2-0.3-4.7
		c0-0.6,0.3-1.4,0.7-1.7c2.1-1.6,14.2-8.1,16.8-9c1.7-0.6,3.2-0.2,4.5,0.7c1.1,0.7,2,1.6,2.9,2.4c3.2,2.6,6.5,5,10.3,6.9
		c0.5,0.2,1.3,0.2,1.8-0.1c1.1-0.6,2.2-1.4,3.2-2.1c0.8-0.6,1.2-1.4,1.2-2.5c0-1.3,0.1-2.6-1-3.5c-2.7-2.3-3.2-6.2-6-8.5
		c-0.7-0.6-0.9-1.7-1.4-2.5c-1.1-1.8-1.1-3.6-0.4-5.5c1.3-3.3,3.1-6.3,5.1-9.2c0.5-2.4,2.6-3.5,4.1-5.1c0.9-1,2.3-0.9,3.6-0.8
		c1.3,0.2,2.4,0.7,3.5,1.4c0.8,0.5,1.6,1.2,2.5,1.3c3.2,0.5,6.2,1.5,9.1,2.7c0.7,0.3,1.9-0.1,2.7-0.5c1.8-0.9,3-2.3,3.4-4.4
		c0.2-1.3,0.2-2.5-0.8-3.5c-1.3-1.4-2.7-2.6-4.5-3.5c-4.6-2.3-8.4-5.7-12.3-8.9c-0.7-0.6-1-1.6-0.4-2.6c1.4,0.2,2.7,0.3,4.1,0.5
		c0.6,2.1,2,3.3,4.2,3.8c0.4,2.1,1.5,3.4,3.7,3.6c0.6,0,1.3,0.1,1.9,0.2c1.4,1.9,3.7,2.5,5.6,3.5c0.3,0.1,0.6,0.1,0.9,0.2
		c0.7,0.2,2.2-0.2,2.7-0.7c1.6-1.6,1.7-4.2,3.9-5.2c0.1,1.9-0.7,3.7-1.4,5.4c-3,6.9-6.2,13.7-10.1,20.2c-0.3,0.5-0.8,0.9-1.3,1.4
		c0,0-0.7-0.6-0.7-0.6c0.1-0.3,0.1-0.6,0.1-0.9c0-0.9,0-2.1-1.1-2.3c-2.9-0.5-5.2-1.7-7.4-3.7c-2.4-2.2-5.6-2.8-8.9-2.4
		c-1.3,0.2-2.4,0.7-3,2c-0.6,1.4-1.3,2.9-2.1,4.2c-0.9,1.3-2.1,2.4-3,3.7c-1.2,1.7-1,3.5-0.3,5.4c1.2,3,4.1,4.7,5.7,7.5
		c0.7,1.3,2.1,2.4,3.2,3.5c1.1,1,2.3,0.7,3.5,0.3L217,208.7z"/>
	<path id="XMLID_1236_" fill="#3C3734" d="M88.1,6.7c0.5-0.4,0.9-1.1,1.4-1.2c10.8-2.9,21.7-5.1,33-4.5c1.3,0.1,2.6,0.1,3.8,0
		c12.3-0.6,24.1,1.7,35.7,5.3c1.8,0.6,3.8,0.7,5.2,2.2c-0.2,0.3-0.5,0.6-0.7,0.8c-0.9-0.2-1.9-0.3-2.8-0.6c-7.1-2.6-14.6-3.6-22-5.2
		c-2.1-0.4-4.4-0.3-6.6-0.3c-0.5,0-1.1,0.5-1.5,0.8c0.1,3.2,0.2,6.3,0.3,9.4c0,1.4-0.7,2.4-1.7,3.2c-0.5-1.1-1.2-2.2-1.6-3.4
		c-0.7-2.4-1.3-4.9-2-7.3c-0.3-0.9-1.2-1.4-2.1-1.7c-0.3-0.1-0.6-0.2-0.9-0.1c-1.3,0.1-2.5,0.1-3.8,0.3c-1.2,0.1-2.6,1.3-2.7,2.4
		c-0.7,6.7-2.4,13.1-3.8,19.6c-0.3,1.4-1.3,2.3-2.5,2.5c-1.3,0.2-2.5,0.4-3.8,0.5c-2.5,0.2-5.1,0.4-7.6,0.5c-3.4,0-6.1-0.9-7.6-4.5
		c-0.8-2-2.7-3.7-3.2-5.7c-0.8-2.9-2.9-4.9-4.3-7.3c-0.5-0.8-1.5-1.1-2.5-1.1c-2.3,0-4.4,0.4-6,2.2c-0.4,0.5-0.9,0.9-1.4,1.3
		c-3,0-5.9,0-8.9,0c0.5-0.4,0.9-1,1.4-1.2c5.8-2.6,11.6-5.1,17.9-6.6c0.3-0.1,0.6,0,1,0c0.3,1.2,0.3,2.7,1.4,3.4
		c2.2,1.5,3.2,3.9,4.2,6.2c0.5,1.1,0.7,2.5,1.3,3.5c1.5,2.5,3.5,4.5,6.8,4.5c2.5,0,5.1-0.1,7.6-0.2c1.5-0.1,3.8-2.2,3.9-3.7
		c0.3-3.8,1.2-7.5,2-11.2c0.2-0.9,0.1-1.9,0.1-2.8c0-2-1.5-3.4-3.7-3.3c-0.9,0-2-0.1-2.8,0.2c-4.5,1.5-9.4,1.2-13.9,2.9
		C92.6,7,90.3,7.2,88.1,6.7z"/>
	<path id="XMLID_1235_" fill="#2C2827" d="M247.2,101c2,8.3,2.7,16.6,2.4,25.1c0,1.2-0.3,2.5-0.5,3.7c-1.9-1.8-4.8-1.7-6.6-3.3
		c-2-1.8-4.2-2.5-6.8-2.5c-2.9,0.1-5.5-0.8-8-2.1c-2.5-1.3-5.2-2.1-8.1-1.9c-0.4-3.8-0.7-7.6-0.2-11.4c0.6-0.2,1.4-0.3,1.7-0.7
		c1.6-2.5,4.1-3.8,6.6-5c3.1-1.5,6-3.3,9.4-4.3c1.2-0.3,2.3-1,3.4-1.6c3.5-2.1,3.6-2.1,5.5,2.4C246.3,100.2,246.8,100.6,247.2,101z"
		/>
	<path id="XMLID_1234_" fill="#1B1917" d="M2.7,154.3c-2-8.4-3.3-16.9-3.2-25.5c0-1.6,0.3-3.2,0.4-4.7c4,0.5,7.9,2.3,12.1,2.1
		c1.2-0.1,2.6,0.5,3.5,1.2c2.1,1.6,4.5,2.2,7,2.6c1.2,0.2,2.1,1.3,2.3,2.7c0.3,2.2,0.5,4.4,0.8,6.6c0.3,2.4-0.4,4.4-2.3,5.8
		c-1.4,1-2.1,2.3-2.2,4c-2.6,1.8-5.1,3.7-8.3,4.4c-1.5,0.3-2.9,1.3-4.2,2.2c-1,0.7-1.7,1.9-1.7,3.2c0.1,2.5,0.4,5.1,0.6,7.6l0.2-0.2
		c-0.5-0.4-1.1-0.5-1.7-0.5c0.2-1.2-0.1-2.3-0.8-3.3c0.7-1.3,0.3-2.2-1-2.8c0.3-0.5,0.3-1.1,0.1-1.7C4.6,156.4,4,155.2,2.7,154.3z"
		/>
	<path id="XMLID_1233_" fill="#1D1A19" d="M67.6,14.6c3,0,5.9,0,8.9,0c0.5,3.8,0.7,7.6,2.4,11.1c0.7,1.4,0.6,3.1,0.7,4.7
		c0.1,1.7-0.7,3.1-2.2,4c-4.1,2.3-8.4,4.5-12.2,7.3c-0.7,0.6-1.7,0.8-2.6,1.2c-1.2,0.5-2.5,0.4-3.7,0.1c-1.2-0.4-2.4-0.8-3.3-1.8
		c-0.2-0.9-0.2-2-0.7-2.6c-2.6-3.5-5.8-6.4-10.2-7.5c-0.3-0.1-0.4-0.4-0.7-0.6l0.3-0.2c2.6-0.2,4.3-1.6,5.1-4.1l0.2-0.1
		c1.2,0,1.4-0.2,1.9-1.5l0.4-0.2c1.6,0.2,2.8-0.4,3.2-2.1l0.2-0.1c1.4,0,1.4,0,1.9-1.4l0.4-0.2c1.6,0.2,2.8-0.4,3.4-2l0.2-0.1
		c1,0.1,1.6-0.3,1.9-1.3c0.4-0.5,1-0.8,1.6-0.7c1.1,0.2,1.8-0.2,2.1-1.3L67.6,14.6z"/>
	<path id="XMLID_1232_" fill="#191716" d="M57.9,229.9c-1.2-0.2-2.2-0.9-2.9-1.9l-0.3-0.2c-0.6,0.1-1.1-0.2-1.3-0.8
		c-0.7-1.8-2-2.8-3.8-3.2c-0.8-0.2-1.3-0.7-1.6-1.4c-0.4-1.8-1.6-2.5-3.4-2.2l-0.6,0l-0.2-0.5c-0.7-1.9-2.4-2.9-3.6-4.4
		c-0.6-0.7-1.3-1.5-1.6-2.4c-0.3-0.8,0-1.8,0-2.8c2.9-2.4,5.7-5.1,8.9-7.1c4.4-2.7,4.9-2.6,9.7-0.4c3.8,1.8,7.1,4.1,10.5,6.6
		c0.5,0.3,0.9,1,1,1.6c0.4,4.4,0.8,8.8-1.6,13c-1.2,2.2-2,4.6-3.1,7.2c-1.1,0.2-2.3,0.3-3.6,0.5c-0.7,0.1-1.2-0.2-1.5-0.8
		C58.9,230.1,58.5,229.8,57.9,229.9z"/>
	<path id="XMLID_1231_" fill="#423C3A" d="M21,149c0.1-1.7,0.8-2.9,2.2-4c1.9-1.4,2.7-3.4,2.3-5.8c-0.3-2.2-0.6-4.4-0.8-6.6
		c-0.2-1.4-1-2.5-2.3-2.7c-2.5-0.4-4.9-1-7-2.6c-0.9-0.7-2.4-1.3-3.5-1.2c-4.2,0.2-8-1.6-12.1-2.1c-0.7-2.9,0.7-5.6,0.5-8.5
		c-0.2-2.5-0.1-5.1-0.1-7.6c0-0.6,0.1-1.3,0.3-1.9c0.2-0.6,0.6-1.1,0.9-1.6c0.9,1.4,2,2.5,3.7,2.5c6.3-0.1,12.6-0.1,18.9-0.3
		c0.9,0,2-0.4,2.2-1.4c0.7-2.8,2.8-4.9,3.8-7.5c0.6-1.5-0.1-4.4-1.3-5.2c-1.5-1.1-3.3-1.9-4.6-3.2c-3.2-3.2-7.2-5-11.2-7
		c-1.8-0.9-3.7-0.7-5.5-0.5c0-0.6-0.1-1.2,0-1.8c1.2-3.4,3.1-6.4,5-9.3c0.1-0.2,0.6-0.2,0.8-0.3l-0.2-0.2c0.1,0.6,0.3,1.3,0.2,1.9
		c-0.2,2,0.3,3.7,1.9,5.1c0.9,0.8,1.7,1.9,2.7,2.6c3.8,2.8,7.8,5.4,11.6,8.2c4.3,3.1,4.6,3.9,3.7,8.7c-0.5,2.5-1,5-1.5,7.5
		c-0.2,0.9-0.5,1.8-0.9,2.7c-0.9,1.8-2.1,3.2-4.2,3.5c-1.6,0.2-3.2,0.4-4.7,0.4c-4.8,0.2-9.5,0.3-14.3,0.6c-0.9,0-1.9,0.3-2.7,0.8
		c-1.6,1.1-2.8,2.5-3.3,4.5c-0.3,1.3,0,2.6,1,3.5c0.7,0.6,1.5,1.3,2.3,1.6c3,0.9,6.1,2,9.2,2.3c4.2,0.4,7.8,2.6,11.8,3.7
		c1.3,0.4,2.1,1.4,2.2,2.8c0.1,3.8,0.1,7.6,0.2,11.5c0.1,2.1-1.1,3.5-2.4,5C24.7,148.6,23.1,149.2,21,149z"/>
	<path id="XMLID_1230_" fill="#060708" d="M243,164.4c-2.3,1-2.4,3.7-3.9,5.2c-0.5,0.5-1.9,0.9-2.7,0.7c-0.3-0.1-0.7-0.1-0.9-0.2
		c-2-1-4.2-1.6-5.6-3.5c0-0.6-0.1-1.2-0.1-1.8c-0.1-1.1-0.9-1.7-1.8-1.8c-1.2-0.2-2.4-0.1-3.7-0.1c-2.1-0.5-3.6-1.7-4.2-3.8
		c0.1-1.6,0.2-3.2,0.3-4.8c0.1-1.4-0.6-2.4-1.6-3.3c-0.3-0.9-0.6-1.8-0.9-2.7c0-1.8,0.1-3.5,1.1-5c5.6-0.2,11.2-0.4,16.9-0.5
		c3.9,0.8,7.8,0.2,11.8,0.5c-0.1,2.5-0.2,5-0.3,7.5c-1.1,1.1-1.6,2.4-1.2,4c-0.3,0.7-0.6,1.3-0.9,2c-2.1,1.4-2.1,3.4-1.7,5.5
		C243.4,162.9,243.2,163.6,243,164.4z"/>
	<path id="XMLID_1229_" fill="#1B1917" d="M170.3,224.5c0.2-1.6,0.4-3.1,0.5-4.7c0.1-1.7,0.7-3.1,2.3-3.9c1.1-0.6,2.3-1.1,3.4-1.7
		c2.6-1.3,4.9-2.8,7-4.8c1-0.9,3.3-0.8,4.5,0.1c2.5,2,4.7,4.2,7.6,5.7c1.1,0.5,1.9,1.7,2.8,2.6c1.6,1.6,1.8,3.1,0.7,5.2
		c-0.4,0.8-0.9,1.7-1.3,2.5c0,0-0.7,0.4-0.7,0.4c-0.8-0.2-1.3,0-1.2,0.9c-2.3,2-4.7,3.7-7.5,4.7c-0.9,0-1.7,0.3-2,1.3
		c-0.3,0.6-0.7,0.8-1.4,0.7c-1.1-0.1-2.1,0.2-2.5,1.4l-0.5,0.5l-0.7,0c-1.2-0.1-2.2,0.1-2.6,1.4l-0.5,0.5l-0.7,0
		c-1.2-0.2-2.3-0.7-2.8-1.9c-0.7-1.7-1.8-3-3.4-3.9C170.3,229.3,170.4,226.9,170.3,224.5z"/>
	<path id="XMLID_1228_" fill="#080404" d="M7.5,81.8c1.9-0.2,3.7-0.4,5.5,0.5c4,2,8,3.8,11.2,7c1.3,1.3,3.1,2.1,4.6,3.2
		c1.2,0.9,1.9,3.8,1.3,5.2c-1,2.6-3.2,4.7-3.8,7.5c-0.2,1-1.3,1.4-2.2,1.4c-6.3,0.2-12.6,0.3-18.9,0.3c-1.7,0-2.9-1.1-3.7-2.5
		c0.3-1.8,0.5-3.5,0.8-5.3c0.6-0.7,1.4-1.3,1.6-2.1c1.3-4.4,2.6-8.9,3.8-13.4C7.8,83.1,7.6,82.4,7.5,81.8
		C7.5,81.8,7.5,81.8,7.5,81.8z"/>
	<path id="XMLID_1227_" fill="#060708" d="M239.8,78c0.4,0.3,0.6,0.7,0.5,1.3c-3.2,1.5-6.4,2.8-10,3c-1.6-0.4-3-0.1-4.1,1.2
		c-1.2,0.1-2.5,0.1-3.7,0.2c-0.9-1.3-2.2-1.8-3.7-1.8c-0.9,0-1.7,0.1-2.6,0.1c-0.4-0.3-0.6-0.7-0.4-1.2c0.6-1.2,0.9-2.4,0.4-3.6
		c-0.3-0.9-0.7-1.8-1.1-2.6c-2.4-4.3-3.1-8.8-1.9-13.6c3.5-0.8,5.7-3.2,7.3-6.2c2.9-0.5,5.3,0.8,7.8,1.9l0.1,0.1
		c-0.2,2.8,1.1,4.7,3.7,5.7l0.1,0.2c-0.3,1.7,0.3,3,2,3.6c0,0,0,0,0,0c-0.2,1.1,0.2,1.8,1.3,2.1c0.5,0.4,0.8,1,0.7,1.6
		c-0.2,1.1,0.2,1.8,1.3,2.2c0.5,0.5,0.7,1,0.6,1.7C237.7,75.8,238.1,77.2,239.8,78z"/>
	<path id="XMLID_1226_" fill="#3C3734" d="M167.2,8.5c0.9,0.2,1.9,0.1,2.8,0.5c5.4,2.5,10.7,5,16.1,7.6c0.8,0.4,1.4,1.1,2.2,1.7
		l-0.5,0.6c-0.6-0.1-1.2-0.3-1.9-0.3c-1.5-0.1-2.9,0.5-3.2,1.5c-1.2,3.6-2.5,7.1-3.6,10.8c-0.4,1.2-0.4,2.5-0.5,3.7
		c0,0.6,0.1,1.4,0.5,1.8c2,1.9,3.5,4.5,6.5,5.2c1.8,0.5,2.5,1.8,2.5,3.5c-0.6,0-1.4,0.2-1.9-0.1c-3-1.8-6.3-2.9-9.3-4.6
		c-1.6-0.9-2.7-3.2-2.2-4.9c0.4-1.5,0.9-3,1.4-4.5c1.1-3.6,2.3-7.3,3.4-10.9c0.2-0.5,0-1.3-0.2-1.8c-0.8-2.5-4.5-4.5-6.9-3.8
		c-0.6,0.2-1.2,0.5-1.6,1c-1.1,1.2-2.1,2.4-3,3.7c-2.4,3.7-5.4,7-7.4,11c-1.1,2.1-3.3,2.8-5.6,3c-5.3-1.3-10.7-1.1-16.1-1.6
		c-4.5-0.4-6-2-6.4-6.6c-0.1-1.6-0.3-3.2,0.3-4.7c1.7,0.2,3,0.9,3.4,2.7c0.2,0.9,0.3,1.9,0.5,2.8c0.2,1,1,1.8,1.9,1.9
		c2.2,0.3,4.4,0.6,6.6,0.5c2.6-0.1,4.8,1.6,7.3,1.7c2.7,0,4.8-1.3,6.5-3.3c1-3.8,3.4-6.8,6-9.5c2.4-2.4,2.7-4.8,1.7-7.7
		C166.7,9.1,166.9,8.8,167.2,8.5z"/>
	<path id="XMLID_1225_" fill="#292321" d="M60.5,231.5c1.2-0.2,2.5-0.4,3.6-0.5c1.1-2.6,1.8-5,3.1-7.2c2.3-4.2,2-8.6,1.6-13
		c0-0.6-0.5-1.2-1-1.6c-3.3-2.4-6.7-4.8-10.5-6.6c-4.8-2.3-5.3-2.3-9.7,0.4c-3.2,1.9-5.9,4.7-8.9,7.1c0,0.9-0.3,1.9,0,2.8
		c0.3,0.9,1,1.6,1.6,2.4c1.2,1.5,2.9,2.5,3.6,4.4c-0.3-0.1-0.6-0.1-0.9-0.3c-3.7-2.7-6.9-5.9-9.9-9.4c-0.9-1-1-2.2-0.4-3.4l-0.2,0.2
		c1.3,0.2,2.6,0.1,3.7-0.4c2-0.9,4-1.9,5.9-3c2.4-1.5,4.7-3.1,7.1-4.7c2.3-1.6,4.9-1.9,7.1-0.4c4.7,3.2,9.7,5.8,14.8,8.4
		c0.6,0.3,1.2,0.6,1.5,1.1c0.5,0.8,1,1.6,1.2,2.5c0.2,0.9,0,1.9-0.2,2.8c-1.4,5.2-2.7,10.4-5.2,15.2c-0.8,1.5-0.8,3-0.2,4.5
		c0.3,0.9,0.5,1.8,0.8,2.7l0.2-0.2C66,234.7,62.8,234,60.5,231.5z"/>
	<path id="XMLID_1224_" fill="#4E4541" d="M235.9,142.7c-5.6,0.2-11.2,0.4-16.9,0.5c-0.8-0.2-1.1-0.8-0.6-1.4
		c1.1-1.7,2.7-2.7,4.7-2.8c5.4-0.3,10.8-0.4,16.2-0.7c1.3-0.1,2.5-0.3,3.8-0.5c1.1-0.2,2.4-1.4,2.5-2.6c0.1-1.2,0.1-2.6-0.1-3.8
		c-0.3-1.2-1.2-2.5-2.4-2.8c-5.5-1.4-11.1-2.7-16.7-4c-2.2-0.5-4.2-1.5-5.9-3c-0.4-0.4-0.5-1.1-0.8-1.6c2.9-0.2,5.5,0.5,8.1,1.9
		c2.5,1.3,5.2,2.1,8,2.1c2.6,0,4.7,0.6,6.8,2.5c1.8,1.6,4.7,1.5,6.6,3.3c0.9,4.2,0.6,8.3-1,12.2c-0.2-0.2-0.3-0.5-0.5-0.7
		c-0.6-0.6-1.2-1.5-2.2-1.3c-2.3,0.5-4.6,1.3-7.1,1.4C237.5,141.5,236.7,142.3,235.9,142.7z"/>
	<path id="XMLID_1223_" fill="#4E4541" d="M230.4,82.2c3.6-0.2,6.8-1.5,10-3l0,0.1c-0.4,1.7-0.5,3.4,1.4,4.3c0.7,0.7,1.3,1.3,2,2
		c0.1,0.6,0.3,1.2,0.4,1.9c-0.4,1.7,0.2,3,1.5,4c0.4,2,0.9,4,1.3,6c0.2,1.1,0.2,2.3,0.3,3.5c-0.4-0.5-0.9-0.9-1.2-1.4
		c-1.9-4.6-2-4.6-5.5-2.4c-1.1,0.6-2.2,1.3-3.4,1.6c-3.3,1-6.3,2.7-9.4,4.3c-2.5,1.3-5,2.5-6.6,5c-0.3,0.4-1.1,0.5-1.7,0.7
		c-0.6-1.6-0.5-3.1,0.3-4.5c0.6-1.2,1.6-2,2.8-2.5c1.7-0.7,3.7-1,5.2-2.2c1.8-1.4,3.9-2.1,6-2.6c2.6-0.6,4.3-2.6,6.1-4.3
		c0.4-0.4,0.5-1.2,0.5-1.8c0-0.9-0.1-1.9-0.3-2.8c-0.5-2.3-1.8-3.3-3.9-3.2c-2.2,0.1-4.4,0.5-6.5,1.2c-3.3,1.1-6.8,1.3-10.3,1
		c-1.8-0.2-2.7-1.5-2.8-3.2c2-0.1,4-0.1,6.1-0.2c1.2-0.1,2.5-0.1,3.7-0.2C227.8,83.7,229.3,83.6,230.4,82.2z"/>
	<path id="XMLID_1222_" fill="#423C3A" d="M13.4,70.4c0.6-4.5,2.3-8.5,5.5-11.8c0.2,0.2,0.5,0.4,0.8,0.6c-0.1,0.6-0.3,1.2-0.4,1.8
		c-0.2,1.5,0.4,2.8,1.3,3.2c2.6,1.1,5.3,2.1,7.9,3.2c2.1,0.9,4.3,1.1,6.5,1.1c2,0,3.6-0.9,4.8-2.6c0.5-0.8,1-1.6,1.3-2.5
		c1-2.3,2.6-4.3,3-6.9c0.4-2.7-1.9-4.6-2.2-7.1c0.3-0.3,0.7-0.7,1-1c0.8,0.5,1.9,0.8,2.3,1.5c0.9,1.3,1.3,2.9,2.1,4.3
		c1.3,2.2,1.1,4.2-0.4,6.1c-0.8,3.8-3.8,6.5-4.9,10.2c-0.6,2.1-3,3.4-5.3,3c-2.2-0.3-4.3-0.9-6.5-1.4c-3.8-2.6-8.5-2.1-12.7-3.6
		c-0.9-0.3-1.8,0.3-2.5,1c-0.4,0.4-1.1,0.5-1.7,0.7L13.4,70.4z"/>
	<path id="XMLID_1221_" fill="#292321" d="M9.6,173.9c-1.5-1.6-1.7-3.9-2.8-5.7c0.3-0.6,0.5-1.3,0.8-1.9l-0.2,0.2
		c2.2-0.1,4.4-0.3,6.7-0.4c1.6-0.1,3.2-0.2,4.6-0.9c3.2-1.8,6.7-1.8,10.3-1.8c1.1,0,1.8,0.5,2.4,1.3c0.7,1,1.5,2.1,2,3.3
		c0.8,2.1,1.3,4.3,2.2,6.3c1,2.3,2.3,4.5,3.4,6.8c0.1,0.2-0.2,0.6-0.3,0.9c-1-0.7-2.4-1.2-3-2.1c-1.9-3.2-4.6-6-5.6-9.7
		c-0.3-1-1.2-1.6-2.1-1.6c-4.7-0.1-9.4-0.1-14.1,0c-1.2,0-2.3,0.8-3.2,1.8c-0.7,0.8-0.8,1.7-0.8,2.6c0,0.3,0,0.6,0,0.9L9.6,173.9z"
		/>
	<path id="XMLID_1220_" fill="#292321" d="M32.7,206.5c-0.6,0-1.5,0.1-1.8-0.2c-2.7-3.1-6.4-5.3-8-9.2l0.3-0.4
		c0.6,0.1,1.2,0.2,1.9,0.2c1.4,0.1,2.7-0.3,3.2-1.5c1.7-3.4,4.3-6.1,7-8.8c1-1,2.3-0.9,3.5-1c0.2,1.3-0.2,2.5-1.1,3.5
		c-2.7,3-5.6,6-8.3,9c-1.2,1.3-1,4.7,0.4,6.1c0.9,0.9,1.8,1.7,2.7,2.6L32.7,206.5z"/>
	<path id="XMLID_1219_" fill="#423C3A" d="M30.4,43.3c1.7-3.2,4.5-5.3,7.3-7.4c0.8-0.6,1.8-0.5,2.7,0l-0.2-0.2
		c-0.1,0.3-0.1,0.6-0.2,0.9c-0.9,2.4-0.8,4.7,0.8,6.9c1.1,1.4,2.1,3,2.1,5c-0.3,0.3-0.7,0.7-1,1c-1.4-0.6-2.8-1.2-3.3-2.9
		c-0.2-0.6-0.4-1.2-0.7-1.7c-0.7-1.2-1.8-1.8-3.1-1.6c-1.2,0.1-2.4,0.5-3.6,0.8C30.9,43.7,30.6,43.5,30.4,43.3z"/>
	<path id="XMLID_1218_" fill="#423C3A" d="M44.2,30.3c0.2,0.2,0.4,0.6,0.7,0.6c4.4,1.1,7.6,4,10.2,7.5c0.5,0.7,0.5,1.7,0.7,2.6
		c-0.8-0.4-1.8-0.5-2.5-1.1c-1.4-1.2-2.7-2.6-4.1-3.8c-1.5-1.2-3.4-1.7-5.3-1.3c-1.2,0.2-2.4,0.6-3.6,0.9l0.2,0.2
		c-0.6-0.7-0.7-1.5-0.1-2.3C41.3,32.2,42.4,30.8,44.2,30.3z"/>
	<path id="XMLID_1217_" fill="#423C3A" d="M7.5,81.8c0.1,0.6,0.3,1.3,0.2,1.8C6.5,88.1,5.2,92.6,3.9,97c-0.2,0.8-1.1,1.4-1.6,2.1
		c0-0.6-0.3-1.3-0.1-1.8c1.2-4.4,2.5-8.9,3.8-13.3C6.2,83.2,7,82.6,7.5,81.8z"/>
	<path id="XMLID_1216_" fill="#2C2827" d="M228.4,56.7c-2.5-1.1-4.9-2.4-7.8-1.9c-0.1-1.5-0.3-2.9-0.4-4.4c-0.2-0.3-0.2-0.7-0.1-1.1
		c0.9-0.1,1.8-0.2,2.7-0.3C225.5,51,227.5,53.5,228.4,56.7z"/>
	<path id="XMLID_1215_" fill="#3C3734" d="M213,37.6c0.7,0.6,1.5,1.1,2.2,1.7c0.2,1,0.6,1.8,1.7,2.1c0,0,0,0.1,0,0.1
		c-0.1,0.7-0.1,1.4-0.2,2.1l-0.6,0.6c-1.2,0-2.3-0.3-3.6,0.2c-1.1,0.4-2.4,0.4-3.6,0.5c0-1.7,0.9-2.8,2.4-3.6c1.3-0.7,1.4-1.9,1-3.2
		L213,37.6z"/>
	<path id="XMLID_1214_" fill="#2C2827" d="M235.9,142.7c0.8-0.5,1.5-1.3,2.3-1.3c2.5,0,4.7-0.8,7.1-1.4c1.1-0.2,1.6,0.6,2.2,1.3
		c0.2,0.2,0.4,0.5,0.5,0.7c0.3,0.5,0.1,0.9-0.4,1.2C243.8,143,239.8,143.6,235.9,142.7z"/>
	<path id="XMLID_1213_" fill="#2C2827" d="M232.1,62.6c-2.5-1.1-3.9-2.9-3.7-5.7C230.6,58.2,231.7,60.2,232.1,62.6z"/>
	<path id="XMLID_1212_" fill="#3C3734" d="M222.9,49c-0.9,0.1-1.8,0.2-2.7,0.3c-0.5,0-0.9-0.1-1.4-0.1c0-2.2-1.8-3.4-2.5-5.2
		c0,0,0.6-0.6,0.6-0.6c0.7,0,1.3,0,2-0.1c0,0,0,0,0,0c0,1.2,0.5,1.9,1.7,2.1C221.3,46.7,222.7,47.4,222.9,49z"/>
	<path id="XMLID_1211_" fill="#3C3734" d="M49.5,26c-0.8,2.5-2.4,3.9-5.1,4.1C45.5,27.9,47.3,26.6,49.5,26z"/>
	<path id="XMLID_1210_" fill="#292321" d="M49.5,223.8c1.8,0.5,3.1,1.5,3.8,3.2c-1.5-0.3-2.7-1.2-3.7-2.4
		C49.5,224.5,49.6,224.1,49.5,223.8z"/>
	<path id="XMLID_1209_" fill="#292321" d="M44.6,220.1c1.8-0.2,3,0.4,3.4,2.2C46.3,222.4,45.1,221.7,44.6,220.1z"/>
	<path id="XMLID_1208_" fill="#4E4541" d="M226.5,197c-0.8,2.3-2.4,4-4.2,5.6l-0.6-0.5c1-2.1,2.4-4,4.1-5.6L226.5,197z"/>
	<path id="XMLID_1207_" fill="#423C3A" d="M26.9,47.4c0.8-1.7,1.8-3.2,3.5-4.1c0.2,0.2,0.5,0.5,0.7,0.7c-0.8,1.7-2,3.1-3.6,4
		L26.9,47.4z"/>
	<path id="XMLID_1206_" fill="#4E4541" d="M243.6,162.2c-0.5-2.1-0.5-4.2,1.7-5.5C245.8,158.9,244.9,160.6,243.6,162.2z"/>
	<path id="XMLID_1205_" fill="#3C3734" d="M201.8,27.7c1.5,0.3,2.5,1.4,3.3,2.5l-0.4,0.4c-1.3-0.5-2.6-1.2-3.5-2.4L201.8,27.7z"/>
	<path id="XMLID_1204_" fill="#292321" d="M17.5,189.2c-1-1.1-2.1-2.1-2.1-3.8l0.2-0.1C16.9,186.2,17.3,187.6,17.5,189.2L17.5,189.2
		z"/>
	<path id="XMLID_1203_" fill="#3C3734" d="M61.1,18.3c-0.6,1.6-1.7,2.2-3.4,2C58.4,19,59.5,18.2,61.1,18.3z"/>
	<path id="XMLID_1202_" fill="#3C3734" d="M188.1,18.3c1.6,0.1,2.6,1.1,3.6,2.2l-0.4,0.5c-1.2-0.7-2.5-1.4-3.7-2L188.1,18.3z"/>
	<path id="XMLID_1201_" fill="#292321" d="M178.7,236.8c0.4-1.3,1.5-1.5,2.6-1.4C180.6,236.3,179.9,237,178.7,236.8z"/>
	<path id="XMLID_1200_" fill="#4E4541" d="M230.3,191.3c-0.3,1.5-1.3,2.5-2.3,3.5l-0.6-0.5c0.5-1.4,1.1-2.6,2.2-3.6L230.3,191.3z"/>
	<path id="XMLID_1199_" fill="#3C3734" d="M55.2,22c-0.4,1.7-1.6,2.3-3.2,2.1C52.6,22.8,53.6,22,55.2,22z"/>
	<path id="XMLID_1198_" fill="#3C3734" d="M194,22c1.6,0.2,2.6,1.2,3.5,2.3l-0.4,0.5c-1.4-0.5-2.6-1.2-3.6-2.3L194,22z"/>
	<path id="XMLID_1197_" fill="#292321" d="M186.4,232.8c0.3-1,1.1-1.2,2-1.3C188,232.4,187.3,232.8,186.4,232.8z"/>
	<path id="XMLID_1196_" fill="#292321" d="M182.5,234.9c0.4-1.3,1.3-1.5,2.5-1.4C184.4,234.3,183.7,235,182.5,234.9z"/>
	<path id="XMLID_1195_" fill="#2C2827" d="M241.7,83.7c-1.9-1-1.8-2.6-1.4-4.3c0.6,0.8,1.2,1.6,1.8,2.4
		C242,82.4,241.9,83.1,241.7,83.7z"/>
	<path id="XMLID_1194_" fill="#E9E0D6" d="M245.6,91.6c-1.3-1.1-1.9-2.3-1.5-4C245.6,88.5,245.9,89.9,245.6,91.6z"/>
	<path id="XMLID_1193_" fill="#E9E0D6" d="M241.7,83.7c0.1-0.6,0.3-1.3,0.4-1.9c1.5,0.9,1.8,2.3,1.5,3.9
		C243,85,242.4,84.4,241.7,83.7z"/>
	<path id="XMLID_1192_" fill="#2C2827" d="M239.8,78c-1.7-0.8-2.1-2.3-1.8-4C239.5,75,240,76.3,239.8,78z"/>
	<path id="XMLID_1191_" fill="#2C2827" d="M234.2,66.3c-1.7-0.7-2.3-1.9-2-3.6C233.6,63.5,234.3,64.7,234.2,66.3z"/>
	<path id="XMLID_1190_" fill="#E9E0D6" d="M246.2,154.7c-0.4-1.6,0.1-2.9,1.2-4C247.9,152.3,247.8,153.7,246.2,154.7z"/>
	<path id="XMLID_1189_" fill="#A2A095" d="M2.7,154.3c1.4,0.9,1.9,2.1,1.7,3.7C2.3,156.9,2.2,156.7,2.7,154.3z"/>
	<path id="XMLID_1188_" fill="#423C3A" d="M18.9,58.6c0.2-1.6,1.2-2.6,2.3-3.5l0.7,0.5c-0.7,1.2-1.4,2.4-2.2,3.6
		C19.4,59,19.1,58.8,18.9,58.6z"/>
	<path id="XMLID_1187_" fill="#292321" d="M11.4,177.8c-1-1.1-1.9-2.3-1.8-3.9c0,0,0.3-0.2,0.3-0.2c1.2,1,1.6,2.4,1.8,3.9
		L11.4,177.8z"/>
	<path id="XMLID_1186_" fill="#292321" d="M19.5,192.8c-0.8-1.1-1.9-2.1-2.1-3.6l0.1-0.1C18.9,190,19.3,191.4,19.5,192.8L19.5,192.8
		z"/>
	<path id="XMLID_1185_" fill="#292321" d="M13.3,181.7c-1.1-1.1-2-2.2-1.9-3.9c0,0,0.3-0.2,0.3-0.2c1.2,1,1.7,2.4,1.9,3.8
		L13.3,181.7z"/>
	<path id="XMLID_1184_" fill="#423C3A" d="M24.4,50.7c0.3-1.5,1.3-2.5,2.5-3.3c0,0,0.6,0.6,0.6,0.6c-0.8,1.1-1.6,2.3-2.4,3.4
		C24.9,51.2,24.6,50.9,24.4,50.7z"/>
	<path id="XMLID_1183_" fill="#292321" d="M15.4,185.4c-1.1-1-2.1-2.1-2-3.7c0,0,0.3-0.2,0.3-0.2c1.3,1,1.7,2.3,1.9,3.8L15.4,185.4z
		"/>
	<path id="XMLID_1182_" fill="#3C3734" d="M63.2,17c-0.3,1-0.9,1.4-1.9,1.3C61.5,17.2,62.1,16.8,63.2,17z"/>
	<path id="XMLID_1181_" fill="#3C3734" d="M57.3,20.5c-0.5,1.4-0.5,1.4-1.9,1.4C55.8,20.5,55.8,20.5,57.3,20.5z"/>
	<path id="XMLID_1180_" fill="#3C3734" d="M191.8,20.5c1.1,0,1.8,0.6,2.2,1.5c0,0-0.5,0.6-0.5,0.6c-0.7-0.5-1.4-1.1-2.1-1.6
		L191.8,20.5z"/>
	<path id="XMLID_1179_" fill="#3C3734" d="M51.6,24.4c-0.5,1.3-0.7,1.5-1.9,1.5C50.1,24.5,50.2,24.4,51.6,24.4z"/>
	<path id="XMLID_1178_" fill="#3C3734" d="M197.5,24.4c1.1,0.1,1.7,0.7,2.2,1.6l-0.5,0.5c-0.7-0.6-1.4-1.1-2.1-1.7L197.5,24.4z"/>
	<path id="XMLID_1177_" fill="#423C3A" d="M21.1,55.1c0.1-1.1,0.7-1.7,1.6-2.2l0.7,0.7c-0.5,0.7-1.1,1.4-1.6,2.1L21.1,55.1z"/>
	<path id="XMLID_1176_" fill="#E9E0D6" d="M4.2,159.7c1.3,0.6,1.6,1.5,1,2.8C4,161.8,3.8,160.9,4.2,159.7z"/>
	<path id="XMLID_1175_" fill="#423C3A" d="M22.7,52.9c0.2-1,0.7-1.7,1.7-2.2c0.2,0.2,0.5,0.5,0.7,0.7c-0.6,0.7-1.1,1.4-1.7,2.1
		L22.7,52.9z"/>
	<path id="XMLID_1174_" fill="#2C2827" d="M235.5,68.4c-1.1-0.3-1.5-1-1.3-2.1C235.2,66.7,235.7,67.3,235.5,68.4z"/>
	<path id="XMLID_1173_" fill="#E9E0D6" d="M7.7,166.2c-0.3,0.6-0.5,1.3-0.8,1.9c-1-0.5-1.3-1.4-0.9-2.4
		C6.6,165.7,7.2,165.9,7.7,166.2z"/>
	<path id="XMLID_1172_" fill="#B6A791" d="M220.5,45.6c-1.2-0.2-1.7-1-1.7-2.1C219.9,43.7,220.5,44.3,220.5,45.6z"/>
	<path id="XMLID_1171_" fill="#2C2827" d="M237.4,72.3c-1.1-0.4-1.5-1.1-1.3-2.2C237.2,70.5,237.7,71.1,237.4,72.3z"/>
	<path id="XMLID_1170_" fill="#292321" d="M21.2,194.9c-0.6-0.7-1.1-1.4-1.7-2.1l0,0.1C20.4,193.3,21,194,21.2,194.9L21.2,194.9z"/>
	<path id="XMLID_1169_" fill="#292321" d="M22.8,197.1c-0.9-0.4-1.5-1.1-1.6-2.2c0,0,0,0,0,0c0.7,0.6,1.3,1.2,2,1.8L22.8,197.1z"/>
	<path id="XMLID_1168_" fill="#4E4541" d="M228,194.9c-0.1,1-0.8,1.6-1.6,2.2c0,0-0.6-0.6-0.6-0.6c0.5-0.7,1.1-1.4,1.6-2.1
		L228,194.9z"/>
	<path id="XMLID_1167_" fill="#3C3734" d="M66.9,14.9c-0.3,1.1-1,1.5-2.1,1.3C65.1,15.2,65.8,14.8,66.9,14.9z"/>
	<path id="XMLID_1166_" fill="#B6A791" d="M218.7,43.4c-0.7,0-1.3,0-2,0.1c0.1-0.7,0.1-1.4,0.2-2.1
		C218.1,41.6,218.7,42.2,218.7,43.4z"/>
	<path id="XMLID_1165_" fill="#4E4541" d="M222.3,202.6c-0.6,0.7-1.2,1.4-1.7,2.1c0,0-0.6-0.6-0.6-0.6c0.6-0.7,1.2-1.3,1.7-2
		L222.3,202.6z"/>
	<path id="XMLID_1164_" fill="#4E4541" d="M220.6,204.6c-0.2,1-0.9,1.6-1.8,2.1l-0.6-0.6c0.6-0.7,1.2-1.3,1.8-2L220.6,204.6z"/>
	<path id="XMLID_1163_" fill="#4E4541" d="M218.8,206.7c-0.2,1-0.9,1.6-1.8,2c0,0-0.6-0.7-0.6-0.7c0.6-0.6,1.2-1.3,1.8-1.9
		L218.8,206.7z"/>
	<path id="XMLID_1162_" fill="#B6A791" d="M216.9,41.4c-1.1-0.3-1.5-1.1-1.7-2.1C216.3,39.5,217,40.1,216.9,41.4z"/>
	<path id="XMLID_1161_" fill="#3C3734" d="M209.1,33.8c1,0.3,1.7,0.9,2,1.9l-0.5,0.5c-0.6-0.6-1.3-1.3-1.9-1.9L209.1,33.8z"/>
	<path id="XMLID_1160_" fill="#3C3734" d="M207.1,32c1,0.2,1.7,0.8,2,1.8c0,0-0.4,0.5-0.4,0.5c-0.7-0.6-1.3-1.2-2-1.9L207.1,32z"/>
	<path id="XMLID_1159_" fill="#3C3734" d="M199.7,26c1,0.1,1.8,0.7,2.1,1.7c0,0-0.6,0.6-0.6,0.6c-0.7-0.6-1.4-1.2-2.1-1.8L199.7,26z
		"/>
	<path id="XMLID_1158_" fill="#4E4541" d="M195.9,226.9c0-0.9,0.5-1.1,1.2-0.9C197.1,226.7,196.6,227,195.9,226.9z"/>
	<polygon id="XMLID_1157_" fill="#292321" points="54.7,227.8 55,228 54.8,228.3 	"/>
	<path id="XMLID_1156_" fill="#292321" d="M57.9,229.9c0.7-0.1,1.1,0.2,1.2,0.9C58.4,230.8,58,230.5,57.9,229.9z"/>
	<path id="XMLID_1155_" fill="#3C3734" d="M211.1,35.7c1,0.2,1.7,0.9,1.9,1.9c0,0-0.6,0.5-0.6,0.5c-0.6-0.6-1.2-1.3-1.8-1.9
		L211.1,35.7z"/>
	<path id="XMLID_1154_" fill="#3C3734" d="M205.1,30.2c1,0.2,1.6,0.8,2,1.7c0,0-0.4,0.4-0.4,0.4c-0.7-0.6-1.3-1.2-2-1.7L205.1,30.2z
		"/>
	<path id="XMLID_1151_" fill="#E9E0D6" d="M216.2,44.1c0.7,1.8,2.6,3,2.5,5.2c-0.3,0.6-0.3,1.1,0,1.7c-0.7,1.7-2,3-3.2,4.2
		c-1.1,1.1-1.9,2.3-2.5,3.7c-2.1,0.3-3.2,1.7-3.9,3.6c-0.8,2.2-0.7,4.5,0.4,6.4c1.9,3.3,3.2,6.7,4.3,10.3c0.2,0.7,1.3,1.2,2,1.7
		c-0.1,0.5,0,0.9,0.4,1.2c-0.1,0.2-0.2,0.5-0.2,0.6c0.1,0.4,0.3,0.8,0.4,1.2c0.1,1.8,0.9,3.1,2.8,3.2c3.5,0.3,7,0.2,10.3-1
		c2.1-0.7,4.3-1.1,6.5-1.2c2.1-0.1,3.4,0.9,3.9,3.2c0.2,0.9,0.3,1.9,0.3,2.8c0,0.6-0.1,1.4-0.5,1.8c-1.8,1.7-3.5,3.7-6.1,4.3
		c-2.2,0.5-4.3,1.2-6,2.6c-1.6,1.2-3.5,1.5-5.2,2.2c-1.2,0.5-2.1,1.3-2.8,2.5c-0.8,1.5-1,3-0.3,4.5c-0.5,3.8-0.2,7.6,0.2,11.4
		c0.3,0.6,0.4,1.3,0.8,1.6c1.7,1.4,3.7,2.5,5.9,3c5.6,1.3,11.1,2.6,16.7,4c1.2,0.3,2.1,1.5,2.4,2.8c0.3,1.2,0.2,2.5,0.1,3.8
		c-0.1,1.2-1.3,2.4-2.5,2.6c-1.2,0.2-2.5,0.4-3.8,0.5c-5.4,0.3-10.8,0.4-16.2,0.7c-2,0.1-3.6,1.1-4.7,2.8c-0.5,0.7-0.2,1.2,0.6,1.4
		c-1,1.5-1.1,3.2-1.1,5c-1.3,0.5-1.7,1.4-1.3,2.6c-0.8,2.5-1.5,4.9-0.6,7.6c-0.5,1-0.3,2,0.4,2.6c3.9,3.2,7.8,6.6,12.3,8.9
		c1.8,0.9,3.2,2.1,4.5,3.5c1,1,1.1,2.2,0.8,3.5c-0.4,2.1-1.5,3.5-3.4,4.4c-0.8,0.4-2,0.8-2.7,0.5c-3-1.2-6-2.1-9.1-2.7
		c-0.9-0.1-1.7-0.8-2.5-1.3c-1.1-0.7-2.2-1.2-3.5-1.4c-1.3-0.2-2.7-0.2-3.6,0.8c-1.5,1.6-3.6,2.7-4.1,5.1c-2,2.9-3.8,5.9-5.1,9.2
		c-0.7,1.9-0.7,3.7,0.4,5.5c0.5,0.8,0.7,1.9,1.4,2.5c2.8,2.3,3.3,6.2,6,8.5c1.1,0.9,1.1,2.2,1,3.5c0,1-0.5,1.9-1.2,2.5
		c-1,0.8-2,1.5-3.2,2.1c-0.5,0.3-1.3,0.3-1.8,0.1c-3.7-1.8-7.1-4.3-10.3-6.9c-1-0.8-1.9-1.7-2.9-2.4c-1.4-0.9-2.9-1.3-4.5-0.7
		c-2.5,1-14.7,7.4-16.8,9c-0.4,0.3-0.7,1.1-0.7,1.7c0,1.6,0,3.2,0.3,4.7c0.2,1.3,1.3,2.2,2.5,2.7c0.1,2.4,0,4.8,0.9,7.1
		c-0.2,1.6-0.3,3.2-0.6,4.7c-0.3,1.3-1.1,2.3-2.5,2.6c-1.2,0.3-2.5,0.5-3.7,0.6c-1.3,0.1-2.6-0.2-3.3-1.4c-2.5-4.1-4.9-8.2-7.3-12.3
		c-0.6-1.1-0.8-2.5-1.5-3.5c-1-1.2-2.3-2.2-3.8-3.6c-4.2-0.4-9,0-13.7,0.9c-0.5,0.1-1.1,0.7-1.3,1.3c-0.4,0.8-0.8,1.8-0.9,2.7
		c-0.5,4.4-1.3,8.8-2.7,13.1c-0.7,2.1-0.7,4.4-1.1,6.6c-0.3,2.2-1.5,3.2-4,3.2c-1.3,0-2.5-0.2-3.8-0.3c-1.1-0.1-2-0.9-2.1-1.7
		c-1.2-6.9-4-13.4-3.7-20.6c0.1-1.2-0.4-2.5-0.8-3.7c-0.2-0.5-0.7-1.2-1.2-1.4c-6.4-1.9-12.6-4.4-19.5-4c-1.3,0.1-2.4,0.6-3.2,1.7
		c-1.4,1.8-2.6,3.6-3.9,5.4c-2.8,4.2-5.8,8.4-8.8,12.5c-1,1.4-2.5,2-4.2,1.5c-1.6-0.5-3.1-0.5-4.7-0.4c-0.3-0.9-0.4-1.8-0.8-2.7
		c-0.6-1.6-0.6-3,0.2-4.5c2.5-4.8,3.8-10,5.2-15.2c0.2-0.9,0.4-1.9,0.2-2.8c-0.2-0.9-0.7-1.7-1.2-2.5c-0.3-0.5-0.9-0.8-1.5-1.1
		c-5-2.6-10.1-5.2-14.8-8.4c-2.2-1.5-4.8-1.2-7.1,0.4c-2.3,1.6-4.7,3.2-7.1,4.7c-1.9,1.1-3.9,2.1-5.9,3c-1.2,0.6-2.4,0.6-3.7,0.4
		c-0.9-0.9-1.8-1.7-2.7-2.6c-1.4-1.4-1.6-4.8-0.4-6.1c2.8-3,5.6-5.9,8.3-9c0.9-0.9,1.3-2.1,1.1-3.5c0.8-1.3,0.6-2.5-0.1-3.7
		c0.1-0.3,0.4-0.7,0.3-0.9c-1.1-2.3-2.4-4.4-3.4-6.8c-0.9-2-1.4-4.3-2.2-6.3c-0.5-1.2-1.2-2.2-2-3.3c-0.6-0.8-1.3-1.3-2.4-1.3
		c-3.5,0-7,0-10.3,1.8c-1.4,0.8-3,0.9-4.6,0.9c-2.2,0.1-4.4,0.3-6.7,0.4c-0.2-2.5-0.4-5-0.6-7.6c-0.1-1.4,0.6-2.5,1.7-3.2
		c1.3-0.9,2.7-1.9,4.2-2.2c3.2-0.7,5.7-2.6,8.3-4.4c2,0.3,3.6-0.4,5-2c1.2-1.5,2.4-2.8,2.4-5c-0.2-3.8-0.1-7.6-0.2-11.5
		c0-1.4-0.8-2.4-2.2-2.8c-3.9-1.1-7.5-3.2-11.8-3.7c-3.1-0.3-6.2-1.4-9.2-2.3c-0.9-0.3-1.7-0.9-2.3-1.6c-1-0.9-1.3-2.2-1-3.5
		c0.4-2,1.7-3.4,3.3-4.5c0.7-0.5,1.8-0.7,2.7-0.8c4.8-0.2,9.5-0.4,14.3-0.6c1.6-0.1,3.2-0.3,4.7-0.4c2.1-0.2,3.4-1.7,4.2-3.5
		c0.4-0.8,0.7-1.8,0.9-2.7c0.5-2.5,1-5,1.5-7.5c0.9-4.8,0.6-5.6-3.7-8.7c-3.9-2.8-7.8-5.4-11.6-8.2c-1-0.7-1.8-1.8-2.7-2.6
		c-1.6-1.4-2.1-3.1-1.9-5.1c0.1-0.6-0.1-1.3-0.2-1.9c0.6-0.2,1.3-0.3,1.7-0.7c0.7-0.7,1.7-1.3,2.5-1c4.2,1.5,8.9,1,12.7,3.6
		c2.2,0.5,4.3,1.1,6.5,1.4c2.3,0.4,4.6-0.9,5.3-3c1.1-3.7,4.1-6.4,4.9-10.2c1.6-1.9,1.7-3.9,0.4-6.1c-0.8-1.4-1.2-3-2.1-4.3
		c-0.5-0.7-1.5-1-2.3-1.5c0.1-2-1-3.5-2.1-5c-1.6-2.2-1.7-4.5-0.8-6.9c0.1-0.3,0.1-0.6,0.2-0.9c1.2-0.3,2.4-0.7,3.6-0.9
		c1.9-0.3,3.8,0.1,5.3,1.3c1.4,1.2,2.7,2.6,4.1,3.8c0.7,0.6,1.7,0.7,2.5,1.1c0.9,1,2,1.5,3.3,1.8c1.2,0.4,2.5,0.5,3.7-0.1
		c0.9-0.4,1.9-0.6,2.6-1.2c3.8-2.8,8.1-5,12.2-7.3c1.5-0.9,2.3-2.2,2.2-4c-0.1-1.6,0-3.3-0.7-4.7c-1.7-3.6-1.9-7.3-2.4-11.1
		c0.5-0.4,1-0.8,1.4-1.3c1.6-1.9,3.7-2.3,6-2.2c1,0,2,0.2,2.5,1.1c1.4,2.5,3.5,4.4,4.3,7.3c0.6,2.1,2.4,3.7,3.2,5.7
		c1.4,3.6,4.2,4.5,7.6,4.5c2.5,0,5.1-0.3,7.6-0.5c1.3-0.1,2.5-0.3,3.8-0.5c1.2-0.2,2.2-1.1,2.5-2.5c1.4-6.5,3.2-12.9,3.8-19.6
		c0.1-1,1.4-2.2,2.7-2.4c1.3-0.1,2.5-0.2,3.8-0.3c0.3,0,0.6,0.1,0.9,0.1c0.9,0.3,1.8,0.7,2.1,1.7c0.7,2.4,1.2,4.9,2,7.3
		c0.4,1.2,1.1,2.3,1.6,3.4c-0.3,1.3-0.2,2.5,0.3,3.8c-0.6,1.5-0.5,3.1-0.3,4.7c0.4,4.7,1.9,6.2,6.4,6.6c5.4,0.5,10.8,0.3,16.1,1.6
		c2.3-0.3,4.6-0.9,5.6-3c2-4,5.1-7.3,7.4-11c0.8-1.3,1.9-2.5,3-3.7c0.4-0.4,1-0.8,1.6-1c2.4-0.7,6.1,1.3,6.9,3.8
		c0.2,0.6,0.4,1.3,0.2,1.8c-1.1,3.6-2.3,7.3-3.4,10.9c-0.5,1.5-1,3-1.4,4.5c-0.4,1.7,0.6,4,2.2,4.9c3,1.6,6.4,2.7,9.3,4.6
		c0.5,0.3,1.2,0.1,1.9,0.1l0.3,0.2c0.6,0.7,1,1.7,1.7,2.2c2.1,1.5,4.2,2.8,6.4,4c0.7,0.4,2,0.5,2.7,0.1c3.2-1.9,6.7-3.5,9.3-6.4
		l0.5-0.3c1.2-0.2,2.5-0.1,3.6-0.5C213.8,43.8,215,44.1,216.2,44.1z M157.1,53.6l-0.3-0.2c0.1-1-0.4-1.7-1.3-2.1
		c-0.5-0.2-1.1-0.4-1.7-0.5c-0.2-0.5-0.3-1-0.5-1.5c-0.2-0.9-0.2-1.9-0.6-2.7c-0.4-0.9-2-0.9-2.4,0c-0.4,0.8-0.4,1.8-0.6,2.7
		c-0.2,0.5-0.2,1.1-0.3,1.6c-1.8,0.1-3.7,0.1-5.5,0.2c-0.6-0.7-1.2-1.4-1.8-2.1c-0.1-0.6-0.1-1.2-0.3-1.8c-0.1-0.3-0.3-0.5-0.6-0.6
		c-0.5-0.3-1.1,0-1.3,0.7c-0.2,0.6-0.1,1.2-0.1,1.8c0,0,0,0,0,0c-1.2,0.6-2.4,1.2-3.6,1.9c-0.1-0.6-0.4-1-0.8-1.4
		c-1.4-2.9-3.8-4.1-7-4.2c-1.8-0.6-3.1,0.2-4,1.7c-1.1,0.2-1.7,0.7-2,1.8c0,0-0.1,0.1-0.1,0.1c-1.2,0.1-2.4,0.3-3.5,0.4
		c-0.2-0.6-0.4-1.2-0.6-1.8c-0.5-1-1.7-1-2.3,0c-0.3,0.6-0.5,1.2-0.8,1.8c-1.5-0.1-3-0.2-3.9-1.7c-0.3-0.5-0.7-1-1.2-1.4
		c-1-0.8-2.2-0.8-3.4-0.3c-1,0.4-1.1,1.3-1.3,2.2c-0.1,0.3,0,0.6,0,0.9c-0.3,0.5-0.6,1-0.7,1.6c-1.7,0.4-3.1-0.4-4.5-1
		c-2.1-0.8-4.8,0.8-5.5,2.7c-0.9,2.5-1.4,4.9,0.7,7.1c1.5,1.4,2,3.2,2,5.2c0,0.6,0.2,1.2,0.4,1.9c-0.2,0.5-0.3,1.1-0.2,1.7
		c-1.2,0.6-2.1,1.5-2.6,2.7c-0.5,1.2-0.8,2.4-1.1,3.6c-1.5,5-4.5,9-8.6,12.2c-2.5,2-6.3,1.9-8.8-0.1c-1.7-1.4-3.2-3-4.1-5.2
		c-1.5-3.6-1.8-7.3-0.9-11.2c0.3-1.2,0.4-2.5,0.7-3.7c0.8-1.3,1-2.7,0.6-4.2c-0.1-0.2-0.2-0.6-0.4-0.6c-0.7-0.1-1.2,0.2-1.3,0.8
		c-0.1,0.5-0.1,1.1-0.1,1.7c-1.5,0.5-2.9,1.4-3.4,3c-1.1,3.3-2.4,6.5-3.3,9.9c-0.4,1.5-0.3,3.1-0.2,4.7c0.1,1.4,0.9,2.3,2.2,2.7
		c0.1,1.7,0.1,3.4,1,5c-0.2,1.2-0.2,2.5,0.9,3.2c2,1.4,4,2.7,5.5,4.6c-0.4,0.8-0.7,1.8-1.2,2.5c-2.4,3-4,6.3-5,10
		c-0.5,2.1-1.6,4.1-2.4,6c0.4,2.3,1.1,4.5,0.9,6.6c-0.4,4.5,0.7,8.7,2,12.9c-1.2,1.5-2.4,2.8-3.4,4.4c-0.5,0.7-0.6,1.7-0.8,2.6
		c-0.2,0.9,0.7,2.1,1.4,2.1c2.2,0,4.3,0,6.5,0.1c0.8,3,1.6,5.9,2.3,8.9c0.4,1.8,1.6,2.5,3.3,2.6c-0.2,3.2,0.7,6.2,1.9,9
		c1,2.3,2.2,4.3,5.3,4.6c1.8,0.1,3.4,1.2,5.2,1.8c0.4,3.1,0.7,6.3,1.2,9.4c0.2,1.2,0.3,2.7,1,3.6c1.7,2.3,2.7,4.9,4,7.4
		c0.1,0.1,0.6,0,0.8-0.1c0.2-0.1,0.6-0.3,0.6-0.5c0.3-3.4,0.5-6.9,0.9-10.4c0.2-2.3,3.2-3.6,5-2.2c1,0.7,1.8,1.7,2.8,2.6
		c0,0.3-0.1,0.6-0.1,0.9c2,9.3,7.6,18.3,14.6,23.6c0.7,0.5,1.7,0.7,2.6,1c0.2,0.1,0.6-0.1,0.7-0.2c0.2-0.2,0.4-0.6,0.3-0.8
		c-1-2.3-1.9-4.7-3-6.9c-1.7-3.2-2.4-6.5-2.4-10c0-0.6,0.4-1.2,0.6-1.8c1-0.3,1.9-0.2,2.6,0.5c1.3,1.3,2.6,2.7,4.1,3.8
		c3.3,2.5,7.4,3.4,11,5.3c0.5,0.3,1.2,0.4,1.8,0.4c3.8,0.2,7.5,0.3,11.2-1c0.2-0.1,0.4-0.4,0.4-0.6c0-0.3,0-0.7-0.2-0.9
		c-3.1-2-6-4.5-9.7-5.7c0.6-0.8,1.2-1.5,2.2-1.5c3.4-0.1,6.9,0,10.3-0.2c2.2-0.1,4.3-0.4,6.5-0.7c1.3-0.2,2.2-2.5,1.5-3.8
		c-0.6-1.1-1.4-2.1-2.7-2.4c-2.7-0.7-5.5-0.9-8.3-0.6c-2.6-0.3-4.6-1.4-5.9-3.7c-0.2-0.3-0.4-0.5-0.6-0.7c0.2-2.2,1.3-3.9,3.4-4.8
		c0.2-0.1,0.4-0.4,0.6-0.7c2,1,3.9,2.1,6,2.8c4,1.5,8.2,1.7,11.9-0.7c2.1-1.4,4.7-1.9,6.3-4c0.9-0.3,2-0.5,2.5-1.1
		c1.2-1.4,2.2-3.1,3.2-4.6c2.1-3,1.8-4.9-1.3-7.2c-0.5-0.4-1.1-0.5-1.7-0.8c0.5-1.2,0.9-2.3,1.4-3.5c0.8-0.4,2-0.6,2.3-1.2
		c1.1-2.8,2.4-5.4,3.9-8c0.5-0.8,0.1-1.7-0.8-2.3c0.3-1.4,0.6-2.9,0.8-4.3c2.5-1.3,2.5-1.3,1.2-3.9c1.1-5.7,1.3-11.3,0.1-17
		c1.2-2.6,1.1-2.7-1.5-3.6c-0.5-1.6-1-3.3-1.5-4.9c0.1-0.5-0.1-0.9-0.6-1.2c-0.6-0.4-1.1-0.7-1.7-1.1c0.5-0.8,0.8-1.7,1.5-2.3
		c2-1.9,3.6-4,5.3-6.1c2.2-1,3.6-2.6,3.8-5.1c0.2-3.8,0.3-7.6,0.3-11.4c0-2.9-0.7-5.6-2.1-8.2c-1.1-1.9-1.6-4.1-2.5-6.2
		c-0.3-0.8-0.9-0.9-1.5-0.4c-0.2,0.2-0.6,0.4-0.7,0.6c-0.3,0.6-0.7,1.2-0.7,1.7c0,6,0,12.1,0,18.1c0,0.6,0.4,1.2,0.6,1.8
		c-0.3,1-0.6,2.1-0.9,3.1c-1.7,0.5-2.4,1.7-2.5,3.4c-1.1,0.3-2.2,0.5-3.3,0.8c-2.9-4.7-5.9-9.4-8.8-14.1c-1.2-1.9-3.1-3-5.4-3.2
		c-0.1-1.9-0.3-3.8-0.4-5.8c0.2-0.9,0.6-1.8,0.6-2.7c0.1-2.2,0.7-4.1,1.9-6c1-1.6,0.6-3.6-0.3-5.3c-0.6-1.2-1.9-1.5-3-1.9
		C158.9,53.7,158.2,53.2,157.1,53.6z"/>
	<path id="XMLID_1150_" fill="#030404" d="M113.4,238.9c-0.2,2.2-0.3,3.8-0.4,5.4c-0.1,1.1-1.4,2.4-2.6,2.3
		c-2.5-0.1-5.1,0.1-7.6-0.4c-5-1-9.9-2.4-14.8-3.6c-2-0.5-3.3-1.9-4.5-3.4c-0.3-0.5-0.7-1.3-0.5-1.7c0.9-3,1.4-6,3.9-8.4
		c2.3-2.2,3.8-5.1,6.3-7.2c1.3-1.1,2.7-1.7,4.3-1.8c1.9,0,3.8,0,5.8,0c2.4-0.1,4.3,0.9,6.2,2.2c0.8,0.5,1.4,1.3,1.6,2.3
		c0.4,2.8,0.5,5.7,1.6,8.4C113.5,234.8,113.2,237.3,113.4,238.9z"/>
	<path id="XMLID_1149_" fill="#060708" d="M218.2,206.1c-0.6,0.6-1.2,1.3-1.8,1.9c-1.2,0.4-2.5,0.7-3.5-0.3
		c-1.1-1.1-2.4-2.1-3.2-3.5c-1.5-2.8-4.5-4.5-5.7-7.5c-0.8-1.9-0.9-3.7,0.3-5.4c0.9-1.3,2.1-2.4,3-3.7c0.9-1.3,1.5-2.8,2.1-4.2
		c0.6-1.3,1.7-1.8,3-2c3.3-0.4,6.5,0.2,8.9,2.4c2.2,2,4.5,3.2,7.4,3.7c1.1,0.2,1.1,1.4,1.1,2.3c0,0.3-0.1,0.6-0.1,0.9
		c-1.1,1-1.7,2.3-2.2,3.6c-0.5,0.7-1.1,1.4-1.6,2.1c-1.7,1.7-3.1,3.5-4.1,5.6c-0.6,0.7-1.2,1.3-1.7,2
		C219.4,204.7,218.8,205.4,218.2,206.1z"/>
	<path id="XMLID_1148_" fill="#2C2827" d="M216,158.5c-0.9-2.6-0.2-5.1,0.6-7.6c0.7,0,1.4,0,2.2,0c1.1,0.8,1.7,1.9,1.6,3.3
		c-0.1,1.6-0.2,3.2-0.3,4.8C218.8,158.8,217.4,158.6,216,158.5z"/>
	<path id="XMLID_1147_" fill="#2C2827" d="M224.3,162.8c1.2,0,2.5-0.1,3.7,0.1c0.9,0.2,1.7,0.8,1.8,1.8c0.1,0.6,0.1,1.2,0.1,1.8
		c-0.6-0.1-1.2-0.2-1.9-0.2C225.8,166.2,224.7,164.9,224.3,162.8z"/>
	<path id="XMLID_1146_" fill="#080404" d="M132.5,20.3c-0.4-1.2-0.5-2.5-0.3-3.8c1-0.8,1.8-1.8,1.7-3.2c-0.1-3.1-0.2-6.2-0.3-9.4
		c0.4-0.2,1-0.8,1.5-0.8c2.2,0,4.4-0.1,6.6,0.3c7.4,1.5,14.8,2.6,22,5.2c0.9,0.3,1.8,0.4,2.8,0.6c1,2.9,0.7,5.3-1.7,7.7
		c-2.6,2.7-5,5.7-6,9.5c-1.7,2-3.8,3.4-6.5,3.3c-2.5,0-4.7-1.8-7.3-1.7c-2.2,0.1-4.4-0.2-6.6-0.5c-0.9-0.1-1.7-0.9-1.9-1.9
		c-0.2-0.9-0.4-1.9-0.5-2.8C135.5,21.2,134.2,20.5,132.5,20.3z"/>
	<path id="XMLID_1145_" fill="#080404" d="M88.1,6.7c2.2,0.5,4.5,0.3,6.5-0.5c4.5-1.7,9.4-1.3,13.9-2.9c0.9-0.3,1.9-0.1,2.8-0.2
		c2.2-0.1,3.7,1.3,3.7,3.3c0,0.9,0.1,1.9-0.1,2.8c-0.8,3.7-1.7,7.4-2,11.2c-0.1,1.6-2.3,3.7-3.9,3.7c-2.5,0.2-5,0.2-7.6,0.2
		c-3.2,0-5.2-2-6.8-4.5c-0.6-1.1-0.8-2.4-1.3-3.5c-1-2.3-2-4.6-4.2-6.2c-1.1-0.8-1.1-2.2-1.4-3.4L88.1,6.7z"/>
	<path id="XMLID_1144_" fill="#4E4541" d="M218.8,150.9c-0.7,0-1.4,0-2.2,0c-0.4-1.3,0-2.2,1.3-2.6
		C218.3,149.2,218.6,150,218.8,150.9z"/>
	<path id="XMLID_1143_" fill="#4E4541" d="M215.9,80.8c-0.7-0.6-1.8-1-2-1.7c-1.2-3.6-2.4-7-4.3-10.3c-1.1-1.9-1.2-4.2-0.4-6.4
		c0.7-1.9,1.8-3.3,3.9-3.6c0.1,0.7,0.2,1.4,0.3,2.2c-1.1,4.8-0.4,9.3,1.9,13.6c0.5,0.8,0.8,1.7,1.1,2.6
		C216.7,78.5,216.5,79.7,215.9,80.8z"/>
	<path id="XMLID_1142_" fill="#3C3734" d="M213.2,61c-0.1-0.7-0.2-1.4-0.3-2.2c0.6-1.4,1.4-2.6,2.5-3.7c1.3-1.2,2.6-2.5,3.2-4.2
		c0.6-0.1,1.1-0.3,1.5-0.6c0.1,1.5,0.3,2.9,0.4,4.4C218.9,57.8,216.8,60.2,213.2,61z"/>
	<path id="XMLID_1141_" fill="#2C2827" d="M216.5,83.9c-0.1-0.4-0.3-0.8-0.4-1.2c0-0.2,0.1-0.4,0.2-0.6c0.9,0,1.7-0.1,2.6-0.1
		c1.5,0,2.8,0.5,3.7,1.8C220.6,83.7,218.6,83.8,216.5,83.9z"/>
	<path id="XMLID_1140_" fill="#2C2827" d="M230.4,82.2c-1.1,1.3-2.5,1.5-4.1,1.2C227.4,82.1,228.8,81.9,230.4,82.2z"/>
	<path id="XMLID_1139_" fill="#1B1917" d="M204.8,30.7c0.7,0.6,1.3,1.2,2,1.7c0.7,0.6,1.3,1.2,2,1.9c0.6,0.6,1.3,1.3,1.9,1.9
		c0.6,0.6,1.2,1.3,1.8,1.9c0.4,1.3,0.3,2.5-1,3.2c-1.5,0.8-2.4,1.9-2.4,3.6l-0.5,0.3c-2.2-0.1-4.5,0-6.5,1.1c-3.1,1.7-6,1.4-9-0.2
		c-1.4-0.8-3-0.9-4.6-0.7l-0.3-0.2c-0.1-1.7-0.7-3-2.5-3.5c-3-0.7-4.5-3.3-6.5-5.2c-0.4-0.4-0.5-1.2-0.5-1.8
		c0.1-1.2,0.1-2.5,0.5-3.7c1.1-3.6,2.4-7.2,3.6-10.8c0.3-1,1.6-1.6,3.2-1.5c0.6,0,1.2,0.2,1.9,0.3c1.2,0.7,2.5,1.4,3.7,2
		c0.7,0.5,1.4,1.1,2.1,1.6c1,1.1,2.3,1.8,3.6,2.3c0.7,0.6,1.4,1.1,2.1,1.7c0.7,0.6,1.4,1.2,2.1,1.8
		C202.2,29.4,203.4,30.1,204.8,30.7z"/>
	<path id="XMLID_1138_" fill="#080404" d="M23.4,53.5c0.6-0.7,1.1-1.4,1.7-2.1c0.8-1.1,1.6-2.3,2.4-3.4c1.6-0.9,2.8-2.3,3.6-4
		c1.2-0.3,2.4-0.6,3.6-0.8c1.3-0.1,2.4,0.5,3.1,1.6c0.3,0.5,0.5,1.1,0.7,1.7c0.5,1.7,1.9,2.3,3.3,2.9c0.3,2.5,2.6,4.4,2.2,7.1
		c-0.4,2.5-2.1,4.6-3,6.9c-0.4,0.9-0.8,1.7-1.3,2.5c-1.1,1.7-2.7,2.6-4.8,2.6c-2.2,0-4.4-0.1-6.5-1.1c-2.6-1.2-5.2-2.2-7.9-3.2
		c-0.9-0.4-1.5-1.7-1.3-3.2c0.1-0.6,0.3-1.2,0.4-1.8c0.7-1.2,1.4-2.4,2.2-3.6C22.3,54.9,22.9,54.2,23.4,53.5z"/>
	<path id="XMLID_1137_" fill="#191716" d="M38.7,181.8c0.7,1.2,0.9,2.5,0.1,3.7c-1.2,0.1-2.6,0.1-3.5,1c-2.7,2.7-5.3,5.4-7,8.8
		c-0.6,1.2-1.9,1.6-3.2,1.5c-0.6-0.1-1.2-0.2-1.9-0.2c-0.7-0.6-1.3-1.2-2-1.8c-0.3-0.9-0.8-1.6-1.7-2c-0.2-1.5-0.7-2.9-2-3.7
		c-0.2-1.5-0.6-2.9-1.9-3.8c-0.2-1.5-0.7-2.9-1.9-3.8c-0.2-1.5-0.7-2.9-1.9-3.8c-0.2-1.5-0.6-2.9-1.8-3.9c0-0.3,0-0.6,0-0.9
		c0-0.9,0.2-1.8,0.8-2.6c0.9-1,1.9-1.8,3.2-1.8c4.7-0.1,9.4-0.1,14.1,0c0.9,0,1.8,0.6,2.1,1.6c1,3.7,3.7,6.5,5.6,9.7
		C36.3,180.7,37.7,181.1,38.7,181.8z"/>
	<path id="XMLID_1136_" fill="#B6A791" d="M220.2,50.4c-0.5,0.3-1,0.5-1.5,0.6c-0.2-0.6-0.2-1.1,0-1.7c0.5,0,0.9,0,1.4,0.1
		C220,49.7,220,50.1,220.2,50.4z"/>
	<path id="XMLID_1135_" fill="#0F0A06" d="M97.6,68.1c0-0.6,0-1.1,0.2-1.7c1.9-0.2,3.9-0.5,5.4-1.6c2.2-1.6,4.6-2,7.2-2
		c7.3-0.1,14.7-0.4,22-0.6c0.5,0.4,1,1,1.5,1c2.8,0.3,5.7,0.4,8.5,0.7c2.8,0.4,5.2,2.3,8.2,2.3c0.9,0,1.9,0.2,2.8,0.4
		c1.1,1.8,2.2,3.6,2.2,5.9c0,2.3,1,4.1,2.9,5.4c0.2,3.2,0.3,6.4,0.5,9.6c-1.9,1-1.3,2.5-0.9,4c0.3,1.1-0.3,1.8-1.5,1.8
		c-0.9,0-1.9-0.1-2.8-0.2c-0.2-1.6-0.3-3.2-0.6-4.7c-0.3-1.9-2.1-3-4.3-2.7c-0.9,0.2-2,0.6-2.4,1.3c-0.8,1.3-1,3.1-2,4.3
		c-1.7,2.1-2.5,4.3-2.8,7c-0.2,1.5-0.9,3-1.4,4.5c-0.7,2.1-1.4,4.2-1.9,6.4c-0.3,1.3,0.3,2.5,1.5,3.2c-0.2,2.5-0.5,5-0.7,7.4
		c-1.7,0.5-2.8,1.5-2.9,3.3c-0.1,3.1-0.4,6.3,0.6,9.4c1.3,4.6,3,9,5.5,13c1.2,2,3,3.2,5.4,3.3c0.8,1,1.9,1.6,3.1,1.9
		c1.3,0.3,2.2,1,3.1,1.9c-0.7,0.6-1.3,1.4-2.1,1.7c-1.1,0.4-2.4,0.4-3.6,0.6c-1.9,0.4-2.8,2.7-1.7,4.4c0.7,1,1.6,1.9,2.1,3
		c0.6,1.1,0.8,2.3,1.2,3.5l-0.4,0.5c-1.3,0.1-2.7,0.2-4,0.3l-0.1-0.2c-0.7-1.4-0.7-1.4-2.2-1.3c-0.5-0.2-0.9-0.5-1.3-0.9
		c0-0.7-0.3-1.3-1-1.2c-0.7,0.1-0.9,0.7-0.8,1.4c-0.9,3.2-0.5,6.3,0.1,9.5c-0.7,0-1.2,0.4-1,1c0.2,0.6,0.9,0.6,1.4,0.2l0.3,0.1
		c-0.3,2,1.1,3.4,1.6,5.1c-2-0.3-4.1-0.5-6.1-0.8c-0.8-1.8-1.9-3.2-3.6-4.1c-0.2-2.5-0.3-4.9-0.5-7.4c0-0.6-0.3-1.2-0.4-1.8
		c-0.2-0.8-1.5-1.2-2.3-0.9c-1.5,0.7-2.2,2.1-2.9,3.5c-1.9,3.8-1.5,7.1,1.7,10l0.3,0.7c0.2,4.4,0.2,4.6,3.8,5.9
		c0.7,1.5,2.2,1.7,3.5,2.3c0.4,1.2,0.8,2.3,1.2,3.5c0.3,0.9-0.4,1.8-1.4,1.7c-0.6-0.1-1.4,0-1.8-0.3c-2-1.4-3.9-3.1-6.3-3.9
		c-1.9-2-4.5-3.5-5.2-6.4c-0.4-1.7-2-2.3-3.2-3.2c0-3.8,0-7.6,0-11.4c0-0.9-0.1-1.9-0.2-2.8c-0.1-0.9-1.3-1.9-2-1.5
		c-0.5,0.3-1.1,0.7-1.2,1.2c-1.1,5.9-1.2,11.9-0.5,17.9c0,1,0,1.9,0,2.9c-0.6,0.1-1.3,0.2-1.9,0.3c-2.2,0.4-3.7-0.6-4.6-2.4
		c-0.6-1.1-1-2.3-1.5-3.5c0.1-1.5,0.1-3.1-1.5-4c0.3-3.8,0.6-7.5,0.9-11.3c0.5,0,1-1,0.9-2.2l0,0c3.4-2.9,4.4-6.6,3.8-10.9
		c-0.1-0.8-1.4-1.4-2.2-0.9c-1.3,0.8-2.6,1.7-4,2.5c-2.6,1.6-3.9,4-3.7,7.1l-0.1,0.1c-2.5,0.5-3.5,2-3.4,4.4c0,0.6,0.1,1.2,0.2,1.8
		c-0.2,1.2-0.4,2.5-0.6,3.7c-2.3,0.2-4.6,0.5-6.8-0.5c0.1-1.8,0.2-3.5,0.3-5.3c0.5,0,0.8-0.9,0.7-1.8c1.2-1.1,1.7-2.5,2-4
		c0.4-1.8,0.9-3.5,1.4-5.3l0.5-0.2c1.1-0.6,1.8-1.5,2-2.8c3.4-1,5.7-3.6,8.4-5.7c0.3-0.3,0.3-1.1,0.3-1.7c0-0.7-0.4-1.2-1.1-1.3
		c-2.8-0.7-5.6-0.3-8.3,0.3c-1.8,0.4-2.4,1.7-2.7,3.4l-0.1,0.1c-2.4,0-3.6,1.4-3.8,3.7l-0.1,0.1c-3.2,0.7-3.2,0.7-3.3,4l-0.3,0.5
		c-0.8-0.3-1.6-0.5-2.4-0.8c-1.3-5.6,0.7-10,5-13.3c2.7-2,5.6-4,9-5c2.6-0.8,5.2-2.1,7.5-3.8c0.2-0.1,0.3-0.5,0.2-0.8
		c0-0.3-0.2-0.7-0.4-0.8c-4.6-1.6-9.3-0.8-14-0.7c-1.9,0-3.7,0.5-5.3,1.7c-2.1,1.6-4.6,2-7.1,2.4c-1,0.2-1.8-0.4-2.6-0.9
		c0.2-0.9,0.2-2.1,0.8-2.6c3.1-2.7,6.9-4.3,10.4-6.4c0.8-0.5,1.8-0.7,2.7-0.9c2.5-0.4,5-0.6,7.5-0.9c0.9-0.1,1.9-0.2,2.8-0.5
		c2.4-0.6,4.1-3.8,3.1-5.9c-1.5-3.2-2.5-6.4-2.6-10c0-1.6-0.4-3.1-0.6-4.7c1-2.3,0.9-4.8,0.7-7.2c-0.2-1.6-1.3-2.6-3.1-2.8
		c-2.6-0.3-3.4,0.3-4.4,3.3c-0.5,0.3-1,0.5-1.5,0.6c-3.5-0.8-6.2,0.3-7.9,3.5c-2.6,0.2-5.1,0.3-7.7-0.3c-0.3-0.8-0.5-2.2-1.1-2.4
		c-2.5-1.2-4.7-2.8-6.8-4.6c-0.4-0.3-1.2-0.2-1.8-0.3c-0.8-1.6-0.9-3.3-1-5c0.6-1.1,1.1-2.2,2-4c1.2,2.9,2.7,5.2,4.3,7.5
		c1.7,2.4,3.8,3.2,6.4,3.2c2.2,0,4.4,0,6.6-0.3c0.9-0.1,1.8-0.6,2.5-1.2c1-0.8,2-1.6,2.7-2.7c2.9-4.2,5.1-8.7,6.9-13.4
		C98.1,72,98.3,70,97.6,68.1z"/>
	<path id="XMLID_1134_" fill="#F1B708" d="M139.2,120c0.2-2.5,0.5-5,0.7-7.4c0.6-0.7,1.5-1.3,1.7-2.2c0.7-2.1,1.4-4.3,1.7-6.5
		c0.5-3.9,2.4-7.2,4.2-10.6c0.4-0.7,1.4-1.1,2.4-0.8c0.9,0.3,1.8,0.5,2.7,0.8c-0.4,1.2-0.3,2.4,0.1,3.7c1.5,5,5.8,8,10.5,8.1
		c4.8,0.1,9.5-0.3,14.2-1.2c0.6,0.4,1.1,0.7,1.7,1.1l-0.2,0.8l0.7,0.3c0.5,1.6,1,3.3,1.5,4.9c-0.9,2.2-0.7,2.5,1.5,3.6
		c1.2,5.7,1,11.3-0.1,17c-2.1,1.5-2.1,1.5-1.2,3.9c-0.3,1.4-0.6,2.9-0.8,4.3c-0.9,0.1-1.8,0.2-2.6,0.3c-0.2-0.6-0.4-1.2-0.7-1.7
		c-0.3-0.5-0.8-0.9-1.3-1.1c-0.6-0.2-1,0.2-1.1,1c-0.3,1.9-1.2,3.5-2.6,4.8c-1.2,1.1-1.6,2.6-1.5,4.2c-0.3,0.3-0.4,0.6-0.3,1
		c-5.8,1.4-11.5,2-17.4,0.7c-0.9-0.2-1.8-0.2-2.8-0.2c-0.5-0.8-0.7-1.9-1.4-2.4c-3-2-4.7-4.9-6.4-8c-1.7-3.2-2.6-6.3-2.6-9.9
		C139.8,125.6,140.2,122.7,139.2,120z"/>
	<path id="XMLID_1131_" fill="#CBA11A" d="M92.3,93.7c0.6-0.1,1.1-0.3,1.5-0.6c2.5,0.3,4,1.5,4.3,4.1c0.2,1.3,1.2,2.1,2.4,2.6
		c0.2,1.6,0.5,3.1,0.6,4.7c0.1,3.5,1,6.8,2.6,10c1,2.1-0.7,5.3-3.1,5.9c-0.9,0.2-1.8,0.4-2.8,0.5c-2.5,0.3-5,0.6-7.5,0.9
		c-0.9,0.1-1.9,0.4-2.7,0.9c-3.5,2.1-7.3,3.7-10.4,6.4c-0.6,0.5-0.5,1.7-0.8,2.6l0.1-0.1c-2.1-0.6-3.6,0.5-4.9,2
		c-1.2,0.9-2.4,2-4,1.9c-1.3-4.2-2.3-8.4-2-12.9c0.2-2.1-0.6-4.3-0.9-6.6c0.8-1.9,1.9-3.9,2.4-6c0.9-3.7,2.6-7,5-10
		c0.6-0.7,0.8-1.7,1.2-2.5c1.1-0.2,2.2-0.3,3.2-0.5c2.5,0.6,5.1,0.5,7.7,0.3C87.9,97.9,90.6,97,92.3,93.7z M98.6,113.5
		c-0.5-4.4-1.6-8.6-3.1-12.7c-0.5-1.3-2.9-1.9-4.1-1.1c-0.3,0.2-0.6,0.4-0.7,0.6c-1.4,2.1-3.5,2.5-5.8,2.5c-2.5,0-5.1,0.1-7.6,0.3
		c-0.6,0-1.3,0.4-1.7,0.8c-1,1.2-1.9,2.6-2.9,3.8c-1.3,1.5-1.9,3.3-1.9,5.3c0.1,4.4-0.3,8.9,0.3,13.6c1.6-0.8,2.9-1.8,4.3-2.2
		c1.9-0.5,3.4-1.6,5-2.7c3.5-2.2,7.1-4.1,11.1-5.4C93.8,115.6,96.3,115,98.6,113.5z"/>
	<path id="XMLID_1128_" fill="#B39119" d="M67.7,135.5c1.7,0.1,2.8-1,4-1.9c0.2,0.3,0.3,0.5,0.5,0.8c0.2,0.2,0.4,0.5,0.6,0.6
		c1.2,0.8,2.5,0.7,3.4-0.1c1.1-1,0.9-2.1,0.3-3.3l-0.1,0.1c0.8,0.5,1.6,1.1,2.6,0.9c2.5-0.4,5-0.8,7.1-2.4c1.6-1.2,3.4-1.7,5.3-1.7
		c4.7-0.1,9.4-0.9,14,0.7c0.2,0.1,0.4,0.5,0.4,0.8c0,0.3,0,0.7-0.2,0.8c-2.3,1.7-4.9,3-7.5,3.8c-3.4,1.1-6.3,3-9,5
		c-4.3,3.2-6.3,7.7-5,13.3l0.1-0.1c-0.3,0-0.6-0.1-0.9-0.1c-1.7,0.2-2.3,0.7-2.5,2.2c-0.2,1.2-0.2,2.5-0.3,3.7c0,0.6,0,1.3,0.2,1.9
		c0.2,0.5,0.6,1.2,1.1,1.4c0.5,0.1,1.3-0.1,1.7-0.5c1.8-2.3,3-4.8,3.1-7.7l0.3-0.5c2.1-0.5,3.2-1.8,3.3-4l0.1-0.1
		c1.2-0.1,2.4-0.1,3.6-0.2c0.3,0.5,0.7,0.9,1,1.4c-0.2,1-0.2,2.1,0.3,3c-0.5,1.8-1.1,3.5-1.4,5.3c-0.3,1.5-0.8,2.9-2,4
		c-0.7,0-1,0.8-0.7,1.8c-0.1,1.8-0.2,3.5-0.3,5.3c-0.5,0.6-0.9,1.2-1.4,1.9c-1.7-0.6-3.4-1.7-5.2-1.8c-3-0.3-4.3-2.3-5.3-4.6
		c-1.2-2.9-2-5.8-1.9-9c0-1.3,0.4-2.5,1-3.6c1.9-3.4,2.9-7.1,4-10.7c0.2-0.7-0.6-2-1.4-2.2c-3.1-0.7-5.7-0.1-7.5,2.8
		c-0.5,0.8-1.2,1.5-1.8,2.2c-2.2,0-4.3-0.1-6.5-0.1c-0.7,0-1.6-1.2-1.4-2.1c0.2-0.9,0.3-1.9,0.8-2.6
		C65.3,138.3,66.6,136.9,67.7,135.5z M85.6,136.6l-0.4-0.3l-0.1,0.5L85.6,136.6z"/>
	<path id="XMLID_1127_" fill="#877D78" d="M132.4,62.3c-7.3,0.2-14.7,0.5-22,0.6c-2.6,0-5,0.4-7.2,2c-1.6,1.2-3.5,1.4-5.4,1.6
		c-0.1-0.6-0.4-1.2-0.4-1.9c-0.1-2-0.6-3.7-2-5.2c-2.2-2.1-1.7-4.6-0.7-7.1c0.7-1.9,3.4-3.5,5.5-2.7c1.5,0.6,2.9,1.4,4.5,1
		c0.3,2.2,0.7,4.3,1.1,6.5c0.2,1,1.8,1.7,3.1,1.5c1.1-0.2,1.9-0.8,1.9-1.7c0.1-0.9,0.2-2-0.1-2.7c-1.2-2.3-2.8-4.2-5.3-5.1
		c0-0.3,0-0.6,0-0.9c0.2-0.9,0.3-1.8,1.3-2.2c1.2-0.5,2.3-0.5,3.4,0.3c0.5,0.4,0.8,0.9,1.2,1.4c0.9,1.5,2.4,1.6,3.9,1.7
		c0,0.9-0.1,1.8-0.1,2.8c0,0.9-0.1,1.8-0.1,2.8c0,0.6,0.2,1.2,0.3,1.8c0.2,0.9,1.5,1.7,2.1,1.3c0.4-0.4,1-0.8,1.2-1.3
		c0.9-2.4,0-4.9,0.3-7.4c1.2-0.1,2.4-0.3,3.5-0.4c-0.1,1.5-0.3,3.1-0.4,4.6c-0.1,0.9,1,2.6,2,2.9c0.3,0.1,0.6,0.3,0.9,0.3
		c3.1,0,6.2,0,9.2-0.1c0.5,0,1.7-1.2,1.8-1.9c0.2-1.2,0.3-2.4,0.5-3.7c1.2-0.6,2.4-1.2,3.6-1.9c0.1,1.8-0.4,3.4-1.5,4.9l0,0
		c0.6,1.1,1.2,2.2,1.8,3.2c0.4,0.7,1.6,0.6,2.3-0.1c0.9-0.9,1.4-2,1.5-3.3c0-0.9-0.1-1.8-0.1-2.8c1.8-0.1,3.7-0.1,5.5-0.2
		c0,2.8,0,5.6,0,8.4c0,0.3-0.1,0.6-0.2,0.9c-0.1,1-1.4,2.2-2.6,2.2c-4,0.2-8,0.2-11.9-1.2C133.9,60.9,133,61.5,132.4,62.3z"/>
	<path id="XMLID_1126_" fill="#434925" d="M170.5,148.3c-0.1-0.4,0-0.7,0.3-1c1.4-0.1,2.8-0.1,4.2-0.2c0.1,1.4,0.2,2.7,0.2,4.1
		c-0.5,1.2-0.9,2.3-1.4,3.5c-0.6,0.1-1.3,0.1-1.8,0.4c-5,3.5-10.6,5.3-16.7,5.6c-0.3,0-0.6,0.2-0.8,0.5c-0.1,0.2-0.1,0.6,0,0.8
		c1.9,3.2,4.7,4.8,8.6,4.4c1.6-0.2,3.1-0.5,4.5-1.2c0.8-0.4,1.8-0.5,2.7-0.6c0.8-0.1,1.2,0.4,1.1,1.1c-0.1,0.9-0.2,1.8-0.3,2.8
		c-1.6,2.1-4.2,2.6-6.3,4c-3.7,2.4-7.8,2.2-11.9,0.7c-2.1-0.8-4-1.9-6-2.8c-0.8-1-1.5-2-1.5-3.3c1.3-0.1,2.7-0.2,4-0.3
		c0.4,0.4,0.8,1,1.2,1.3c0.6,0.4,1.2,0.3,1.6-0.2c0.4-0.5,0.1-1-0.6-1.2c-0.6-0.2-1.2-0.2-1.8-0.3c-0.4-1.2-0.6-2.4-1.2-3.5
		c-0.6-1.1-1.5-2-2.1-3c-1.1-1.7-0.2-4,1.7-4.4c1.2-0.2,2.5-0.2,3.6-0.6c0.8-0.3,1.4-1.1,2.1-1.7c3,0.1,6,0.2,9.1,0.2
		c0.8,1.6,2,2,3.7,1.6c1.3-0.3,1.9-1.3,2.1-2.5C169.7,151,170.7,149.9,170.5,148.3z"/>
	<path id="XMLID_1123_" fill="#453712" d="M177.5,103.8c-4.7,1-9.4,1.3-14.2,1.2c-4.7-0.1-9-3.1-10.5-8.1c-0.4-1.3-0.5-2.4-0.1-3.7
		l0.6,0.1l0.6-0.1c0.9,0.1,1.9,0.2,2.8,0.2c1.2,0,1.8-0.7,1.5-1.8c-0.4-1.5-1-3,0.9-4c1.2,0.6,1.8,1.6,2,2.9
		c0.3,1.6,1.1,2.9,2.5,3.7c1.3,0.8,2.6,1.6,4,2.2c0.8,0.3,1.8,0.3,2.7,0.1c1.8-0.4,3.5-1.1,4.5-2.8c1.1-0.3,2.2-0.5,3.3-0.8
		c1.7,0.4,2.6-0.6,3.2-2c0.2-0.6,0-1.1-0.7-1.4c0.3-1,0.6-2.1,0.9-3.1c2.5,0.5,3,0.9,3,2.6c0,2.1-0.1,4.3-0.1,6.4
		c-1.7,2.1-3.4,4.2-5.3,6.1C178.3,102.1,178,103,177.5,103.8z M166.2,100.8c-0.1-0.3,0-0.7-0.2-0.8c-1.6-1.5-3.4-2.5-5.7-2.8
		c-0.7-0.1-1.2,0.1-1.7,0.6c-0.4,0.6,0,1.9,0.8,2.3c1.7,0.8,3.3,1.5,5,2.2C165.3,102.7,166.4,101.7,166.2,100.8z"/>
	<path id="XMLID_1122_" fill="#695550" d="M97.6,68.1c0.7,1.9,0.6,3.8-0.1,5.6c-1.8,4.7-4,9.3-6.9,13.4c-0.7,1-1.7,1.9-2.7,2.7
		c-0.7,0.6-1.6,1.1-2.5,1.2c-2.2,0.2-4.4,0.3-6.6,0.3c-2.6,0-4.7-0.8-6.4-3.2c-1.6-2.3-3-4.6-4.3-7.5c-0.9,1.7-1.4,2.8-2,4
		c-1.3-0.4-2.2-1.3-2.2-2.7c-0.1-1.6-0.2-3.2,0.2-4.7c0.9-3.3,2.1-6.6,3.3-9.9c0.6-1.6,1.9-2.5,3.4-3c-0.1,1.1,0.3,1.8,1.3,2.3
		c-0.2,1.2-0.4,2.5-0.7,3.7c-0.9,3.8-0.6,7.5,0.9,11.2c0.9,2.1,2.3,3.8,4.1,5.2c2.5,2,6.3,2.1,8.8,0.1c4-3.2,7.1-7.2,8.6-12.2
		c0.4-1.2,0.6-2.5,1.1-3.6C95.5,69.7,96.4,68.8,97.6,68.1z"/>
	<path id="XMLID_1119_" fill="#6C5F56" d="M132.4,62.3c0.6-0.7,1.5-1.4,2.4-1.1c3.9,1.4,7.9,1.4,11.9,1.2c1.2-0.1,2.5-1.2,2.6-2.2
		c0-0.3,0.2-0.6,0.2-0.9c0-2.8,0-5.6,0-8.4c0-0.5,0.1-1.1,0.3-1.6c1.2,0,2.4,0,3.6,0.1c0.1,0.5,0.3,1,0.5,1.5c0.1,1.9,1.3,2.5,3,2.6
		l0.3,0.2c0.5,1,1.2,1.4,2.3,1.1c1.1,0.4,2.4,0.6,3,1.9c0.9,1.7,1.3,3.7,0.3,5.3c-1.2,1.9-1.8,3.8-1.9,6c0,0.9-0.4,1.8-0.6,2.7
		c-0.7-0.5-1.8-0.8-2.2-1.5c-1.1-1.8-2.5-2.6-4.5-2.4c-0.9-0.1-1.9-0.4-2.8-0.4c-3,0-5.4-2-8.2-2.3c-2.8-0.4-5.7-0.4-8.5-0.7
		C133.4,63.2,132.9,62.6,132.4,62.3z M155.2,64c0.9,0.2,1.9-0.8,1.6-1.7c-0.3-0.8-0.8-1.6-1.3-2.3c-0.1-0.2-0.6-0.3-0.9-0.2
		c-0.7,0.1-1.1,1.2-1,2.2C153.6,63.2,154.2,63.9,155.2,64z"/>
	<path id="XMLID_1118_" fill="#E1AC1A" d="M174.7,93.6c-1,1.8-2.7,2.4-4.5,2.8c-0.8,0.2-1.9,0.2-2.7-0.1c-1.4-0.6-2.7-1.4-4-2.2
		c-1.4-0.8-2.2-2.1-2.5-3.7c-0.2-1.3-0.7-2.3-2-2.9c-0.2-3.2-0.3-6.4-0.5-9.6c0.7-0.6,1.3-1.1,2-1.7c2.3,0.3,4.1,1.3,5.4,3.2
		C168.8,84.2,171.8,88.9,174.7,93.6z"/>
	<path id="XMLID_1117_" fill="#6C5F56" d="M119,179.2c1.3,0.9,2.8,1.5,3.2,3.2c0.8,3,3.4,4.4,5.2,6.4c2.4,0.8,4.3,2.5,6.3,3.9
		c0.5,0.3,1.2,0.2,1.8,0.3c1,0.1,1.7-0.8,1.4-1.7c-0.4-1.2-0.8-2.3-1.2-3.5c1.4,0.5,2.9,1,4.3,1.4c3.6,1.2,6.5,3.7,9.7,5.7
		c0.2,0.1,0.3,0.6,0.2,0.9c0,0.2-0.2,0.5-0.4,0.6c-3.6,1.3-7.4,1.2-11.2,1c-0.6,0-1.3-0.1-1.8-0.4c-3.6-1.9-7.7-2.8-11-5.3
		c-1.5-1.2-2.8-2.5-4.1-3.8c-0.7-0.7-1.7-0.7-2.6-0.5c0,0,0.1,0.1,0.1,0.1c-0.1-1.5-0.2-2.9-0.4-4.4
		C118.7,181.8,118.9,180.5,119,179.2z"/>
	<path id="XMLID_1114_" fill="#6C5F56" d="M107.1,179.9c0.5,1.2,0.9,2.4,1.5,3.5c1,1.9,2.4,2.8,4.6,2.4c0.6-0.1,1.2-0.2,1.9-0.3
		c1.1,1.1,2,2.6,3.9,2c0,0-0.1-0.1-0.1-0.1c-0.2,0.6-0.6,1.2-0.6,1.8c0,3.5,0.8,6.9,2.4,10c1.2,2.2,2.1,4.6,3,6.9
		c0.1,0.2-0.1,0.6-0.3,0.8c-0.2,0.2-0.5,0.3-0.7,0.2c-0.9-0.3-1.9-0.5-2.6-1c-7.1-5.3-12.7-14.3-14.6-23.6c-0.1-0.3,0-0.6,0.1-0.9
		C105.7,180.6,106.3,180.1,107.1,179.9z M113.8,192.7l0.4-0.7l-0.6-0.1L113.8,192.7z"/>
	<path id="XMLID_1113_" fill="#675B3A" d="M107.1,179.9c-0.8,0.3-1.4,0.7-1.5,1.6c-0.9-0.9-1.8-1.8-2.8-2.6c-1.9-1.4-4.8-0.1-5,2.2
		c-0.3,3.4-0.6,6.9-0.9,10.4c0,0.2-0.4,0.4-0.6,0.5c-0.3,0.1-0.8,0.2-0.8,0.1c-1.3-2.5-2.3-5.1-4-7.4c-0.7-0.9-0.8-2.4-1-3.6
		c-0.5-3.1-0.8-6.2-1.2-9.4c0.5-0.6,0.9-1.2,1.4-1.9c2.2,0.9,4.5,0.7,6.8,0.5c0.2,1.5,0.4,3.1,0.6,4.6c0.1,0.6,1.4,1.6,2,1.8
		c1.9,0.5,3.7-0.3,5.5-0.7C107.1,176.8,107.1,178.3,107.1,179.9z"/>
	<path id="XMLID_1112_" fill="#B6A791" d="M171.1,168.3c0.1-0.9,0.1-1.8,0.3-2.8c0.1-0.8-0.2-1.2-1.1-1.1c-0.9,0.1-1.9,0.2-2.7,0.6
		c-1.4,0.7-2.9,1.1-4.5,1.2c-3.8,0.4-6.6-1.2-8.6-4.4c-0.1-0.2-0.1-0.6,0-0.8c0.2-0.2,0.5-0.4,0.8-0.5c6.1-0.3,11.7-2.1,16.7-5.6
		c0.5-0.3,1.2-0.3,1.8-0.4c0.6,0.3,1.2,0.5,1.7,0.8c3.1,2.2,3.4,4.2,1.3,7.2c-1.1,1.5-2,3.2-3.2,4.6
		C173.1,167.9,172,168,171.1,168.3z"/>
	<path id="XMLID_1111_" fill="#A2A095" d="M140.1,189.3c-1.4-0.5-2.9-1-4.3-1.4c-1.3-0.6-2.8-0.8-3.5-2.3c0.2-2.9-1.1-4.8-3.8-5.9
		l-0.3-0.7c0.6-2.3,2.1-3.5,4.5-3.4c1.7,0.9,2.9,2.3,3.6,4.1c0,1.9,0.6,3.3,2.7,3.7c0.8,0.2,1.7,0.4,2.5,0.5
		c0.8,0.5,1.5,1.2,2.3,1.4c2.7,0.7,5.4,0.6,8.1-0.1c0.2-0.1,0.5-1.2,0.3-1.5c-0.8-1.3-1.7-2.5-2.6-3.7c2.8-0.3,5.6-0.1,8.3,0.6
		c1.3,0.3,2.1,1.3,2.7,2.4c0.7,1.3-0.2,3.6-1.5,3.8c-2.2,0.3-4.3,0.6-6.5,0.7c-3.4,0.2-6.9,0.1-10.3,0.2
		C141.2,187.8,140.6,188.5,140.1,189.3z"/>
	<path id="XMLID_1110_" fill="#877D78" d="M184.3,95.4c0-2.1,0.1-4.3,0.1-6.4c0-1.7-0.4-2.1-3-2.6c-0.2-0.6-0.6-1.2-0.6-1.8
		c-0.1-6-0.1-12.1,0-18.1c0-0.6,0.4-1.2,0.7-1.7c0.1-0.3,0.5-0.4,0.7-0.6c0.6-0.5,1.1-0.4,1.5,0.4c0.9,2,1.4,4.2,2.5,6.2
		c1.4,2.6,2.1,5.3,2.1,8.2c0,3.8-0.1,7.6-0.3,11.4C187.9,92.7,186.5,94.4,184.3,95.4z"/>
	<path id="XMLID_1109_" fill="#4E4541" d="M136.3,51c-0.2,1.2-0.3,2.4-0.5,3.7c-0.1,0.7-1.3,1.9-1.8,1.9c-3.1,0-6.2,0.1-9.2,0.1
		c-0.3,0-0.6-0.2-0.9-0.3c-0.9-0.3-2.1-1.9-2-2.9c0.2-1.5,0.3-3.1,0.4-4.6c0,0,0.1-0.1,0.1-0.1c1.2,0,2-0.5,2-1.8
		c1-1.5,2.2-2.3,4-1.7c0.1,0.6,0.2,1.2,0.4,1.8c0.3,1,1,1.7,1.9,1.8c1.5,0.3,3.1,0.4,4.7,0.5C135.9,49.9,136.2,50.4,136.3,51z"/>
	<path id="XMLID_1108_" fill="#F1B708" d="M71.3,144.6c0.6-0.7,1.3-1.4,1.8-2.2c1.8-2.9,4.4-3.5,7.5-2.8c0.8,0.2,1.6,1.5,1.4,2.2
		c-1.1,3.7-2.1,7.4-4,10.7c-0.6,1.1-1,2.3-1,3.6c-1.7-0.1-2.9-0.8-3.3-2.6C72.9,150.6,72.1,147.6,71.3,144.6z"/>
	<path id="XMLID_1107_" fill="#3C3734" d="M188.4,45.2c1.6-0.2,3.2-0.1,4.6,0.7c3,1.6,5.9,1.9,9,0.2c2-1.1,4.2-1.2,6.5-1.1
		c-2.5,2.9-6,4.5-9.3,6.4c-0.7,0.4-2,0.3-2.7-0.1c-2.2-1.2-4.4-2.6-6.4-4C189.4,46.9,189,46,188.4,45.2z"/>
	<path id="XMLID_1106_" fill="#B39119" d="M145.4,166.8c0,1.3,0.7,2.3,1.5,3.3c-0.2,0.2-0.3,0.6-0.6,0.7c-2.1,0.9-3.1,2.6-3.4,4.8
		c-0.7-0.1-1.5-0.2-2.2-0.3c0,0-0.3-0.1-0.3-0.1c0.1-0.4,0-0.8-0.4-1.1c-0.5-3.2-0.9-6.3-0.1-9.5l0.9,0l0.9-0.2
		c0.3,0.4,0.8,0.7,1.3,0.9c0.5,0.8,1.2,1.3,2.2,1.3L145.4,166.8z"/>
	<path id="XMLID_1105_" fill="#4E4541" d="M140.8,175.3c0.7,0.1,1.5,0.2,2.2,0.3c0.2,0.2,0.4,0.4,0.6,0.7c1.3,2.3,3.3,3.4,5.9,3.7
		c0.9,1.2,1.9,2.4,2.6,3.7c0.2,0.3,0,1.4-0.3,1.5c-2.7,0.8-5.4,0.8-8.1,0.1c-0.8-0.2-1.6-0.9-2.3-1.4c0.6-0.1,1.1-0.2,1.7-0.3
		c0.5-0.2,1.1-0.4,1.3-0.8c0.3-0.5-0.2-1-0.8-1.3c-0.5-0.3-0.9-0.7-1.3-1.1C141.9,178.7,140.5,177.3,140.8,175.3z"/>
	<path id="XMLID_1104_" fill="#4E4541" d="M118.8,49.3c-0.3,2.4,0.6,5-0.3,7.4c-0.2,0.5-0.7,0.9-1.2,1.3c-0.5,0.4-1.9-0.4-2.1-1.3
		c-0.1-0.6-0.3-1.2-0.3-1.8c0-0.9,0-1.8,0.1-2.8c0-0.9,0.1-1.8,0.1-2.8c0.3-0.6,0.5-1.2,0.8-1.8c0.6-1,1.8-1.1,2.3,0
		C118.5,48,118.6,48.7,118.8,49.3z"/>
	<path id="XMLID_1103_" fill="#453712" d="M160.5,76.3c-0.7,0.6-1.3,1.1-2,1.7c-2-1.3-2.9-3.1-2.9-5.4c0-2.3-1.1-4.1-2.2-5.9
		c2-0.2,3.4,0.6,4.5,2.4c0.4,0.7,1.4,1,2.2,1.5C160.2,72.5,160.4,74.4,160.5,76.3z"/>
	<path id="XMLID_1102_" fill="#3C3734" d="M105.3,49c2.5,0.9,4.2,2.8,5.3,5.1c0.4,0.8,0.2,1.8,0.1,2.7c-0.1,0.9-0.9,1.5-1.9,1.7
		c-1.3,0.2-3-0.5-3.1-1.5c-0.4-2.2-0.7-4.3-1.1-6.5C104.8,50,105,49.5,105.3,49z"/>
	<path id="XMLID_1101_" fill="#B6A791" d="M175.3,151.2c-0.1-1.4-0.2-2.7-0.2-4.1c0.5-1,1.2-2,1.6-3c0.5-1.3,0.9-2.7,1.4-4.1
		c0.9-0.1,1.8-0.2,2.6-0.3c0.9,0.6,1.2,1.5,0.8,2.3c-1.5,2.6-2.9,5.2-3.9,8C177.3,150.6,176.1,150.8,175.3,151.2z"/>
	<path id="XMLID_1100_" fill="#4E4541" d="M76.7,96.9c-1.1,0.2-2.2,0.3-3.2,0.5c-1.5-2-3.5-3.2-5.5-4.6c-1.1-0.8-1.2-2-0.9-3.2
		c0.6,0.1,1.4,0,1.8,0.3c2.1,1.8,4.2,3.4,6.8,4.6C76.2,94.7,76.4,96,76.7,96.9z"/>
	<path id="XMLID_1099_" fill="#423C3A" d="M143.9,51c0,0.9,0.1,1.8,0.1,2.8c-0.1,1.3-0.6,2.3-1.5,3.3c-0.7,0.7-1.9,0.8-2.3,0.1
		c-0.6-1.1-1.2-2.1-1.8-3.2c0.2,0,0.4,0.1,0.6,0.1c-0.2,0-0.4-0.1-0.7-0.1c1.1-1.5,1.6-3.1,1.5-4.9l0,0c0.7,0,1.5-0.1,2.2-0.1
		C142.8,49.7,143.3,50.4,143.9,51z"/>
	<path id="XMLID_1098_" fill="#877D78" d="M135.5,49.6c-1.6-0.2-3.1-0.3-4.7-0.5c-1-0.2-1.7-0.9-1.9-1.8c-0.2-0.6-0.2-1.2-0.4-1.8
		C131.6,45.5,134.1,46.7,135.5,49.6z"/>
	<path id="XMLID_1097_" fill="#B6A791" d="M182.8,114.5c-2.2-1-2.3-1.4-1.5-3.6C183.9,111.9,184,111.9,182.8,114.5z"/>
	<path id="XMLID_1096_" fill="#B6A791" d="M153.3,49.3c-1.2,0-2.4,0-3.6-0.1c0.2-0.9,0.3-1.8,0.6-2.7c0.4-0.9,2-0.9,2.4,0
		C153.1,47.5,153.1,48.4,153.3,49.3z"/>
	<path id="XMLID_1095_" fill="#B6A791" d="M181.5,135.4c-0.9-2.3-0.9-2.3,1.2-3.9C184,134.1,184,134.1,181.5,135.4z"/>
	<path id="XMLID_1094_" fill="#877D78" d="M72.1,66.6c-0.9-0.5-1.3-1.3-1.3-2.3c0-0.6,0-1.1,0.1-1.7c0.1-0.6,0.6-0.9,1.3-0.8
		c0.2,0,0.3,0.4,0.4,0.6C73.1,63.9,72.9,65.2,72.1,66.6z"/>
	<path id="XMLID_1093_" fill="#877D78" d="M180.5,89.5c0.6,0.3,0.9,0.8,0.7,1.4c-0.6,1.4-1.5,2.4-3.2,2
		C178.1,91.2,178.9,90,180.5,89.5z"/>
	<path id="XMLID_1092_" fill="#A2A095" d="M156.8,53.4c-1.7-0.1-2.9-0.6-3-2.6c0.6,0.2,1.2,0.3,1.7,0.5
		C156.3,51.8,156.8,52.4,156.8,53.4z"/>
	<path id="XMLID_1091_" fill="#877D78" d="M142.2,49c-0.7,0-1.5,0.1-2.2,0.1c0-0.6,0-1.2,0.1-1.8c0.2-0.7,0.7-1,1.3-0.7
		c0.3,0.1,0.5,0.4,0.6,0.6C142.1,47.7,142.1,48.4,142.2,49z"/>
	<path id="XMLID_1090_" fill="#877D78" d="M124.5,47c0,1.3-0.7,1.8-2,1.8C122.7,47.8,123.4,47.2,124.5,47z"/>
	<path id="XMLID_1089_" fill="#B6A791" d="M179.8,106l-0.7-0.3l0.2-0.8C179.7,105.1,179.9,105.5,179.8,106z"/>
	<path id="XMLID_1088_" fill="#A2A095" d="M159.4,54.7c-1.1,0.2-1.8-0.1-2.3-1.1C158.2,53.2,158.9,53.7,159.4,54.7z"/>
	<path id="XMLID_1087_" fill="#553B05" d="M153.9,93.2l-0.6,0.1l-0.6-0.1c-0.9-0.3-1.8-0.6-2.7-0.8c-1-0.3-2.1,0.1-2.4,0.8
		c-1.8,3.4-3.6,6.7-4.2,10.6c-0.3,2.2-1,4.4-1.7,6.5c-0.3,0.8-1.1,1.5-1.7,2.2c-1.2-0.7-1.8-1.9-1.5-3.2c0.5-2.2,1.3-4.3,1.9-6.4
		c0.5-1.5,1.2-3,1.4-4.5c0.3-2.6,1.2-4.9,2.8-7c1-1.2,1.1-3,2-4.3c0.4-0.7,1.5-1.2,2.4-1.3c2.3-0.4,4,0.7,4.3,2.7
		C153.5,90,153.7,91.6,153.9,93.2z"/>
	<path id="XMLID_1086_" fill="#553B05" d="M139.2,120c1,2.8,0.6,5.6,0.6,8.4c0,3.6,0.9,6.7,2.6,9.9c1.7,3.1,3.4,6,6.4,8
		c0.7,0.5,1,1.6,1.4,2.4c-0.9,0.1-1.7,0.2-2.6,0.4c-2.4-0.1-4.2-1.3-5.4-3.3c-2.4-4.1-4.1-8.5-5.5-13c-0.9-3.1-0.7-6.3-0.6-9.4
		C136.4,121.5,137.6,120.5,139.2,120z"/>
	<path id="XMLID_1085_" fill="#CBA11A" d="M105.5,175.9c-1.8,0.3-3.6,1.2-5.5,0.7c-0.6-0.2-1.9-1.1-2-1.8c-0.2-1.5-0.4-3.1-0.6-4.6
		c0.2-1.2,0.4-2.5,0.6-3.7c2.5-1.3,3.8-3.3,3.3-6.2l0.1-0.1c1.6-0.3,2.7-1.4,4-2.4c0.8-0.6,1.9-0.1,2,0.9c0.1,1.2,0.1,2.5,0.2,3.7
		l0,0c-1.3,0.8-1.3,0.8-0.9,2.2C106.2,168.4,105.9,172.2,105.5,175.9z"/>
	<path id="XMLID_1084_" fill="#8D7106" d="M132.7,175.6c-2.4-0.1-3.9,1.1-4.5,3.4c-3.1-2.9-3.6-6.3-1.7-10c0.7-1.4,1.4-2.7,2.9-3.5
		c0.7-0.4,2.1,0.1,2.3,0.9c0.1,0.6,0.4,1.2,0.4,1.8C132.4,170.7,132.5,173.1,132.7,175.6z"/>
	<path id="XMLID_1083_" fill="#8D7106" d="M119,179.2c-0.1,1.3-0.2,2.6-0.4,3.9c-1.2-0.1-2.4-0.3-3.6-0.4c-0.7-6-0.5-12,0.5-17.9
		c0.1-0.5,0.7-0.9,1.2-1.2c0.7-0.4,1.9,0.5,2,1.5c0.1,0.9,0.2,1.9,0.2,2.8C119,171.6,119,175.4,119,179.2z"/>
	<path id="XMLID_1082_" fill="#5C4908" d="M147.8,149.1c0.9-0.1,1.7-0.2,2.6-0.4c0.9,0.1,1.9,0.1,2.8,0.2c5.9,1.3,11.7,0.8,17.4-0.7
		c0.2,1.6-0.8,2.7-1.6,3.9c-1.9,0.3-3.9,0.6-5.8,0.9c-3-0.1-6-0.2-9.1-0.2c-0.9-0.9-1.9-1.6-3.1-1.9
		C149.6,150.7,148.6,150.1,147.8,149.1z"/>
	<path id="XMLID_1081_" fill="#5C4908" d="M107.4,162.5c-0.1-1.2-0.1-2.5-0.2-3.7c-0.1-1-1.1-1.5-2-0.9c-1.2,0.9-2.3,2.1-4,2.4
		c-0.2-3.1,1.1-5.4,3.7-7.1c1.3-0.8,2.6-1.7,4-2.5c0.8-0.5,2,0.1,2.2,0.9C111.8,155.8,110.8,159.5,107.4,162.5z"/>
	<path id="XMLID_1080_" fill="#8D7106" d="M94.2,145.3c0.2-1.7,0.9-3,2.7-3.4c2.8-0.6,5.5-1,8.3-0.3c0.7,0.2,1.1,0.7,1.1,1.3
		c0,0.6,0,1.4-0.3,1.7c-2.6,2.1-5,4.7-8.4,5.7c0.3-2.3,1.6-3.9,3.5-5.1c0.4-0.3,0.6-0.8,0.9-1.3c0.2-0.4-1.6-0.7-2.6-0.3
		C97.6,144.2,96.1,145.4,94.2,145.3z"/>
	<path id="XMLID_1079_" fill="#5C4908" d="M100.6,99.9c-1.2-0.5-2.3-1.3-2.4-2.6c-0.3-2.6-1.9-3.8-4.3-4.1c1-3.1,1.8-3.7,4.4-3.3
		c1.8,0.2,2.9,1.3,3.1,2.8C101.5,95.1,101.7,97.5,100.6,99.9z"/>
	<path id="XMLID_1078_" fill="#B39119" d="M94.2,145.3c1.9,0.1,3.5-1.1,5.2-1.7c1-0.3,2.8-0.1,2.6,0.3c-0.2,0.5-0.5,1-0.9,1.3
		c-1.9,1.2-3.2,2.8-3.5,5.1c-0.2,1.2-0.9,2.1-2,2.8c0.2-1.1,0.4-2.1-0.8-2.8c-0.3-0.5-0.7-0.9-1-1.4c0.1-1.2,0.2-2.3,0.2-3.5
		L94.2,145.3z"/>
	<path id="XMLID_1077_" fill="#8D7106" d="M86.6,153.6c-0.1,3-1.3,5.5-3.1,7.7c-0.3,0.4-1.2,0.6-1.7,0.5c-0.5-0.2-0.9-0.8-1.1-1.4
		c-0.2-0.6-0.1-1.2-0.2-1.9c0.5-0.3,1.2-0.5,1.5-1c0.9-1.5,2-3,2.3-4.9l-0.1,0.1C85,153.1,85.8,153.4,86.6,153.6z"/>
	<path id="XMLID_1076_" fill="#423C3A" d="M142.4,180.4c0.4,0.4,0.8,0.8,1.3,1.1c0.6,0.3,1,0.8,0.8,1.3c-0.2,0.4-0.8,0.6-1.3,0.8
		c-0.5,0.2-1.1,0.2-1.7,0.3c-0.8-0.2-1.7-0.4-2.5-0.5c-2.1-0.4-2.7-1.8-2.7-3.7C138.3,179.9,140.4,180.2,142.4,180.4z"/>
	<path id="XMLID_1075_" fill="#5C4908" d="M92.3,93.7c-1.7,3.3-4.4,4.2-7.9,3.5C86.1,94,88.8,92.9,92.3,93.7z"/>
	<path id="XMLID_1074_" fill="#695550" d="M128.5,179.7c2.6,1.1,3.9,3,3.8,5.9C128.8,184.3,128.7,184.2,128.5,179.7z"/>
	<path id="XMLID_1073_" fill="#5C4908" d="M101.2,160.3c0.6,2.9-0.8,4.9-3.3,6.2c-0.1-0.6-0.2-1.2-0.2-1.8
		C97.7,162.3,98.8,160.8,101.2,160.3z"/>
	<path id="XMLID_1072_" fill="#8D7106" d="M90.2,149.2c-0.1,2.2-1.2,3.5-3.3,4C87,149.9,87,149.9,90.2,149.2z"/>
	<path id="XMLID_1071_" fill="#E9E0D6" d="M115,182.6c1.2,0.1,2.4,0.3,3.6,0.4c0.1,1.5,0.2,2.9,0.4,4.4c-1.9,0.6-2.9-0.9-3.9-2
		C115,184.5,115,183.6,115,182.6z"/>
	<path id="XMLID_1070_" fill="#8D7106" d="M94.1,145.4c-0.1,1.2-0.2,2.3-0.2,3.5c-1.2,0.1-2.4,0.1-3.6,0.2
		C90.5,146.8,91.6,145.5,94.1,145.4z"/>
	<path id="XMLID_1069_" fill="#553B05" d="M94.8,150.3c1.2,0.7,1,1.7,0.8,2.8l-0.5,0.2C94.6,152.4,94.6,151.4,94.8,150.3z"/>
	<path id="XMLID_1068_" fill="#453712" d="M140.2,174c0.3,0.3,0.5,0.7,0.4,1.1c-0.5,0.4-1.2,0.4-1.4-0.2
		C139,174.4,139.6,174,140.2,174z"/>
	<path id="XMLID_1067_" fill="#453712" d="M141.9,164.4l-0.9,0.2l-0.9,0c-0.1-0.7,0.1-1.3,0.8-1.4
		C141.6,163.1,141.9,163.7,141.9,164.4z"/>
	<path id="XMLID_1066_" fill="#675B3A" d="M91,164.4c-0.4-1,0-1.8,0.7-1.8C91.8,163.5,91.5,164.4,91,164.4z"/>
	<path id="XMLID_1065_" fill="#5C4908" d="M106.5,164.6c-0.4-1.3-0.4-1.3,0.9-2.2C107.5,163.6,107,164.6,106.5,164.6z"/>
	<path id="XMLID_1064_" fill="#453712" d="M145.4,166.6c-1,0-1.7-0.5-2.2-1.3C144.7,165.2,144.7,165.2,145.4,166.6z"/>
	<path id="XMLID_1063_" fill="#5C4908" d="M178,140c-0.5,1.4-0.8,2.8-1.4,4.1c-0.4,1-1.1,2-1.6,3c-1.4,0.1-2.8,0.1-4.2,0.2
		c-0.1-1.6,0.3-3.1,1.5-4.2c1.4-1.3,2.3-2.9,2.6-4.8c0.1-0.8,0.5-1.3,1.1-1c0.5,0.2,1,0.6,1.3,1.1C177.7,138.8,177.8,139.4,178,140z
		"/>
	<path id="XMLID_1062_" fill="#FABC05" d="M98.6,113.5c-2.4,1.5-4.8,2.1-7.2,2.9c-4,1.2-7.6,3.1-11.1,5.4c-1.6,1-3.1,2.1-5,2.7
		c-1.4,0.4-2.7,1.4-4.3,2.2c-0.5-4.7-0.2-9.1-0.3-13.6c0-2,0.6-3.7,1.9-5.3c1-1.2,1.8-2.6,2.9-3.8c0.4-0.4,1.1-0.8,1.7-0.8
		c2.5-0.2,5.1-0.3,7.6-0.3c2.3,0,4.4-0.4,5.8-2.5c0.2-0.3,0.5-0.4,0.7-0.6c1.2-0.8,3.7-0.2,4.1,1.1C97,104.9,98.1,109.1,98.6,113.5z
		"/>
	<path id="XMLID_1061_" fill="#0F0A06" d="M76.6,131.6c0.7,1.2,0.9,2.3-0.3,3.3c-0.9,0.8-2.2,0.9-3.4,0.1c-0.2-0.2-0.4-0.4-0.6-0.6
		c-0.2-0.2-0.4-0.5-0.5-0.8C73.1,132.2,74.5,131.1,76.6,131.6z"/>
	<path id="XMLID_1060_" fill="#0F0A06" d="M84.4,152.8c-0.3,1.9-1.4,3.4-2.3,4.9c-0.3,0.5-1,0.7-1.5,1c0.1-1.2,0.2-2.5,0.3-3.7
		c0.2-1.5,0.8-2,2.5-2.2C83.7,152.6,84,152.7,84.4,152.8z"/>
	<polygon id="XMLID_1059_" fill="#F1B708" points="85.6,136.6 85.1,136.8 85.2,136.3 	"/>
	<path id="XMLID_1058_" fill="#E9E0D6" d="M138.4,54c0.2,0,0.4,0.1,0.7,0.1C138.9,54,138.6,54,138.4,54
		C138.4,53.9,138.4,54,138.4,54z"/>
	<path id="XMLID_1057_" fill="#0F0A06" d="M163.1,153.1c1.9-0.3,3.9-0.6,5.8-0.9c-0.3,1.2-0.8,2.2-2.1,2.5
		C165.1,155,163.9,154.6,163.1,153.1z"/>
	<path id="XMLID_1056_" fill="#0F0A06" d="M149.9,166c0.6,0.1,1.2,0.1,1.8,0.3c0.7,0.2,1,0.8,0.6,1.2c-0.4,0.5-1,0.6-1.6,0.2
		c-0.5-0.3-0.8-0.8-1.2-1.3L149.9,166z"/>
	<path id="XMLID_1055_" fill="#0F0A06" d="M166.2,100.8c0.2,0.9-0.9,1.9-1.8,1.5c-1.7-0.7-3.4-1.4-5-2.2c-0.8-0.4-1.2-1.7-0.8-2.3
		c0.4-0.6,1-0.7,1.7-0.6c2.2,0.2,4.1,1.3,5.7,2.8C166.2,100.1,166.2,100.5,166.2,100.8z"/>
	<path id="XMLID_1054_" fill="#877D78" d="M155.2,64c-1-0.2-1.5-0.8-1.6-1.9c-0.1-1.1,0.4-2.1,1-2.2c0.3,0,0.7,0,0.9,0.2
		c0.5,0.7,1,1.5,1.3,2.3C157.1,63.3,156.1,64.2,155.2,64z"/>
	<polygon id="XMLID_1053_" fill="#0F0A06" points="113.8,192.7 113.6,191.9 114.2,192 	"/>
</g>
</svg>
