<?xml version="1.0" encoding="utf-8"?>
<!-- Generator: Adobe Illustrator 19.0.0, SVG Export Plug-In . SVG Version: 6.00 Build 0)  -->
<svg version="1.1" baseProfile="tiny" id="Layer_1" xmlns="http://www.w3.org/2000/svg" xmlns:xlink="http://www.w3.org/1999/xlink"
	 x="0px" y="0px" viewBox="0 0 111.8 115.4" xml:space="preserve">
<path id="XMLID_5_" fill="#20100A" d="M61.9,97.2c-2.2,0-4.3,0-6.4,0c-1.3,5.9-2.4,11.9-7,16.4c1.3-5.6,2.6-11.1,4-16.8
	c-1.7-0.3-3.4-0.7-5.2-0.9c-0.3,0-0.8,0.4-1.1,0.8c-2.1,3-3.9,6.2-6.2,9c-1.3,1.7-3.3,2.8-5.2,4c4-4.2,5.8-9.6,8.2-14.7
	c-2.4-0.9-4.6-1.7-6.9-2.5c-3.9,4.8-8.7,8.6-14,11.7c3.7-4.3,7.4-8.6,11.1-12.9c-1.9-1.1-3.6-2.2-5.4-3.1c-0.3-0.2-1.1,0.2-1.5,0.5
	c-4.8,3.7-10.3,6-16.4,6.6c5.4-2.5,10.4-5.6,14.9-9.3c-1.6-1.9-3.1-3.7-4.7-5.4c-0.3-0.3-0.9-0.4-1.3-0.3c-4.1,1.1-8.2,2.2-12.3,3.3
	c-0.5,0.1-1,0.3-1.6,0.2c1.4-0.9,2.7-1.8,4.1-2.5c1.5-0.8,3-1.6,4.5-2.3c1.5-0.7,3.1-1.2,4.7-1.8c-0.5-1.9-1-3.7-1.5-5.7
	C11,72.1,5.2,72,0,75.2c1.1-1.8,4-3.5,7.7-4.4c2.9-0.7,5.8-1.1,8.9-1.7c-0.1-1.2-0.1-2.3-0.2-3.5c-5.8-0.7-11.9-0.2-16.3-5
	c2.1,0.6,4.1,1.5,6.3,1.8c3,0.4,6,0.4,9,0.6c0.7,0,1.1-0.3,1.1-1.1c0-1.2,0-2.5,0-3.8c-4.9-0.9-9.8-1.7-14.2-4.3
	c4.7,0.6,9.3,1.3,14.3,1.9c0.2-2.1,0.4-4.2,0.5-6.3c0-0.3-0.7-0.7-1.1-0.9c-2.8-1-5.5-1.9-8.3-2.8c-0.6-0.2-1.3-0.4-1.9-0.6
	c0-0.2,0.1-0.3,0.1-0.5c3.9,0.6,7.8,1.2,11.9,1.8c0.5-2,1.1-4.2,1.5-6.4c0.1-0.3-0.5-0.8-0.9-1c-3.1-1.7-6.3-3.3-9.4-4.9
	c-0.3-0.2-0.6-0.4-1-0.6c0-0.1,0.1-0.2,0.1-0.4c4.1,1.3,8.1,2.7,12.3,4c0.8-1.8,1.7-3.6,2.6-5.7c-4.1-3.1-8.2-6.3-12.2-9.4
	c0.1-0.1,0.1-0.3,0.2-0.4c4.8,2.3,9.7,4.6,14.6,7c1.2-1.1,2.7-2.4,4.3-3.8c-2.9-4.3-7.1-7.9-8.8-13.6c4.3,4.1,8.3,8,12.4,11.9
	c1.1-0.7,2.1-1.3,2.9-1.9c-2-5.6-4-11.1-6.1-16.6c0.1-0.1,0.3-0.1,0.4-0.2c0.9,1.5,1.8,3,2.7,4.5c1.8,3.2,3.6,6.4,5.3,9.6
	c0.5,1,1.1,1.2,2.2,1c1.8-0.3,3.7-0.5,5.6-0.7c0.8-6.4,1-12.9,3.4-19.1c0.1,0,0.3,0,0.4,0c0,6.3,0,12.5,0,19.1c2,0,3.7,0.1,5.4,0
	c0.3,0,0.8-0.5,1-0.9c0.4-1.1,0.7-2.3,1-3.4c1.2-4.8,3.5-9.1,7.2-13c-1.1,3.2-2.1,5.9-2.9,8.7c-0.8,2.7-1.4,5.5-2.2,8.5
	c2.1,0.2,3.9,0.5,5.7,0.5c0.4,0,0.9-0.6,1.1-1c2.6-4.8,6.2-8.5,10.7-11.6c0.1-0.1,0.3-0.1,0.1,0c-2.6,4.2-5.2,8.5-8,13
	c2.6,1,4.8,1.9,7.1,2.7c0.3,0.1,1-0.3,1.4-0.6c4-3.1,8-6.3,12-9.4c0.2-0.1,0.4-0.2,0.8-0.1c-3.6,4-7.2,7.9-10.9,11.9
	c1.9,1.3,3.7,2.6,5.7,3.9c4.9-4.1,10.9-5.8,17.1-6.5c-5.1,2.7-10.5,4.8-14.8,8.8c1.3,2,2.5,4,3.9,5.8c0.2,0.3,1.1,0.4,1.6,0.3
	c4.4-1.1,8.9-2.3,13.3-3.4c0.2-0.1,0.4-0.1,0.6,0c-4.3,3.3-9.2,5.2-14.5,6.6c0.3,1.5,0.6,3,1,4.6c0.1,0.4,0.7,0.8,1.1,0.8
	c1.5,0,3,0,4.4-0.2c2.8-0.3,5.6-0.7,8.4-1.3c1.4-0.3,2.8-0.9,4.4-1.5c-1.1,1.4-2.5,2.5-4.1,2.8c-3.9,0.8-7.9,1.4-11.8,2.2
	c-0.6,0.1-1.2,0.2-1.9,0.3c0.1,1.4,0.1,2.6,0.2,3.6c6.4,0.7,12.9,0.5,17.7,5.6c-5.4-3.2-11.5-2.8-17.6-3c0,1.7,0,3.2,0,4.6
	c2.5,0.6,5.1,1,7.5,1.8c2.4,0.7,4.8,1.8,7.1,3c-4.8-0.7-9.6-1.3-14.7-2c0,2-0.1,4,0.1,5.9c0,0.4,0.6,0.9,1.1,1.1
	c2.9,1.1,5.8,2.2,8.7,3.2c0.5,0.2,1,0.3,1.6,0.5c0,0.2-0.1,0.4-0.1,0.5c-3.8-0.7-7.6-1.3-11.5-2c-0.5,1.9-1.2,4-1.7,6.1
	c-0.1,0.3,0.5,0.9,0.9,1.2c3,1.7,6,3.4,9,5.1c0.3,0.2,0.6,0.4,0.9,0.6c-0.1,0.1-0.1,0.3-0.2,0.4c-3.9-1.4-7.7-2.8-11.8-4.2
	c-0.9,1.6-1.8,3.4-2.9,5.4c3.3,2.6,6.6,5.2,9.9,7.7c-0.1,0.1-0.1,0.2-0.2,0.3c-3.8-1.8-7.6-3.6-11.5-5.5c-1.4,1.8-2.9,3.7-4.5,5.7
	c2.1,3.1,4.6,6.1,5.4,9.9c-1.9-2-3.9-4-5.8-6.1c-0.2-0.2-0.4-0.3-0.5-0.5c-1.1-1.4-2.3-1.7-3.8-0.7c-0.7,0.4-1.5,0.5-2.3,0.8
	c1.7,5.1,3.4,10.2,5,15.2c-0.1,0.1-0.3,0.1-0.4,0.2c-0.9-1.5-1.8-3.1-2.7-4.6c-1.6-3-3.2-6.1-4.7-9.2c-0.4-0.8-0.9-1.3-1.9-1.2
	c-0.9,0.1-1.7,0-2.6,0c-2.1,0-2.1,0-2.3,2.2c-0.5,4.4-1,8.9-1.5,13.3c-0.1,0.9-0.5,1.7-0.7,2.6c-0.1,0-0.3,0-0.4,0
	C62.3,109.4,62.1,103.3,61.9,97.2z M61.8,74.1c0-0.1,0.1-0.2,0.1-0.4c3.4,0.2,6.8,0.4,10.1,0.4c1.3,0,2.4,0.1,3.1,1.4
	c0.1,0.2,0.7,0.2,1.1,0.4c0-1,0.3-2,0.1-2.9c-0.1-0.5-0.9-1.2-1.4-1.3c-2.4-0.1-4.9-0.1-7.3-0.1c-1,0-2-0.1-2.9-0.3
	c-0.7-0.2-1.2-0.7-1.7-1c2.2-0.3,4.3-0.4,6.4-0.9c2.9-0.7,5.6-2.3,8.4,0.3c0.9-2.6-0.7-4.5-3.1-4.1c-1.3,0.2-2.5,0.5-3.7,0.9
	c-3.4,1.1-6.4,0.4-9-2c-1-0.9-2.2-2.1-2.5-3.4c-0.9-3.3-1.3-6.8,0.2-10.2c1.7-3.6,3.1-7.3,4.7-11c0.4-0.9,1.1-1.7,1.7-2.7
	c3.7,5.9,8.3,8.2,12.4,6.4c0.1-6-0.7-11.9-2.3-18.1c-1.3,1.9-1.6,3.5-1.3,5.3c0.3,1.8,0.9,3.5,1.2,5.2c0.3,1.8,0.6,3.5,0.8,5.3
	c0,0.4-0.4,1.1-0.8,1.3c-2.6,1-7.6-2.7-7.3-5.5c0.3-2.1,0.1-3.7-2-4.7c0,0,0-0.2,0-0.4c0.6-0.1,1.3-0.2,2.1-0.4
	c-0.5-1.6-1.2-2.6-2.8-2.7c-2.3-0.2-1.1,2-2.1,2.8c-0.1-0.6,0-1.2,0-1.8c0-0.5-0.1-1.3-0.4-1.4c-0.6-0.3-1.4-0.3-2-0.1
	c-0.3,0.1-0.4,0.9-0.5,1.4c-0.1,0.6,0,1.3,0,1.9c-0.2,0-0.4,0-0.7,0c0-0.7,0-1.4,0-2.1c0-0.8-0.4-1.3-1.2-1.1
	c-0.3,0.1-0.6,0.7-0.7,1.2c-0.1,0.5,0,1.1,0,1.7c-0.2,0-0.4,0-0.5,0c0-0.4-0.2-0.9-0.1-1.3c0.4-1.4-0.3-1.6-1.4-1.6
	c-1.6,0-2.1,0.5-2,1.8c0,0.5-0.1,0.9-0.2,1.4c-0.2,0-0.4-0.1-0.5-0.1c0.1-0.5,0.3-1,0.2-1.5c-0.1-0.5-0.4-1.3-0.8-1.5
	c-1-0.3-1.2,0.4-1.2,1.3c0,0.6-0.1,1.3-0.1,1.9c-0.2,0-0.4,0-0.6,0c0-0.6,0.2-1.1,0.1-1.7c-0.1-0.5-0.3-1-0.5-1.5
	c-0.3,0.4-0.8,0.7-1,1.2c-0.3,0.6-0.4,1.2-0.6,1.8c-0.2-0.1-0.4-0.1-0.6-0.2c0.1-0.4,0.2-0.8,0.2-1.2c0-0.5,0.1-1.1-0.1-1.4
	c-0.2-0.2-1-0.3-1.2,0c-0.3,0.3-0.4,0.9-0.4,1.3c-0.1,0.4,0,0.9,0,1.4c-0.2,0-0.3,0-0.5,0c0-0.8,0.1-1.6,0-2.4
	c-0.1-0.5-0.5-1-0.9-1.2c-0.3-0.2-1.1,0-1.2,0.3c-0.3,0.4-0.2,1-0.2,1.5c0,0.3,0.3,0.5,0.5,0.8c0.6,0.8,0.4,1.6-0.6,1.7
	c-2.3,0.2-2.8,1.9-3.3,3.7c-0.5,1.9-1,3.8-1.8,5.6C39,42,38,42.9,37.2,43c-3.1,0.5-7.6-3.8-6-7.2c0.5-1.1,1.1-2.2,1.6-3.3
	c0.6-1.5,0.3-2.2-1.2-2.9C27.7,34,29.4,42,34.8,44.3c2.9,1.2,4.7,0.6,6-2.3c0.4-0.8,0.6-1.7,0.9-2.5c0.3-0.9,0.7-1.7,1.1-2.7
	c3,3.5,5,7,5.1,11.5c0.1,4.7,0.6,9.4,0.9,14.3c-0.5,0.2-1.3,0.4-2.1,0.6c-2.8,0.6-4.8,2.3-6.1,4.8c-0.5,0.9-0.8,1.9-1.2,2.8
	c-1.1,2.8-2,5.8-4.7,7.6c-0.1,0.1-0.1,0.3-0.1,0.4c1.5,0.5,3.2-0.3,3.7-1.8c0.7-1.9,1.2-3.9,2.1-5.8c0.5-1.1,1.4-2.1,2.2-3.1
	c0.3-0.4,1-0.4,1.5-0.6c0.1,0.1,0.2,0.3,0.3,0.4c-0.5,0.7-1.1,1.4-1.6,2.2c-0.3,0.5-0.9,1.2-0.8,1.7c0.3,3.6,0.4,7.3-1.5,11
	c1.9-0.7,3.1-1.6,3.2-3.4c0.1-2.2,0.2-4.3,0.2-6.5c0-1.9,1.1-3.1,3.4-3.4c-0.4,1.9-0.7,3.8-1.3,5.6c-1.1,3.4-0.7,6.4,1.3,9.4
	c1.7,2.7,3.9,5.3,3.2,8.9c1.8-0.4,2.3-1,2-2.4c-0.3-1.1-0.8-2.2-1.2-3.3c-0.9-2.7-2-5.4-2.8-8.2c-0.5-1.7-0.2-3.3,1.3-4.9
	c0.1,3.2,1.5,5.3,3.8,6.9c1,0.7,2.1,1.4,3.2,2.1c1.8,1.2,4.5,1.6,4.2,4.7c1.7-1.1,1.8-3.1,0.3-4.5c-2.3-2-4.7-3.9-7-5.8
	c-0.3-0.3-0.5-0.7-0.7-1c0.1-0.1,0.2-0.2,0.4-0.4c3.4,2,6.8,3.9,10.2,6c0.4,0.3,0.6,0.9,1,1.3c0.3,0.3,0.7,0.3,1.1,0.5
	c0.2-1,0.6-1.9,0.7-2.9c0-0.4-0.6-1-1-1.2c-2.4-1.3-5-2.4-7.4-3.8c-0.6-0.3-0.9-1.3-1.3-2c0.1-0.1,0.3-0.2,0.4-0.3
	c1.4,1.8,3.5,2.2,5.6,2.7c2.7,0.7,5.7,0.9,7.1,4c1.4-2.1,1-3.7-1.1-4.5c-1.1-0.5-2.4-0.7-3.5-1.1C64.3,74.9,63,74.5,61.8,74.1z"/>
</svg>
