<?xml version="1.0" encoding="utf-8"?>
<!-- Generator: Adobe Illustrator 19.0.0, SVG Export Plug-In . SVG Version: 6.00 Build 0)  -->
<svg version="1.1" id="Layer_1" xmlns="http://www.w3.org/2000/svg" xmlns:xlink="http://www.w3.org/1999/xlink" x="0px" y="0px"
	 viewBox="0 0 250 250" enable-background="new 0 0 250 250" xml:space="preserve">
<g id="XMLID_80_">
	<path id="XMLID_462_" fill="#E9E0D6" d="M211.6,215.3c-0.2,3.8-2.3,5.5-6,5.5c-3.8-3.8-8.8-6.1-12.6-9.9c-2.6-2.6-6-2.9-8.8-1.3
		c-4.6,2.7-9.8,4.5-14,8.2c0,1.6-0.4,3.3,0.1,4.7c2.2,5.7,2.5,11.7,2.9,17.7l0.2-0.1c-2.5,0.1-5.1,0.2-7.6,0.2
		c-1.3,0-2.6-0.6-3.2-1.8c-2.2-3.9-4.6-7.7-6.4-11.8c-1.4-3.1-3.2-5.3-6.5-7.1c-3.2,0.2-6.7,0.4-10.1,0.7c-2.5,0.2-4.1,1.7-4.6,4.2
		c-1.2,6.6-2.5,13.2-3.7,19.7c-0.4,2.1-1.7,3.1-4.1,3.1c-0.6,0-1.3,0-1.9-0.1c-2.3-0.3-3.5-1.4-3.9-3.5c-1.2-6.9-2.3-13.8-3.6-20.7
		c-0.4-2-1.5-3.5-3.7-3.9c-3.1-0.6-6.2-1.2-9.4-1.9c-1.6-0.3-3.1-0.6-4.7-0.9c-3.2-0.7-5.6,0.8-7.5,3.1c-0.8,1-1.3,2.2-2,3.2
		c-2.9,4.2-5.8,8.4-8.7,12.6c-1.3,1.8-3,2.2-5.1,1.4c-0.6-0.2-1.2-0.3-1.8-0.6c-1.6-0.6-3.2-3.1-2.8-4.5c0.9-2.7,1.6-5.5,2.9-8.1
		c1.6-3.2,2.3-6.6,2.1-10.1c0.1-0.9,0.2-1.9,0.3-3.1c-5.7-3.3-11.5-6.7-17.2-10.1c-1.8-1.1-3.7-1-5.5-0.2c-1.7,0.8-3.3,1.9-4.9,3
		c-3,1.9-5.8,3.8-8.9,5.6c-0.7,0.4-1.9,0.3-1.3,0.2c-2.4-1.6-4.1-2.6-5.6-3.9c-0.9-0.7-0.9-3.7-0.1-4.5c2.5-2.8,5.2-5.6,7.7-8.4
		c0.8-0.9,1.6-2,2.3-3c1-1.4,1.3-3.1,0.5-4.5c-2.9-5-4.7-10.4-7.2-15.6c-0.5-1.1-1.1-2.3-3-2.9c-3.3-0.2-7.1,0.1-10.8,1.4
		c-2.5,0.9-5,1.2-7.5,0.8c-1.4-0.2-2.4-1.1-2.9-2.3c-0.5-1.1-0.7-2.4-1-3.7c-0.3-1.4,0.2-2.6,1.3-3.4c1.3-0.9,2.7-1.8,4.1-2.5
		c3.1-1.5,6.3-3.1,9.5-4.4c2.5-1,4.2-2.7,5.9-5.1c0-4.9,0.4-9.9-0.3-14.7c-0.5-0.5-0.7-0.8-1-0.9c-2.7-1-5.4-1.9-8.1-2.8
		c-1.5-0.5-3.1-0.7-4.7-1.1c-3.4-1-6.8-1.9-10.1-3c-1.3-0.4-1.9-1.6-2-3c-0.2-3.7,2-6.4,5.3-6.8c1.9-0.2,3.8-0.2,5.7-0.3
		c4.1-0.2,8.3-0.4,12.4-0.8c3.1-0.3,5.5-2.5,6-5.3c0.6-3.1,1-6.3,1.6-9.4c0.6-2.9-0.7-4.9-2.9-6.6c-1-0.8-2.2-1.3-3.2-2
		c-3.6-2.5-7.2-5.1-10.8-7.7c-1.6-1.1-1.8-3.4-3.8-4.1c1.8-1.4,2.1-3.5,2.5-5.6c1.7-0.7,3.4-0.5,5.2-0.3c1.1,0.2,2.3,0.2,3.5,0.2
		c1.9,1.2,4.2,1,6.1,2.5c2.3,1.8,5.4,1.7,8.2,1.5c1.3-0.1,2.6-0.5,3.2-1.7c2.3-4.5,4.5-9.1,6.8-13.8c-1-2.3-1.8-4.7-3-6.9
		c-0.6-1-1.8-1.7-2.7-2.5c-0.2-2.4-2-4-2.7-6.1c-0.3-0.8-0.4-2-0.1-2.8c1.4-3.7,5.4-6,9.2-3c2,1.6,3.8,3.4,5.8,5
		c3.1,2.5,7.2,3.6,11.4,0.3c2.1-1.6,4.3-2.7,6.5-3.9c1.7-0.9,3.3-1.9,4.9-3c0.5-0.3,1-0.9,1.1-1.5c0.5-2.9,0.8-5.7-1.6-8
		c-0.2-1.2-0.4-2.5-0.6-3.7c0.2-2.2,0.4-4.4,0.8-6.6c0.2-1.3,1.1-2.2,2.5-2.6c1.9-0.4,3.7-0.9,5.6-0.1c1.3,0.6,1.3,2.2,2.1,3
		c1.1,1.1,2.2,2.3,2.6,3.9c0.7,3.2,3.2,5.5,4.5,8.4c0.7,1.6,2.4,2.2,4,2.3c3.5,0.1,7-0.1,10.5-0.3c1.6-0.1,3.2-0.1,4.5-1.6
		c0.4-1.3,0.9-2.9,1.2-4.4c1-5,1.8-10,2.7-15.1c0.4-2,1.6-3.2,3.9-3.4c0.9-0.1,1.9-0.1,2.9-0.1c1.7,0.1,3.2,1.1,3.7,2.5
		c1,2.7,0.8,5.7,2.6,8.1c0.1,1.3,0.2,2.5,0.3,3.8c-0.8,2.9-0.3,5.7,0.2,8.5c0.3,1.7,1.5,2.8,3,3.4c1.2,0.5,2.4,0.7,3.7,0.9
		c4.7,0.5,9.5,1,14.2,1.4c2.4,0.2,4.2-0.6,5.7-2.8c3.2-4.7,6.5-9.4,9.9-14c1-1.3,2.5-1.8,4.2-1.5c2.9,0.4,4.6,2,5.3,4.9
		c-0.7,2.6-1.5,5.4-2.3,8.1c-0.9,3-2,6-3.1,9.3c1.9,2,3.5,4.3,6.6,4.9c1.5,0.3,2.8,1.4,4.1,2.2c3.2,2,6.4,4.1,9.6,6.1
		c1.8,1.1,3.7,0.9,5.5,0c1.1-0.6,2.2-1.3,3.2-2c2.8-2.2,6-3.5,9.6-4.3c0.8,0.4,1.7,0.7,2.4,1.3c2.9,2.1,3.4,4.7,1.2,7.3
		c-2.2,2.7-4.6,5.2-6.9,7.8c-1.9,2.1-2.4,4.9-1,7.1c2.2,3.3,3,6.9,4.4,10.4c0.3,0.8,1.2,1.5,1.8,2.2c-0.1,0.3-0.4,0.6-0.3,0.8
		c0.2,0.5,0.6,0.9,0.9,1.3c0.8,3,1.3,3.5,3.4,3.6c3.2,0.1,6.4,0,9.5-1c1.5-0.5,3-1,4.6-1.3c4.5-0.9,5.2,0.3,6.1,3.9
		c0.2,0.6,0.2,1.3,0.3,1.9c0.4,2.4-0.7,4.7-2.9,5.4c-4.6,1.3-8.5,4.2-13.1,5.7c-3.7,1.2-5.5,4.2-5.2,8.2c0.1,0.9,0.5,1.8,0.8,2.7
		c-0.7,2.6-1,5.1,0.6,7.5c0.2,2.3,2,3.1,3.7,3.7c3.8,1.3,7.7,2.2,11.8,2.1c0.8,0.5,1.5,1.2,2.3,1.4c1.5,0.5,3.1,0.6,4.6,1.1
		c1.3,0.4,2.1,1.5,2.3,2.8c0.2,1.2,0.3,2.5,0.2,3.8c0,1.5-1.5,3.2-2.9,3.3c-3.5,0.3-6.9,0.6-10.4,0.6c-3.5,0-6.9,0.7-10.4,1.3
		c-2,0.4-3.4,1.7-3.9,3.7c-0.8,3.4-1.5,6.8-2.3,10.2c-0.8,3.2,0.3,5.7,2.8,7.5c3.5,2.6,7.2,5.1,10.8,7.6c6.4,4.6,6.4,3.7,3.9,10.5
		c-0.2,0.5,0.1,1.2,0.2,1.8c-2.8,0.2-5.6,0.5-8.4-0.9c-3.1-1.6-6.8-1.6-9.7-3.8c-0.7-0.5-1.8-0.6-2.7-0.7c-1.3-0.1-2.4,0-3.4,1.1
		c-3.8,3.9-5.5,9.2-8.4,13.7c-0.5,0.9-0.4,2.6,0.1,3.6c1.6,3.1,3.3,6.2,5.5,8.9c2,2.5,3.1,5.3,3.8,8.3
		C210.9,215,211.3,215.1,211.6,215.3z M135.3,197c3,2.1,6.3,2.9,9.9,2.7c2.2-0.1,4.5,0.1,6.5-1c0.3-0.1,0.5-0.4,0.6-0.7
		c0.4-0.5,0.4-1.3-0.3-1.6c-1.7-0.8-3.2-1.9-4.7-3.1c-1.1-0.9-2.9-1.1-4.4-1.6c0.7-0.6,1.3-1.6,2-1.7c1.9-0.3,3.8-0.2,5.7-0.3
		c1.9,0,3.8,0,5.7-0.1c0.9-0.1,1.9-0.3,2.7-0.8c0.8-0.4,1.4-1.2,1.9-1.9c0.5-0.8-0.5-2.7-1.5-3.2c-2.3-1.2-4.8-1.6-7.3-1.1l-0.2-0.1
		c-1.2-2.9-3.8-3.9-6.6-4.4c-0.2-1.1-0.5-2.1-0.7-3.2c2.5-0.5,5-0.8,7.5,0.3c2,0.9,4.3,1.2,6.4,1.9c1.6,0.5,3.1,0.3,4.7-0.1
		c6.7-1.6,11.3-5.6,14.4-11.6c0.8-1.6,1-3,0.2-4.5c-0.9-1.8-1-3.6-0.1-5.5c1.2-2.3,1.9-4.8,1.1-7.4c0.4-1.3,0.8-2.6,1.2-3.9
		c0.7-1,1.8-1.9,2.1-3c3.1-11.1,3.4-22.2-1.3-33c1.4-2,2.8-4.1,4.3-6.1c3.8-5,5.7-10.5,5.2-16.8c-0.2-2.9-0.6-5.6-1.8-8.3
		c-0.9-2-1.6-4.1-2.5-6.1c-0.3-0.8-1.1-1.4-1.8-1.9c-0.8-0.6-1.6,0.6-1.6,2.8c0,6.3,0.1,12.6,0.2,19c-0.1,3.1-2.4,4.6-4.6,6.2
		c-1.7-1.3-3.5-2.4-4.5-4.5c-2.2-4.4-5.3-8.3-9.1-11.6c-0.6-0.6-1.6-0.7-2.5-1c-0.2-3.4-0.5-6.8-0.7-10.2c0.5-0.3,1.1-0.6,1.6-1
		c3.3-3.4,3-6.5-0.5-9.5c-2-1.7-4.1-2.9-6.8-2.9c-0.4-0.8-0.7-1.7-1.2-2.4c-0.5-0.8-1.6-0.5-2.1,0.4c-0.3,0.5-0.4,1.1-0.6,1.7
		c-2.2,0.2-4.3,0-5.7-2.1c-0.3-0.5-0.8-1-1.2-1.4c-0.9-1.1-2.1-1.2-3.2-0.4c-1.7,1.2-3.5,0.9-5.3,0.2c-1.7-0.7-3.4-1.5-5-2.2
		c-1.5-1.3-1.5-1.3-2.9,0c-0.6,0.2-1.2,0.4-1.7,0.7c-2,1.2-3.9,1.9-6.2,0.6c-0.5-0.3-1.7,0.3-2.5,0.7c-0.8,0.4-1.4,1-2.1,1.4
		c-0.7-0.4-1.3-0.7-1.8-1.1c-0.5-0.3-1-0.8-1.5-1.1c-1.1-0.8-2.4-0.8-3.5-0.1c-1.2,0.7-1.4,2-1.2,3.3c-0.2,0.5-0.4,1-0.5,1.5
		c-2.2,0.6-3.3-1.6-5.2-2c-5.1,3.6-5.7,5-3.3,10.1c1.4,2.9,1.3,5.5,0.3,8.3c-1.7,4.8-3.6,9.5-5.4,14.2c-0.8,0.5-1.9,0.9-2.3,1.6
		c-1.1,1.7-2.4,2.9-4.4,3.3c-2.3,0.5-4.5,0.5-6.5-0.7c-1.1-0.6-2.2-1.4-2.9-2.4c-3.1-4.8-4.1-10-2-15.5c0.8-2.1,1-4.4,0.6-6.6
		c0-0.2-0.4-0.4-0.6-0.4c-0.3,0-0.7,0-0.8,0.2c-1.6,2.8-3.5,5.4-4.6,8.3c-1.1,2.9-2.2,6.2-2.2,9.3c0.1,5.8,1.1,11.5,6.2,15.4
		c1.3,1,2.3,2.2,3.4,3.4c-4.4,4-6.2,9.5-7.4,14.9c-1.1,5.1-0.9,10.6,0.2,15.8c0.2,1.1,1.3,2.1,2,3.1c-3.1,4.1-4.2,9.2-7.4,13.3
		c0,0,0.4,0.4,0.6,0.6c2.4-1.5,4.8-3,7.3-4.4c2,3.6,4.5,7,4.7,11.3c0,0.9,0.3,2,0.9,2.7c2.6,2.7,3.1,6.2,4.2,9.5
		c0.4,1.3,1.4,2.5,2.6,2.6c3,0.1,4.9,2.9,7.9,3c0.3,2.7,0.6,5.5,0.9,8.3c-0.1,0.9-0.4,2-0.1,2.8c1.3,3.6,2.7,7.1,4.2,10.5
		c0.1,0.3,1,0.4,1.6,0.5c0.2,0,0.7-0.2,0.8-0.5c0.4-0.8,1-1.7,1-2.6c0.1-4.7,0.1-9.5,0.1-14.2c1.9-0.8,3.8-0.2,5.8-0.1
		c0.1,1.1,0.2,2.3,0.4,3.4c0,1.8-0.3,3.7,0.2,5.4c0.9,3.2,2.4,6.2,4.6,8.8c0.3,0.4,1.1,0.4,1.6,0.6c0.4,0.4,0.6,0.8,0.6,1.3
		c0.5,1.5,0.7,3.2,1.6,4.4c2.3,3.4,5.2,6.4,8.8,8.5c0.2,0.1,0.6,0,1.1,0c0.2-0.9,0.8-1.9,0.6-2.7c-0.7-2.7-1.6-5.4-2.7-8
		c-0.3-0.6-1.6-0.8-2.4-1.2c-0.5-2.2-1.1-4.5-1.6-6.7c0.7-0.6,1.3-1.2,1.9-1.8c2.7,0.6,3.8,3.1,6,4.3
		C130.5,196.4,132.6,197.9,135.3,197z"/>
	<path id="XMLID_461_" fill="#292523" d="M17.1,78.3c2.1,0.6,2.3,3,3.8,4.1c3.6,2.6,7.2,5.1,10.8,7.7c1,0.7,2.2,1.3,3.2,2
		c2.2,1.6,3.5,3.7,2.9,6.6c-0.6,3.1-1,6.3-1.6,9.4c-0.5,2.8-3,5.1-6,5.3c-4.1,0.4-8.3,0.5-12.4,0.8c-1.9,0.1-3.8,0.1-5.7,0.3
		c-3.3,0.3-5.5,3.1-5.3,6.8c0.1,1.4,0.7,2.6,2,3c3.3,1.1,6.7,2.1,10.1,3c1.5,0.4,3.1,0.6,4.7,1.1c2.7,0.9,5.4,1.9,8.1,2.8
		c0.3,0.1,0.4,0.4,1,0.9c0.7,4.8,0.3,9.9,0.3,14.7c-1.6,2.3-3.4,4.1-5.9,5.1c-3.2,1.3-6.4,2.9-9.5,4.4c-1.4,0.7-2.8,1.5-4.1,2.5
		c-1.1,0.8-1.6,2-1.3,3.4c0.3,1.2,0.4,2.5,1,3.7c0.5,1.2,1.5,2,2.9,2.3c2.6,0.4,5.1,0.2,7.5-0.8c3.7-1.4,7.4-1.7,10.8-1.4
		c1.9,0.6,2.4,1.8,3,2.9c2.4,5.2,4.3,10.6,7.2,15.6c0.8,1.4,0.5,3.1-0.5,4.5c-0.7,1-1.5,2.1-2.3,3c-2.5,2.8-5.2,5.6-7.7,8.4
		c-0.7,0.8-0.7,3.8,0.1,4.5c1.5,1.2,3.2,2.2,5.6,3.9c-0.5,0.1,0.6,0.2,1.3-0.2c3-1.8,5.9-3.7,8.9-5.6c1.6-1,3.2-2.2,4.9-3
		c1.8-0.8,3.7-0.9,5.5,0.2c5.7,3.4,11.5,6.7,17.2,10.1c-0.1,1.2-0.2,2.2-0.3,3.1c-1.1,0.7-2.3,1.4-3.4,2.1c-0.4-1.5-0.8-2.9-2.2-4.1
		c-3.4-2.9-7.8-4-11.2-6.9c-1.5-1.3-3.6-0.8-5.5-0.1c-5.2,1.9-9.2,5.4-13,9.2c-0.5,0.5-0.7,2-0.3,2.6c0.9,1.6,2.3,3,3.4,4.5
		l-0.3,0.4c-7-4.6-12.4-10.9-17.5-17.3c-14.5-18-23.1-38.6-26.5-61.4c-0.4-2.5-0.9-5-0.1-7.6c1.3,1.1,1.8,2.6,1.8,4.2
		c0,7.9,2.5,15.2,4.8,23.4c1.9-5.1,5.1-8,9.4-9.6c2.4-0.9,4.7-1.9,7-2.9c1.2-0.5,2.3-1.1,3.4-1.7c1.1-0.6,2.1-1.6,2.1-2.9
		c0.1-3.2,0-6.3-0.1-9.5c0-1.5-1.5-2.8-3.3-2.9c-1.9-0.1-3.8-0.3-5.7-0.2c-5.9,0.2-11.2-1.4-16.1-4.8c-1-0.7-2.4-0.6-3.6-0.9
		c-0.9-5.7-0.5-11.4,0.7-17.1c0.8,0.9,1.6,1.9,2.3,2.7c5.3-2.7,5.3-2.7,10.2-2.7c3.8,0,7.7,0,11.5-0.1c1.3,0,2.6-0.1,3.8-0.3
		c0.6-0.1,1.3-0.6,1.5-1c0.8-1.4,1.3-2.9,2-4.3c2.6-5.7,3.9-7-2.7-10.6c-3.1-3.3-7-5.5-10.7-8c-2.5-1.6-3.3-3.7-3.3-6.4
		C16.2,78.9,16.7,78.7,17.1,78.3z"/>
	<path id="XMLID_458_" fill="#262321" d="M234,184.5c-0.1-0.6-0.4-1.3-0.2-1.8c2.5-6.8,2.6-5.9-3.9-10.5c-3.6-2.6-7.3-5-10.8-7.6
		c-2.5-1.8-3.6-4.3-2.8-7.5c0.8-3.4,1.5-6.8,2.3-10.2c0.5-2,1.9-3.3,3.9-3.7c3.4-0.6,6.8-1.3,10.4-1.3c3.5,0,7-0.3,10.4-0.6
		c1.4-0.1,2.9-1.8,2.9-3.3c0-1.3,0-2.5-0.2-3.8c-0.2-1.3-1.1-2.4-2.3-2.8c-1.5-0.5-3.1-0.6-4.6-1.1c-0.8-0.3-1.5-0.9-2.3-1.4
		c1.6-0.1,3.2-0.1,4.8-0.2c0.2,0,0.5-0.4,0.6-0.6c0.1-0.1,0-0.6-0.1-0.6c-1.5-0.5-3.5-0.5-4.4-1.5c-2.4-2.8-5.5-2.9-8.7-2.8
		c-2.5,0-5.1,0-7.6,0c-1.6-2.4-1.3-4.9-0.6-7.5c1.1-0.6,1.9-1.5,2.4-2.8c0.3-0.9,0.7-1.8,1.3-2.4c3.1-3.2,7.5-4.3,11.2-6.6
		c1.6-1,3.2-1.9,5.2-2c2.3-0.1,3.1-1.6,3.8-3.5c0.3-0.8,1.1-1.4,1.7-2.2c0.6,1.8,1.4,3.5,1.8,5.3c2,10.9,2.8,21.8,1.9,32.8
		c-0.1,1.3-0.1,2.5-0.2,3.8c-1.3,1.2-1.3,1.2-0.4,2.5c-1.2,9.4-3.3,18.6-6.5,27.5c-1.9,5.4-4.6,10.3-7.4,15.2
		c-0.3,0.5-1,0.7-1.5,1.1C233.8,184.3,234,184.5,234,184.5z M221.2,153.6c0,1.1,0,2.1,0,3c0.1,4.1,1.4,5.8,5.2,6.8
		c1.5,0.4,3.1,0.6,4.6,1.2c2.5,1,5,0.9,7.5,0.8c2.2-0.1,3.7-1.2,4.3-3.2c1.2-3.9,2.2-7.9,3.1-11.9c0.5-2.4-1.1-4.1-3.8-4.2
		c-2.5-0.1-5.1-0.1-7.6,0c-3.2,0-6.3,0.1-9.5,0.2c-2,0.1-3.3,1.5-3.5,3.7C221.3,151.2,221.3,152.4,221.2,153.6z"/>
	<path id="XMLID_455_" fill="#463935" d="M73.7,215.3c1.1-0.7,2.3-1.4,3.4-2.1c0.2,3.6-0.5,6.9-2.1,10.1c-1.2,2.6-2,5.4-2.9,8.1
		c-0.5,1.4,1.2,4,2.8,4.5c0.6,0.2,1.2,0.3,1.8,0.6c2,0.8,3.8,0.4,5.1-1.4c3-4.1,5.8-8.4,8.7-12.6c0.7-1,1.2-2.2,2-3.2
		c1.9-2.4,4.3-3.8,7.5-3.1c1.6,0.3,3.1,0.6,4.7,0.9c3.1,0.6,6.2,1.3,9.4,1.9c2.2,0.4,3.3,1.9,3.7,3.9c1.2,6.9,2.4,13.8,3.6,20.7
		c0.4,2.1,1.6,3.3,3.9,3.5c0.6,0.1,1.3,0.1,1.9,0.1c2.4,0,3.8-1,4.1-3.1c1.2-6.6,2.5-13.2,3.7-19.7c0.5-2.4,2-3.9,4.6-4.2
		c3.5-0.3,7-0.5,10.1-0.7c3.3,1.8,5.1,4.1,6.5,7.1c1.8,4.1,4.2,7.9,6.4,11.8c0.7,1.2,1.9,1.7,3.2,1.8c2.5,0,5.1-0.1,7.6-0.2
		c-9.7,5-20.1,7.8-30.8,9.4c-2.5,0.4-5.1,0.7-7.6,0.5c-5.7-0.4-11.4,0-17.2,0.1c-9.3,0.2-18.4-1.5-27.1-4.6c0,0,0.3-0.7,0.3-0.7
		c8.1,1.7,16.2,2.9,24.4,4c0.7,0.1,2.1-0.9,2.1-1.5c0-5.3,1.1-10.8-2.3-15.7c-0.8-1.2-0.8-3-1.2-4.5c-0.9-3.4-3.4-5.8-6.5-6
		c-2.8-0.2-5.7-0.3-8.6-0.1c-1.1,0.1-2.4,0.9-3.2,1.8c-2.2,2.7-4.7,5.3-6.1,8.4c-1.4,3.2-4.3,5.5-5.3,8.9c-2.5,0.3-2.5,0.3-1.6,2.6
		c-6.7-1.7-12.9-4.6-18.7-8.4c0,0,0.5-0.6,0.5-0.6c0.6,0.1,1.2,0.3,1.9,0.3c1.6,0.1,2.8-0.6,3-1.6c0.5-2.5,0.7-5,2.1-7.2
		C73.3,222.2,73.3,218.7,73.7,215.3z M141.4,247.7c5.2,0.3,10-1.5,14.8-2.7c0.9-0.2,1.8-1.8,1.9-3c0.1-1.9,0-3.9-1.4-5.3
		c-1.4-1.4-2.2-3-2.8-4.8c-0.5-1.5-1.2-2.9-2-4.3c-1-1.7-2.5-2.9-4.6-3c-1.9-0.1-3.8-0.1-5.7,0.1c-1.3,0.1-2.4,0.8-2.9,2.1
		c-1.1,2.9-2.5,5.8-2.3,9.1c0.1,3.2-0.2,6.3-1.1,9.4c-0.3,1.1,1.1,2.5,2.3,2.5C138.9,247.8,140.2,247.7,141.4,247.7z"/>
	<path id="XMLID_454_" fill="#272825" d="M216.6,84.4c-0.6-0.7-1.4-1.4-1.8-2.2c-1.4-3.5-2.3-7.2-4.4-10.4c-1.4-2.2-0.9-4.9,1-7.1
		c2.3-2.6,4.7-5.1,6.9-7.8c2.1-2.6,1.6-5.2-1.2-7.3c-0.8-0.5-1.7-0.9-2.4-1.3c-3.6,0.7-6.8,2.1-9.6,4.3c-1,0.8-2.1,1.5-3.2,2
		c-1.8,0.9-3.7,1.1-5.5,0c-3.2-2-6.4-4.1-9.6-6.1c-1.3-0.8-2.7-1.9-4.1-2.2c-3.1-0.7-4.7-3-6.6-4.9c1.1-3.3,2.1-6.3,3.1-9.3
		c0.8-2.7,1.6-5.5,2.3-8.1c-0.7-2.9-2.4-4.5-5.3-4.9c-1.8-0.2-3.3,0.2-4.2,1.5c-3.4,4.6-6.7,9.2-9.9,14c-1.4,2.1-3.3,2.9-5.7,2.8
		c-4.8-0.4-9.5-0.9-14.2-1.4c-1.2-0.1-2.5-0.4-3.7-0.9c-1.5-0.6-2.7-1.7-3-3.4c-0.5-2.8-1-5.6-0.2-8.5c1.3,0.3,2.5,0.6,3,2
		c0.3,0.9,0.4,1.9,0.7,2.8c0.7,2.2,1.9,3.2,4.1,3.1c2.5-0.2,5-0.7,7.7-1c0.5,0.7,1,1.4,1.5,2.2c1.4,2.3,2.7,2.4,3.9-0.1
		c0.8-1.5,1.9-2.3,3.3-3.2c3.3-2,6.5-4.4,6.4-8.7c0-3.4,2-4.3,4.8-4.7c1.8-0.3,2.7-1.5,2.7-3.4c0-0.6,0-1.3,0.1-1.9
		c6.4,1.9,12.3,4.8,17.5,9c0,0-0.6,0.7-0.6,0.7c-1.3-0.2-2.7-0.1-3.2,1.3c-1.6,4.8-4.1,9.3-4.9,14.4c-0.8,5-1.2,4.9,4,7.5
		c2,1,3.9,2.2,5.8,3.4c2.2,1.4,4.2,2.8,6.4,4.2c1.1,0.7,2.6,0.7,3.5-0.3c2-2.2,4.6-3.3,7.2-4.6c4.4-2.3,6.7-3.6,2.5-9.5
		c-0.2-0.3-0.3-0.6-0.5-0.8l0.5-0.5c6.4,5.3,11.7,11.5,15.9,18.7c-1.5,0.4-3.2,0.7-3.7,2.5c-0.6,2.6-2.1,4.6-4.1,6.2
		c-1.4,1.2-2.9,2.4-4.4,3.6c-1.3,1.1-1.7,3.6-0.9,5.2c0.3,0.6,0.6,1.2,1,1.6c1.9,1.6,2.3,3.7,2.1,6
		C217.2,80.6,216.8,82.5,216.6,84.4z"/>
	<path id="XMLID_453_" fill="#080303" d="M173.3,10.1c0,0.6-0.1,1.3-0.1,1.9c0,1.8-0.9,3.1-2.7,3.4c-2.8,0.4-4.8,1.3-4.8,4.7
		c0,4.4-3.1,6.8-6.4,8.7c-1.4,0.8-2.5,1.6-3.3,3.2c-1.2,2.4-2.5,2.4-3.9,0.1c-0.5-0.8-1-1.5-1.5-2.2c-2.7,0.4-5.2,0.8-7.7,1
		c-2.3,0.2-3.4-0.8-4.1-3.1c-0.3-0.9-0.4-1.9-0.7-2.8c-0.5-1.3-1.8-1.7-3-2c-0.1-1.3-0.2-2.5-0.3-3.8c0.6-0.7,1.5-1.4,1.6-2.2
		c0.3-1.8,0.2-3.7,0.2-5.6c0-1.6-0.6-3-1.6-4.3c-0.8-1-1.5-2-2.2-3c0-0.6,0.1-1.3,0.1-1.9c2.9,0.2,5.8,0,8.6,0.5
		c8.4,1.7,17,3.1,25,6.3c1.5,0.6,3.1,0.8,4.7,0.4C171.9,9.7,172.6,9.9,173.3,10.1z"/>
	<path id="XMLID_452_" fill="#272825" d="M171.3,9.5c-1.6,0.4-3.2,0.2-4.7-0.4c-8.1-3.2-16.6-4.6-25-6.3c-2.8-0.5-5.7-0.4-8.6-0.5
		c-10.2-0.6-20.4-0.6-30.4,1.7c-5.3,1.2-10.6,2.1-15.6,4.2C86.5,8.4,86,9.1,86,9.6c0,0.5,0.4,1.4,0.8,1.4c3,0.5,5.2,1.8,7,4.3
		c2,2.9,4.3,5.4,5.2,8.9c0.9,3.5,3.6,5,7.3,4.7c1.6-0.1,3.2,0.1,4.8-0.2c1.2-0.2,2.4-0.9,3.4-1.6c1.6-1.2,2.7-2.8,2.8-4.8
		c0.3-4.1,0.5-8.3,0.7-12.5c1.7-1.8,3.5-3.7,5-5.3c3.5-0.8,6.7-0.5,9.9-0.4c0.7,1,1.4,2,2.2,3c1,1.3,1.6,2.7,1.6,4.3
		c0,1.9,0.1,3.8-0.2,5.6c-0.1,0.8-1,1.5-1.6,2.2c-1.9-2.4-1.7-5.4-2.6-8.1c-0.5-1.4-2-2.5-3.7-2.5c-1,0-1.9,0-2.9,0.1
		c-2.3,0.2-3.6,1.4-3.9,3.4c-0.9,5-1.7,10.1-2.7,15.1c-0.3,1.6-0.9,3.1-1.2,4.4c-1.3,1.5-2.9,1.6-4.5,1.6c-3.5,0.1-7,0.3-10.5,0.3
		c-1.6,0-3.2-0.7-4-2.3c-1.4-2.9-3.8-5.2-4.5-8.4c-0.3-1.6-1.4-2.8-2.6-3.9c-0.9-0.9-0.8-2.5-2.1-3c-1.9-0.8-3.7-0.4-5.6,0.1
		c-1.4,0.3-2.3,1.2-2.5,2.6c-0.4,2.2-0.5,4.4-0.8,6.6c-1.7-0.3-2.9-1.1-3.2-2.8c-0.4-2.5-0.1-4.8,0.8-7.3c0.9-2.3-0.4-3.3-3-2.5
		c-1.8,0.5-3.6,1.1-5.3,1.6c0,0-0.5-0.7-0.5-0.7c0.5-0.4,0.9-1,1.4-1.2C92,2,114.3-1.7,137.6,0.5c11.1,1,21.9,3.6,32.3,7.7
		C170.4,8.4,170.8,9,171.3,9.5z"/>
	<path id="XMLID_451_" fill="#1F1C1B" d="M234,184.5c0,0-0.2-0.1-0.2-0.1c0.6,1.7-0.3,3.1-1.1,4.4c-5.3,9-11.3,17.5-19.1,24.5
		c-0.7,0.6-1.3,1.3-2,2c-0.2-0.2-0.7-0.4-0.7-0.6c-0.7-3-1.8-5.8-3.8-8.3c-2.1-2.7-3.9-5.8-5.5-8.9c-0.5-1-0.7-2.8-0.1-3.6
		c2.9-4.5,4.6-9.7,8.4-13.7c1-1,2.2-1.2,3.4-1.1c0.9,0.1,2,0.1,2.7,0.7c2.9,2.2,6.6,2.2,9.7,3.8C228.4,185,231.2,184.6,234,184.5z"
		/>
	<path id="XMLID_450_" fill="#1B1818" d="M173.2,240.2c-0.4-6-0.7-12-2.9-17.7c-0.5-1.4-0.1-3.1-0.1-4.7c4.1-3.7,9.3-5.5,14-8.2
		c2.8-1.6,6.2-1.3,8.8,1.3c3.8,3.8,8.8,6.1,12.6,9.9c-8.9,7.8-18.7,14-29.6,18.6C175.1,239.8,174.1,239.9,173.2,240.2z"/>
	<path id="XMLID_449_" fill="#0A0505" d="M15.6,78.9c-0.1,2.7,0.8,4.8,3.3,6.4c3.7,2.4,7.6,4.7,10.7,8c6.6,3.6,5.3,4.9,2.7,10.6
		c-0.7,1.4-1.2,3-2,4.3c-0.3,0.5-1,0.9-1.5,1c-1.2,0.2-2.5,0.3-3.8,0.3c-3.8,0.1-7.7,0-11.5,0.1c-4.9,0-4.9,0.1-10.2,2.7
		c-0.7-0.8-1.5-1.8-2.3-2.7c-0.2-1.5-0.1-2.9,0.8-4.2C3.7,101.9,5,98.2,4.2,94c-0.2-0.6-0.1-1.2,0.3-1.7c2.1-1.4,2.1-3.4,1.7-5.6
		c0,0,0-0.1,0-0.1c2.1-1.3,2.3-3.3,1.9-5.5c0,0,0.1-0.3,0.1-0.3c1.6-0.9,2-2.2,1.7-3.9c0.2-0.6,0.4-1.2,0.6-1.8
		c1.7,0.1,3.4,0.1,5.1,0.2C15.6,76.5,15.6,77.7,15.6,78.9z"/>
	<path id="XMLID_448_" fill="#262321" d="M216.6,84.4c0.2-1.9,0.6-3.7,0.7-5.6c0.2-2.3-0.2-4.4-2.1-6c-0.5-0.4-0.7-1-1-1.6
		c-0.8-1.6-0.4-4.1,0.9-5.2c1.4-1.2,3-2.4,4.4-3.6c1.9-1.7,3.4-3.7,4.1-6.2c0.5-1.8,2.1-2.1,3.7-2.5c0,0,0.1,0.1,0.1,0.1
		c-0.2,2.9,1.1,4.8,3.8,5.7c0,0,0,0,0,0c0.5,0.7,0.9,1.3,1.4,2c0,0,0.3,0.7,0.3,0.7c-0.1,3.1,0.7,5.7,3.8,7c1.7,1.7,2.4,4,3,6.2
		c-0.7,0.8-0.7,1.7-0.4,2.7c0.5,1.5,0.9,3,1.3,4.5c-0.9,0.4-1,0.7-0.4,0.8c0.1,0,0.3-0.5,0.5-0.7c0.6,0,1.2-0.1,1.8-0.1
		c0.8,1.2,1.6,2.3,1.4,3.8c-8.8,0-17.6,0-26.4,0c-0.3-0.4-0.7-0.9-0.9-1.3C216.2,85,216.5,84.7,216.6,84.4z"/>
	<path id="XMLID_447_" fill="#060707" d="M0.3,126.8c1.2,0.3,2.6,0.3,3.6,0.9c4.9,3.3,10.2,4.9,16.1,4.8c1.9,0,3.8,0.1,5.7,0.2
		c1.7,0.1,3.2,1.4,3.3,2.9c0.1,3.2,0.1,6.3,0.1,9.5c0,1.4-1,2.3-2.1,2.9c-1.1,0.6-2.2,1.2-3.4,1.7c-2.3,1-4.7,1.9-7,2.9
		c-4.3,1.7-7.4,4.5-9.4,9.6c-2.2-8.2-4.8-15.5-4.8-23.4c0-1.6-0.5-3.1-1.8-4.2C-0.1,132-0.2,129.4,0.3,126.8z"/>
	<path id="XMLID_446_" fill="#272825" d="M81.2,28.9c2.5,2.3,2.2,5.1,1.6,8c-0.1,0.6-0.6,1.2-1.1,1.5c-1.6,1.1-3.2,2.1-4.9,3
		c-2.2,1.2-4.4,2.3-6.5,3.9c-4.2,3.3-8.4,2.2-11.4-0.3c-2-1.6-3.8-3.5-5.8-5c-3.8-3-7.8-0.7-9.2,3c-0.3,0.8-0.2,1.9,0.1,2.8
		c0.7,2.1,2.5,3.7,2.7,6.1c-0.3,0.3-0.6,0.6-0.9,0.8c-3.7-2.9-6.7-6.1-7-11.1c-0.1-1.3-0.8-2.2-1.9-2.9c0-0.6-0.1-1.2-0.2-1.8
		c3-4.2,6.9-7.5,11.4-10c0,0,0.6,0.6,0.6,0.6c-1.2,1.5-2.4,2.9-3.5,4.4c-0.4,0.6,0.2,2.2,0.9,2.3c1.5,0.2,3.1,0.5,4.7,0.5
		c3.1-0.1,5.5,1.2,7.4,3.6c0.6,0.7,1.2,1.5,1.7,2.2c1,1.5,2.4,1.9,4.1,2c1.9,0.1,3.8-0.1,5.4-1.2c1.6-1,3.2-2.1,4.9-2.7
		c2-0.7,2.9-2.2,3.9-3.9C79.4,32.8,78.9,30.1,81.2,28.9z"/>
	<path id="XMLID_445_" fill="#272825" d="M217.2,86.5c8.8,0,17.6,0,26.4,0c0.2,0.8,0.3,1.6,0.5,2.5c0.4,1,0.8,2.1,1.2,3.1
		c0.9,1.2,1,2.6,0.8,4c-0.6,0.7-1.4,1.3-1.7,2.2c-0.6,1.9-1.5,3.4-3.8,3.5c-1.9,0.1-3.5,1-5.2,2c-3.7,2.2-8.1,3.3-11.2,6.6
		c-0.6,0.6-1,1.6-1.3,2.4c-0.4,1.3-1.3,2.1-2.4,2.8c-0.3-0.9-0.7-1.8-0.8-2.7c-0.4-4,1.5-7,5.2-8.2c4.6-1.5,8.5-4.3,13.1-5.7
		c2.3-0.7,3.3-2.9,2.9-5.4c-0.1-0.6-0.2-1.3-0.3-1.9c-0.9-3.6-1.6-4.8-6.1-3.9c-1.6,0.3-3.1,0.8-4.6,1.3c-3.1,1-6.3,1.1-9.5,1
		C218.6,90.1,218,89.5,217.2,86.5z"/>
	<path id="XMLID_444_" fill="#272825" d="M58.2,19.6c3.3-2.8,7-4.9,11.2-6.2c0,0,0.5,0.7,0.5,0.7c-3.2,3.2-7.1,4.8-11.4,6L58.2,19.6
		z"/>
	<path id="XMLID_443_" fill="#292523" d="M54.6,228.4c-2.6-2-5.2-3.9-7.8-5.9c0,0,0.3-0.4,0.3-0.4c1.2,0.2,2.5,0.5,3.7,0.6
		c2.2,0.2,3.3,1.5,3.7,3.6c0.1,0.6,0.4,1.2,0.6,1.8L54.6,228.4z"/>
	<path id="XMLID_442_" fill="#292523" d="M4.2,94c0.8,4.2-0.5,7.9-2.4,11.5C1.9,101.5,1.8,97.5,4.2,94z"/>
	<path id="XMLID_441_" fill="#272825" d="M82.5,242.7c-0.8-2.3-0.8-2.3,1.7-2.6c2.3,1.6,4.5,3.2,6.7,4.8c0,0-0.3,0.7-0.3,0.7
		C87.8,244.9,84.9,244.4,82.5,242.7z"/>
	<path id="XMLID_440_" fill="#292523" d="M36.8,36.8c0.1,0.6,0.1,1.2,0.2,1.8c-1.2,2.1-3.1,3.5-5.2,4.5l-0.5-0.5
		C32.6,40.1,34.4,38.2,36.8,36.8z"/>
	<path id="XMLID_439_" fill="#292523" d="M15.6,75.3c-1.7-0.1-3.4-0.1-5.1-0.2c0.7-2.8,1.6-5.4,3.6-7.6c0,0,0.6,0.4,0.6,0.4
		c-0.5,2-1.2,4,1.1,5.4C15.7,73.9,15.7,74.6,15.6,75.3z"/>
	<path id="XMLID_438_" fill="#272825" d="M242.3,82.7c-0.6,0-1.2,0-1.8,0.1l-0.1-0.1c-0.4-1.5-0.8-3-1.3-4.5c-0.3-1-0.3-1.9,0.4-2.7
		C240.8,77.7,242.3,79.9,242.3,82.7z"/>
	<path id="XMLID_437_" fill="#272825" d="M236.5,69.2c-3.2-1.3-3.9-4-3.8-7C234.7,64,235.8,66.5,236.5,69.2z"/>
	<path id="XMLID_436_" fill="#292523" d="M17.6,61.4c0.6-2.3,1.8-4.3,3.7-5.9c0.2,0.2,0.5,0.4,0.7,0.6c-0.7,2.3-2.1,4.2-3.8,5.8
		L17.6,61.4z"/>
	<path id="XMLID_435_" fill="#272825" d="M190.7,19.1c2.3,0.6,4.3,1.9,5.8,3.8c0,0-0.6,0.7-0.6,0.7c-2.3-0.7-4.1-2.1-5.8-3.8
		L190.7,19.1z"/>
	<path id="XMLID_434_" fill="#292523" d="M21.3,55.6c0.7-2.3,2-4.2,4-5.6c0,0,0.7,0.6,0.7,0.6c-0.8,2.3-2.2,4.1-3.9,5.7
		C21.8,56,21.6,55.8,21.3,55.6z"/>
	<path id="XMLID_433_" fill="#272825" d="M231,59.5c-2.7-0.9-4-2.8-3.8-5.7C229.2,55.2,230.4,57.2,231,59.5z"/>
	<path id="XMLID_432_" fill="#272825" d="M199.8,25.3c1.8,0.7,3.3,1.7,4.3,3.4l-0.6,0.7c-1.9-0.6-3.2-1.9-4.2-3.6L199.8,25.3z"/>
	<path id="XMLID_431_" fill="#272825" d="M206.2,30.5c2.2,0.9,3.8,2.5,5.1,4.5c0,0-0.5,0.5-0.5,0.5c-2.1-1.1-3.8-2.5-5.3-4.3
		L206.2,30.5z"/>
	<path id="XMLID_430_" fill="#292523" d="M8.2,81c0.3,2.2,0.1,4.2-1.9,5.5C5.9,84.3,6.8,82.6,8.2,81z"/>
	<path id="XMLID_429_" fill="#292523" d="M6.3,86.7c0.4,2.2,0.3,4.2-1.7,5.6C4.1,90.1,5,88.3,6.3,86.7z"/>
	<path id="XMLID_428_" fill="#272825" d="M52.5,23.4c0.9-1.1,1.9-2.2,3.5-2.3l0.5,0.6c-1.2,0.7-2.4,1.5-3.6,2.2L52.5,23.4z"/>
	<path id="XMLID_427_" fill="#292523" d="M10,76.8c0.4,1.7-0.1,3-1.7,3.9C8,79.1,8.7,77.8,10,76.8z"/>
	<path id="XMLID_426_" fill="#292523" d="M27,47.8c0.3-1.6,1.3-2.5,2.6-3.3c0,0,0.5,0.4,0.5,0.4c-0.8,1.2-1.6,2.4-2.4,3.5
		C27.7,48.4,27,47.8,27,47.8z"/>
	<path id="XMLID_425_" fill="#262321" d="M245.4,92.1c-0.4-1-0.8-2.1-1.2-3.1C245,89.8,245.6,90.8,245.4,92.1z"/>
	<path id="XMLID_424_" fill="#292523" d="M14.1,67.5c0-1.6,1.1-2.7,2-3.7c0,0,0.5,0.4,0.5,0.4c-0.7,1.3-1.3,2.5-2,3.8L14.1,67.5z"/>
	<path id="XMLID_423_" fill="#272825" d="M196.5,23c1.6,0.2,2.5,1.2,3.4,2.3c0,0-0.5,0.6-0.5,0.6c-1.2-0.7-2.3-1.5-3.5-2.2L196.5,23
		z"/>
	<path id="XMLID_422_" fill="#463935" d="M60.2,232.2c-1.6-0.6-3.2-1.3-4.2-2.8l0.3-0.3c1.4,0.8,2.9,1.7,4.3,2.5L60.2,232.2z"/>
	<path id="XMLID_421_" fill="#463935" d="M63.8,234.3c-1.5-0.1-2.5-1.2-3.6-2.1c0,0,0.4-0.6,0.4-0.6c1.2,0.7,2.5,1.4,3.7,2.1
		L63.8,234.3z"/>
	<path id="XMLID_420_" fill="#292523" d="M25.3,49.9c0.1-1.1,0.7-1.8,1.7-2.1c0,0,0.7,0.6,0.7,0.6c-0.6,0.7-1.1,1.4-1.7,2L25.3,49.9
		z"/>
	<path id="XMLID_419_" fill="#292523" d="M29.6,44.5c0.2-1,0.8-1.6,1.7-2c0,0,0.5,0.5,0.5,0.5c-0.6,0.6-1.1,1.2-1.7,1.8L29.6,44.5z"
		/>
	<path id="XMLID_418_" fill="#A2A49C" d="M249.2,140.5c-0.9-1.3-0.9-1.3,0.4-2.5C250.2,139,250.1,139.8,249.2,140.5z"/>
	<path id="XMLID_417_" fill="#272825" d="M232.4,61.5c-0.5-0.7-0.9-1.3-1.4-2C231.9,59.9,232.4,60.5,232.4,61.5z"/>
	<path id="XMLID_416_" fill="#272825" d="M204.1,28.7c1,0.2,1.7,0.7,2.1,1.8c0,0-0.6,0.7-0.6,0.7c-0.7-0.6-1.3-1.2-2-1.7L204.1,28.7
		z"/>
	<path id="XMLID_415_" fill="#272825" d="M48.2,26.8c0.3-1,1.1-1.6,2.1-1.7c0,0,0.5,0.5,0.5,0.5c-0.7,0.6-1.3,1.2-2,1.8L48.2,26.8z"
		/>
	<path id="XMLID_414_" fill="#272825" d="M50.4,25.1c0.4-1,1-1.6,2.1-1.6c0,0,0.4,0.5,0.4,0.5c-0.7,0.6-1.3,1.1-2,1.7L50.4,25.1z"/>
	<path id="XMLID_413_" fill="#292523" d="M46.7,222.5c-1.1,0-1.7-0.6-2.1-1.6c0,0,0.3-0.4,0.3-0.4c0.7,0.5,1.4,1,2,1.6L46.7,222.5z"
		/>
	<path id="XMLID_412_" fill="#292523" d="M16.1,63.7c0-1.1,0.5-1.8,1.5-2.3c0,0,0.6,0.6,0.6,0.6c-0.5,0.7-1,1.4-1.6,2.1
		C16.6,64.1,16.1,63.7,16.1,63.7z"/>
	<path id="XMLID_411_" fill="#272825" d="M56,21.1c0.4-1,1.1-1.5,2.2-1.5c0,0,0.4,0.5,0.4,0.5c-0.7,0.5-1.4,1.1-2.1,1.6L56,21.1z"/>
	<path id="XMLID_410_" fill="#292523" d="M56,229.4c-0.7-0.1-1.2-0.4-1.4-1.1c0,0,0.4-0.4,0.4-0.4c0.5,0.3,0.9,0.7,1.3,1.1L56,229.4
		z"/>
	<path id="XMLID_409_" fill="#F0B708" d="M180.9,107.9c4.7,10.8,4.3,21.9,1.3,33c-0.3,1.1-1.4,2-2.1,3c-0.6-0.7-1.2-1.4-1.8-2
		c-0.4,0.1-0.8,0.1-1,0.3c-1.7,2.3-3.5,4.6-5,7c-0.9,1.4-2.2,2.2-3.7,2.8c-3.7,1.5-7.2,1.8-11.1,0.4c-2.7-1-5.3-2-7.4-3.9
		c-0.4-0.4-1.2-0.4-1.8-0.6c-0.4-2-1.6-3.3-3.3-4.2c-0.2-1.5-0.5-3-2.1-3.7c-0.4-1.7-0.7-3.5-1.1-5.2c0.9-4.6,0.9-9.3,0.1-13.9
		c0.2-1.9,0.4-3.7,0.6-5.6c1.5-0.9,1.9-2.5,2.2-4.1c0.9-5.1,2.5-9.9,5-14.4c0.3-0.5,0.8-1.1,1.3-1.3c0.5-0.2,1.5-0.1,1.7,0.2
		c1.3,2.5,2.5,5.1,3.8,7.7c1.1,2,2.8,3.5,5,4.1c2.1,0.6,4.3,1.3,6.6,1c3.1-0.5,6.3-1.1,9.4-1.7C178.5,107.2,179.7,107.6,180.9,107.9
		z"/>
	<path id="XMLID_405_" fill="#372C16" d="M148.2,147.9c0.6,0.2,1.4,0.2,1.8,0.6c2.2,1.9,4.7,3,7.4,3.9c3.9,1.4,7.4,1.1,11.1-0.4
		c1.5-0.6,2.8-1.4,3.7-2.8c1.6-2.4,3.3-4.7,5-7c0.1-0.2,0.6-0.2,1-0.3c0.6,0.6,1.2,1.3,1.8,2c-0.4,1.3-0.8,2.6-1.2,4
		c-2.3,1.1-2.6,3.5-3.4,5.4c-0.9,2.1-2.4,3.6-4.2,4.9c-3.2,2.3-6.8,3.4-10.6,3.4c-2.8,0-5.7-0.2-8.5-0.3l0,0
		c0.3,0.6,0.5,1.2,0.9,1.7c3.5,3.9,7.6,6.7,13.2,5.9c1.2-0.2,2.5,0,3.7,0.1c0.3,2.4-1.6,2.6-2.7,3.5c-3.9,3-8.1,3.2-12.5,1
		c-1.4-0.7-2.8-1.5-4.3-2.1c-1.1-0.6-2.3-1-3.5-1.6c-1.2-0.6-2.4-1.3-4.1-2.1c0,2.1-0.2,3.7,0.1,5.2c0.1,0.8,1.1,1.4,1.7,2.1
		c0.2,1.1,0.5,2.1,0.7,3.2c1.6,4.1,1.8,4.3,6.6,4.4c0,0,0.2,0.1,0.2,0.1c0,0.9,0,1.9-0.1,2.8c-0.1,1-0.8,1.7-1.7,2
		c-0.6,0.2-1.3,0.3-1.9,0.1c-4.2-1.3-8.6-2.4-10.5-7.2c-2.2-1.5-3.1-3.9-4.2-6.1c-0.1-0.2-0.5-0.2-0.8-0.2c-0.3,0-0.8,0.1-0.8,0.3
		c-1.3,2.7-1.7,5.5-0.2,8.2c2.2,3.9,4.7,7.5,8.9,9.5c0.3,0.5,0.7,1,0.9,1.5c0.5,1.4-0.2,2.5-1.4,2.5c-1.2,0-2.3-0.3-3.5-0.5
		c-1-1.2-2.4-1.6-3.9-1.4l-0.1-0.1c-0.3-1.1-1-1.7-2.2-1.7c-0.9-0.3-2-0.3-2.5-0.9c-2.8-2.7-5.7-5.3-6.5-9.4
		c-0.1-4.5-0.1-8.9-0.2-13.4c0-1.7-1-2.9-2.6-3.6c-0.8-0.4-1.6-1-2.5-1.3c-0.5-0.2-1.3,0-1.7,0.3c-1.1,0.9-1,3.4,0.3,4.1
		c0.8,0.5,1.8,0.5,2.7,0.7c-0.2,2-0.4,4.1-0.6,6.1c-1.9-0.4-3.8-0.7-5.7-1.1c-1.1-3-0.5-6.1-0.1-9.2c0.4-3.1,0.9-6.1,0.5-9.2
		c2.8-0.8,2.8-0.8,2.5-3.3c0-0.3-0.1-0.6-0.1-0.9c-0.3-2.3,1-3.2,3-3.6c3.9,0.9,3.9,0.9,4.2,4.6c0,0.3,0,0.6,0,0.9
		c-0.8,0.3-1.7,0.6-2.4,1.1c-0.8,0.5-0.6,2.1,0.3,2.2c0.5,0.1,1.3,0,1.6-0.4c0.5-0.7,0.7-1.6,1.1-2.4c2.1-0.5,4.1-0.9,6.2-1.4
		c1.5,2.3,2.9,4.4,4.3,6.6c1.4-0.3,2.6-0.8,3.8-0.8c1.2,0,2.4,0.5,3.7,0.5c0.9,0,2-0.2,2.5-0.8c1.1-1.1,2.4-1.9,3.8-2.6
		c2.1-1,2.2-1.8,0.7-3.5c-1.1-1.2-1.9-2.4-2-4.1C145.8,147.9,147,147.9,148.2,147.9z M127.2,177c0-0.9,0-1.8-0.2-2.7
		c-0.1-0.6-0.5-1.1-0.8-1.6c-0.3,0.5-0.9,1-1,1.5c-0.2,2.1-0.8,4.4,0.5,6.4c0.1,0.1,0.5,0.2,0.6,0.1
		C127.6,179.6,127.1,178.3,127.2,177z M130.4,163.8c-0.2-0.5-0.3-1.3-0.7-1.5c-0.4-0.2-1.2,0-1.6,0.4c-0.7,0.7-0.2,2,0.8,2
		C129.4,164.6,129.9,164,130.4,163.8z"/>
	<path id="XMLID_401_" fill="#857872" d="M94,86.1c1.8-4.7,3.7-9.5,5.4-14.2c1-2.8,1.1-5.4-0.3-8.3c-2.4-5.1-1.8-6.5,3.3-10.1
		c1.8,0.3,3,2.6,5.2,2c0.3,1.9,0.4,3.8,0.8,5.7c0.2,1.3,1.4,2,2.9,1.9c1.2-0.1,2.4-1.4,2.4-2.5c0-2-1-3.7-2.1-5.2
		c-0.9-1.2-2.2-1.2-3.4-1.3c-0.1-1.3,0-2.6,1.2-3.3c1.1-0.6,2.4-0.6,3.5,0.1c0.5,0.3,1,0.8,1.5,1.1c0.5,0.3,1.1,0.6,1.8,1.1
		c0.6-0.5,1.3-1.1,2.1-1.4c0.8-0.4,2-1,2.5-0.7c2.3,1.3,4.2,0.6,6.2-0.6c0.5-0.3,1.2-0.5,1.7-0.7c0.3,0.3,0.6,0.6,0.9,0.9
		c-1,1.2-2,2.4-2.9,3.6c-0.4,0.5-0.7,1-1,1.5c-0.7,1.3,0.3,3.7,1.6,3.8c3.4,0.3,6.9,0.7,10.2-0.6c0.3-0.1,0.4-1.1,0.3-1.7
		c-0.2-1.1-1.3-1.4-2.1-1.6c-2.8-0.7-4-2.8-4.9-5.2c0.3-0.3,0.6-0.6,0.9-0.9c1.7,0.8,3.3,1.6,5,2.3c1.8,0.7,3.5,1,5.3-0.2
		c1.1-0.8,2.3-0.7,3.2,0.4c0.4,0.5,0.8,0.9,1.2,1.4c1.4,2.2,3.5,2.3,5.7,2.1c0.2,2.1,0.3,4.2,0.6,6.3c0.1,0.4,0.8,0.8,1.3,0.9
		c0.5,0,1.2-0.3,1.5-0.7c1.3-1.9,0.3-4.1,0.6-6.2c2.6,0.1,4.8,1.2,6.8,2.9c3.5,3,3.8,6.1,0.5,9.5c-0.4,0.4-1,0.7-1.6,1
		c-1.8,0.5-3.5,1-5.3,1.5c0,0-0.3-0.1-0.3-0.1c-2.9-2.1-6.2-3.3-9.8-3.3c-9.5-1.3-19.1-0.9-28.7-0.5c-5.1,0.2-10.1,1.4-14.5,4.1
		c-1.5,3.3-2.9,6.5-4.2,9.7c-0.7,1.8-1,3.7-1.5,5.5C96.3,86.3,95.2,86.2,94,86.1z M121.6,58.4c-0.1-0.7-0.1-1.4-0.3-1.9
		c-0.2-0.5-0.6-1.2-1-1.2c-0.5-0.1-1.2,0.3-1.6,0.7c-1.5,2-1.3,3.7,0.4,5.7c0.2,0.2,0.6,0.4,0.8,0.3c0.5-0.2,1.1-0.5,1.2-0.9
		C121.4,60.1,121.4,59.2,121.6,58.4z M145.2,59.1c-0.2-0.9-0.3-1.9-0.5-2.8c-0.1-0.3-0.4-0.7-0.5-0.7c-0.5,0-1.3,0.1-1.6,0.5
		c-1.6,2.2-1.3,4.2,0.7,5.7c0.2,0.1,0.7,0.1,0.8,0C144.5,60.9,144.8,60,145.2,59.1z"/>
	<path id="XMLID_400_" fill="#EDB60E" d="M72.7,135.9c-0.7-1-1.8-2-2-3.1c-1.1-5.2-1.3-10.7-0.2-15.8c1.2-5.4,2.9-10.9,7.4-14.9
		c4-0.1,7.9-0.2,11.9-0.3c1.5-0.1,3-0.4,4.1-1.8c1.4-0.6,2.8-1.3,4.3-1.8c1-0.4,2,0.2,2.4,1c0.8,1.7,1.3,3.5,1.7,5.3
		c0.3,1.3,0.9,2.3,1.9,3.1c0.2,1.8,0.3,3.7,0.5,5.5c-0.1,0.9-0.2,1.9-0.3,2.8c-0.3,4.3-0.3,4.3-3.9,5.1c-6.5,1.5-12.5,3.8-17.9,7.9
		C79.5,131.4,76.5,134.3,72.7,135.9z"/>
	<path id="XMLID_399_" fill="#352909" d="M116.9,148c-2,0.4-3.3,1.3-3,3.6c0,0.3,0.1,0.6,0.1,0.9c0.3,2.5,0.3,2.5-2.5,3.3
		c-0.8,0.4-2,0.5-2.5,1.2c-1.8,2.5-4,4.7-5.4,7.5c-2.3,4.6-3.6,9.2-3.8,14.3c-0.7,0.9-1.5,1.9-2.3,2.8c-0.8,0.9-1.9,1.4-3.2,1.2
		c-0.3-2.7-0.6-5.5-0.9-8.2c0.2-1.2,0.5-2.5,0.6-3.7c0.3-8.4,3.1-15.5,9.7-20.9c1-0.8,1.6-1.9,2.4-2.8c-0.8-1.3-2.1-1.3-3.3-1.1
		c-2.3,0.4-4.2,1.6-5.7,3.2c-2.8,2.9-6.7,5-7.4,9.6c-1.4,1.6-2.1,3.9-4,5.1c-0.2,0.1-0.7,0-0.8-0.1c-1.2-3.1-1-6.3,0-9.4
		c1.4-4.2,2.6-8.5,5.6-12c1.3-0.4,2.8-0.4,3.2-2.1c0.4-0.3,0.7-0.7,0.9-1.2c2.6-0.4,4.8-1.6,6-4.1c1.1,0,2.2,0,3.3,0
		c0.7,0.3,1.5,1.1,2.1,0.9c0.6-0.1,1-1.2,1.5-1.8c-0.1-0.4-0.1-0.8-0.1-1.3c0.3,0,0.7,0,0.9-0.1c0.5-0.3,1-0.6,1.4-0.9
		c-0.4-0.3-0.8-0.7-1.3-0.8c-0.9-0.2-1.9-0.3-2.8-0.4c0.6-0.7,1.2-1.5,1.9-2.1c1.5-1.3,3.3-1.5,5.3-1.2c2.7,0.4,4.7,2.8,3.9,5.3
		c-0.9,2.8-0.7,5.3,0.1,8.1C117.6,142.9,117,145.5,116.9,148z"/>
	<path id="XMLID_398_" fill="#0A0505" d="M56.5,21.7c0.7-0.5,1.4-1.1,2.1-1.6c4.2-1.2,8.2-2.8,11.4-6c1.8-0.5,3.5-1.1,5.3-1.6
		c2.6-0.7,3.9,0.2,3,2.5c-0.9,2.4-1.2,4.8-0.8,7.3c0.3,1.8,1.5,2.6,3.2,2.8c0.2,1.2,0.4,2.5,0.6,3.7c-2.3,1.2-1.8,3.9-2.8,5.8
		c-0.9,1.7-1.9,3.2-3.9,3.9c-1.7,0.6-3.3,1.7-4.9,2.7c-1.7,1.1-3.5,1.3-5.4,1.2c-1.6-0.1-3.1-0.5-4.1-2c-0.5-0.8-1.1-1.5-1.7-2.2
		c-1.9-2.3-4.3-3.6-7.4-3.6c-1.5,0-3.1-0.3-4.7-0.5c-0.7-0.1-1.4-1.7-0.9-2.3c1.1-1.5,2.3-3,3.5-4.4c0.7-0.6,1.3-1.2,2-1.8
		c0.7-0.6,1.3-1.1,2-1.7C54.1,23.2,55.3,22.4,56.5,21.7z"/>
	<path id="XMLID_397_" fill="#CEA219" d="M104.1,134.8c-1.1,0-2.2,0-3.3,0c-4.1,0-4.5,0.3-6,4.1c-0.2,0.5-0.4,0.9-0.9,1.2
		c-1.5,0.1-2.7,0.6-3.2,2.1c-3,3.5-4.2,7.8-5.6,12c-1,3-1.2,6.2,0,9.4c0,0.1,0.6,0.2,0.8,0.1c1.9-1.2,2.6-3.5,4-5.1
		c0.7-4.6,4.6-6.7,7.4-9.6c1.6-1.6,3.5-2.8,5.7-3.2c1.2-0.2,2.5-0.2,3.3,1.1c-0.8,0.9-1.5,2-2.4,2.8c-6.6,5.4-9.5,12.5-9.7,20.9
		c0,1.2-0.4,2.5-0.6,3.7c-3,0-4.9-2.8-7.9-3c-1.2-0.1-2.2-1.3-2.6-2.6c-1.1-3.3-1.6-6.9-4.2-9.5c-0.6-0.6-0.9-1.8-0.9-2.7
		c-0.2-4.4-2.7-7.7-4.7-11.3c0.5-0.7,0.8-1.9,1.5-2.2c4.4-2.1,8.6-4.6,12.6-7.4c0.7-0.5,1.7-0.6,2.6-0.9c1.6-0.2,3.3-0.1,4.5-1.5
		c4.3-1.4,8.8-0.6,13.2-0.6c0,0.4,0.1,0.8,0.1,1.3C106.5,134.3,105.3,134.5,104.1,134.8z"/>
	<path id="XMLID_394_" fill="#4B3A10" d="M156.4,70.8c1.8-0.5,3.5-1,5.3-1.5c0.2,3.4,0.5,6.8,0.7,10.2c-1.3,4.7-0.8,9.4,0.4,14.1
		c0.9,3.6,6.1,6.7,9.8,5.8c2.1-0.5,4.4-0.8,5.9-2.7c2.1-1.6,4.5-3.1,4.6-6.2c1.2,0,2.6-0.2,3.2,1.2c0.6,1.2,0.6,2.5-0.1,3.6
		c-2.1,3.4-3.9,7-7.5,9.2c-0.7,0.4-0.9,1.5-1.3,2.3c-3.1,0.6-6.2,1.2-9.4,1.7c-2.3,0.4-4.4-0.3-6.6-1c-2.3-0.7-4-2.1-5-4.1
		c-1.3-2.5-2.4-5.1-3.8-7.7c-0.2-0.3-1.2-0.4-1.7-0.2c-0.5,0.2-1,0.8-1.3,1.3c-2.5,4.5-4.1,9.3-5,14.4c-0.3,1.6-0.7,3.1-2.2,4.1
		c-0.5-0.8-1.4-1.5-1.5-2.3c-0.1-1.5,0.2-3.2,0.6-4.7c0.7-2.4,1.8-4.8,2.7-7.1c-0.4-5.2,3.3-8.8,5.1-13.1c0.5-1.2,2.1-1.2,3.4-1.1
		c1.4,0.1,2.5,1,2.8,2.2c0.5,2.5,0.9,5,1.4,7.4c0.1,0.2,1,0.3,1.6,0.3c0.2,0,0.6-0.5,0.6-0.7c-0.2-3.1-1.4-6.1-1.1-9.4
		C158.4,81.4,157.9,76.1,156.4,70.8z M167.8,102.6c-1.2-1.1-2.7-1-4.1-0.5c-0.3,0.1-0.6,0.4-0.6,0.6c0,0.2,0.3,0.6,0.5,0.7
		c1.1,0.2,2.3,0.3,3.4,0.4c0.2,0,0.5-0.3,0.7-0.5C167.8,103.1,167.8,102.8,167.8,102.6z"/>
	<path id="XMLID_393_" fill="#5A5B45" d="M93.8,99.9c-1,1.3-2.5,1.7-4.1,1.8c-4,0.2-7.9,0.2-11.9,0.3c-1.1-1.1-2.1-2.4-3.4-3.4
		c-5.1-3.9-6.1-9.6-6.2-15.4c0-3.1,1-6.3,2.2-9.3c1.1-2.9,3-5.6,4.6-8.3c0.1-0.2,0.6-0.2,0.8-0.2c0.2,0,0.6,0.2,0.6,0.4
		c0.4,2.2,0.3,4.5-0.6,6.6c-2.1,5.5-1.1,10.7,2,15.5c0.6,1,1.8,1.8,2.9,2.4c2,1.1,4.2,1.2,6.5,0.7c2-0.4,3.3-1.6,4.4-3.3
		c0.5-0.7,1.5-1.1,2.3-1.6c1.1,0.1,2.3,0.2,3.4,0.3c-2.6,2.6-4.2,5.7-4,9.5C92.4,97.4,92.3,98.7,93.8,99.9z"/>
	<path id="XMLID_392_" fill="#92937E" d="M152.1,161.4c2.8,0.1,5.7,0.3,8.5,0.3c3.9,0,7.4-1.1,10.6-3.4c1.9-1.3,3.3-2.8,4.2-4.9
		c0.8-2,1.1-4.3,3.4-5.4c0.8,2.6,0,5.1-1.1,7.4c-0.9,1.9-0.9,3.7,0.1,5.5c0.8,1.5,0.5,3-0.2,4.5c-3.1,6-7.7,10.1-14.4,11.6
		c-1.6,0.4-3.1,0.6-4.7,0.1c-2.1-0.7-4.4-1-6.4-1.9c-2.5-1.1-5-0.8-7.5-0.3c-0.6-0.7-1.5-1.3-1.7-2.1c-0.3-1.5-0.1-3.1-0.1-5.2
		c1.7,0.9,2.9,1.5,4.1,2.1c1.1,0.6,2.3,1,3.5,1.6c1.4,0.7,2.8,1.4,4.3,2.1c4.4,2.2,8.6,2,12.5-1c1.1-0.9,3-1.1,2.7-3.5
		c-1.2,0-2.5-0.2-3.7-0.1c-5.7,0.8-9.7-2-13.2-5.9C152.6,162.6,152.4,161.9,152.1,161.4C152.1,161.4,152.1,161.4,152.1,161.4z"/>
	<path id="XMLID_391_" fill="#67511D" d="M89.9,134.8c-0.9,0.3-1.9,0.4-2.6,0.9c-4,2.7-8.2,5.2-12.6,7.4c-0.7,0.3-1,1.5-1.5,2.2
		c-2.4,1.5-4.9,3-7.3,4.4c-0.2-0.2-0.7-0.6-0.6-0.6c3.2-4,4.3-9.2,7.4-13.3c3.8-1.5,6.8-4.4,10-6.8c5.4-4.2,11.4-6.4,17.9-7.9
		c3.6-0.8,3.6-0.8,3.9-5.1c0.1-0.9,0.2-1.9,0.3-2.8c1.8,0.2,2.7,1.3,3.3,2.9c0.5,1.5,1.1,2.9,0.6,4.5c-0.7,2.5-2.1,4-4.4,4.1
		c-3.5,0.1-6.7,1-9.9,2.5c-2,0.9-4.1,1.4-6.1,2c-0.2,1.7,1,2.1,2.2,2.6c0,0.6-0.1,1.3-0.1,1.9C89.8,133.9,89.7,134.3,89.9,134.8z"/>
	<path id="XMLID_390_" fill="#868474" d="M177.2,106.8c0.4-0.8,0.6-1.9,1.3-2.3c3.7-2.1,5.4-5.8,7.5-9.2c0.7-1.1,0.6-2.4,0.1-3.6
		c-0.7-1.4-2-1.2-3.2-1.2c-0.1-6.3-0.2-12.6-0.2-19c0-2.1,0.8-3.3,1.6-2.8c0.7,0.5,1.4,1.1,1.8,1.9c0.9,2,1.6,4.1,2.5,6.1
		c1.2,2.6,1.6,5.4,1.8,8.3c0.4,6.3-1.4,11.8-5.2,16.8c-1.5,2-2.9,4.1-4.3,6.1C179.7,107.6,178.5,107.2,177.2,106.8z"/>
	<path id="XMLID_389_" fill="#92937E" d="M140.8,192c-4.1-2.1-6.7-5.7-8.9-9.5c-1.5-2.7-1.1-5.5,0.2-8.2c0.1-0.2,0.6-0.3,0.8-0.3
		c0.3,0,0.7,0.1,0.8,0.2c1.1,2.2,2,4.6,4.2,6.1c1.9,4.8,6.2,5.9,10.5,7.2c0.6,0.2,1.3,0.1,1.9-0.1c0.9-0.3,1.6-0.9,1.7-2
		c0.1-0.9,0.1-1.9,0.1-2.8c2.6-0.5,5-0.1,7.3,1.1c1,0.5,2,2.4,1.5,3.2c-0.5,0.8-1.2,1.5-1.9,1.9c-0.8,0.5-1.8,0.7-2.7,0.8
		c-1.9,0.1-3.8,0.1-5.7,0.1c-1.9,0-3.8,0-5.7,0.3c-0.7,0.1-1.3,1.1-2,1.7C142.2,191.8,141.5,191.9,140.8,192z"/>
	<path id="XMLID_388_" fill="#E1AD21" d="M178.4,96.7c-1.5,1.9-3.8,2.2-5.9,2.7c-3.7,0.9-8.9-2.2-9.8-5.8c-1.2-4.7-1.6-9.4-0.4-14.1
		c0.8,0.3,1.8,0.4,2.5,1c3.7,3.3,6.8,7.2,9.1,11.6C174.9,94.2,176.6,95.4,178.4,96.7z"/>
	<path id="XMLID_387_" fill="#B48F06" d="M99.9,178.7c0.2-5,1.6-9.7,3.8-14.3c1.4-2.9,3.6-5,5.4-7.5c0.5-0.6,1.6-0.8,2.5-1.2
		c0.4,3.1-0.1,6.1-0.5,9.2c-0.4,3-0.9,6.1,0.1,9.2c-0.7,1.2-0.8,2.4-0.5,3.8c-1,0.4-2,0.8-3,1.2c-1.9-0.1-3.9-0.7-5.8,0.1
		C101.3,179,100.6,178.8,99.9,178.7z"/>
	<path id="XMLID_386_" fill="#272825" d="M46.7,51.8c0.9,0.8,2.2,1.5,2.7,2.5c1.2,2.2,2,4.6,3,6.9c-2.3,4.8-4.5,9.3-6.8,13.8
		c-0.6,1.2-1.9,1.7-3.2,1.7c-2.9,0.2-5.9,0.3-8.2-1.5c-1.9-1.5-4.2-1.3-6.1-2.5c0.1-0.8-0.2-1.3-0.9-1.3c-2.5,0-4.9,0-7.4,0.1
		l-0.6-0.6c0.8-0.5,1.6-1.3,2.4-1.4c1.9-0.2,3.8-0.2,5.7-0.1c2.3,0,4.3,0.5,6,2.3c1.7,1.7,4.1,1.5,6.3,1.4c1.4-0.1,2.4-0.8,3-2
		c0.8-1.7,1.4-3.5,2.2-5.2c1-2,2.1-3.8,3.2-5.9c-0.4-1.2-0.9-2.4-1.3-3.5c-0.4-1.2-0.7-2.4-1.1-3.7C46.1,52.3,46.4,52,46.7,51.8z"/>
	<path id="XMLID_385_" fill="#372C16" d="M107.7,179.1c1-0.4,2-0.8,3-1.2c0.6,1.1,1.1,2.1,1.7,3.3c1.5-1,3-1.9,4.5-2.8
		c0.3,1.4,0.5,2.8,0.8,4.2c0.2,2.5,0.3,5.1,0.5,7.6c0.1,1.4,1,2.3,2.3,2.7c0.5,2.2,1.1,4.5,1.6,6.7c-2.1,2.4-2.2,2.5-4,0.8
		c-0.9-0.8-1.6-1.7-2.9-1.8c-0.1-0.5-0.3-0.9-0.6-1.3c-0.5-4.7-3.3-8.6-4.5-13c-0.2-0.7-1.3-1.2-2-1.8
		C108,181.3,107.8,180.2,107.7,179.1z"/>
	<path id="XMLID_384_" fill="#A2A49C" d="M99.9,178.7c0.7,0.2,1.4,0.3,2,0.5c0,4.7,0,9.5-0.1,14.2c0,0.9-0.6,1.8-1,2.6
		c-0.1,0.2-0.5,0.5-0.8,0.5c-0.6-0.1-1.4-0.2-1.6-0.5c-1.5-3.5-2.9-7-4.2-10.5c-0.3-0.8,0.1-1.9,0.1-2.8c1.3,0.2,2.4-0.2,3.2-1.2
		C98.4,180.5,99.2,179.6,99.9,178.7z"/>
	<path id="XMLID_383_" fill="#272825" d="M221.4,123c2.5,0,5.1,0.1,7.6,0c3.2,0,6.3,0,8.7,2.8c0.9,1,2.9,1,4.4,1.5
		c0.1,0,0.2,0.5,0.1,0.6c-0.1,0.3-0.4,0.6-0.6,0.6c-1.6,0.1-3.2,0.2-4.8,0.2c-4.1,0.1-8-0.8-11.8-2.1
		C223.4,126.1,221.6,125.2,221.4,123z"/>
	<path id="XMLID_382_" fill="#857872" d="M140.8,192c0.7-0.1,1.5-0.2,2.2-0.3c1.5,0.5,3.3,0.6,4.4,1.6c1.5,1.2,2.9,2.3,4.7,3.1
		c0.7,0.3,0.7,1,0.3,1.6c-0.2,0.2-0.4,0.5-0.6,0.7c-2,1.1-4.3,0.9-6.5,1c-3.6,0.2-6.9-0.6-9.9-2.7c-0.1-0.3-0.2-0.7-0.3-1.1
		c0.6-0.1,1.2-0.2,1.7-0.3c1.2,0.2,2.3,0.4,3.5,0.5c1.2,0,1.9-1.1,1.4-2.5C141.5,193,141.1,192.5,140.8,192z"/>
	<path id="XMLID_381_" fill="#A2A49C" d="M135,195.9c0.1,0.4,0.2,0.7,0.3,1.1c-2.7,0.9-4.8-0.6-6.9-1.7c-2.2-1.1-3.3-3.7-6-4.3
		c-0.6,0.6-1.3,1.2-1.9,1.8c-1.3-0.4-2.2-1.3-2.3-2.7c-0.2-2.5-0.3-5.1-0.5-7.6c1.3-0.1,2.6-0.2,3.9-0.3c0.8,4.1,3.7,6.7,6.5,9.4
		c0.6,0.6,1.7,0.6,2.5,0.9c0.7,0.6,1.5,1.1,2.2,1.7c0,0,0.1,0.1,0.1,0.1C133.1,195.3,134.1,195.6,135,195.9z"/>
	<path id="XMLID_380_" fill="#A2A49C" d="M115.2,198.6c1.3,0.1,2,1,2.9,1.8c1.8,1.7,1.9,1.6,4-0.8c0.8,0.4,2.1,0.6,2.4,1.2
		c1.1,2.6,2,5.3,2.7,8c0.2,0.8-0.4,1.8-0.6,2.7c-0.5,0-0.8,0.1-1.1,0c-3.6-2.1-6.4-5.1-8.8-8.5C115.9,201.7,115.7,200.1,115.2,198.6
		z"/>
	<path id="XMLID_379_" fill="#463935" d="M108.1,53.9c1.3,0.1,2.6,0.2,3.4,1.3c1.2,1.6,2.1,3.2,2.1,5.2c0,1.1-1.1,2.4-2.4,2.5
		c-1.4,0.2-2.6-0.6-2.9-1.9c-0.3-1.9-0.5-3.8-0.8-5.7C107.7,54.9,107.8,54.4,108.1,53.9z"/>
	<path id="XMLID_378_" fill="#A2A49C" d="M108.1,182.5c0.7,0.6,1.8,1.1,2,1.8c1.2,4.5,3.9,8.4,4.5,13c-0.6-0.2-1.3-0.2-1.6-0.6
		c-2.2-2.6-3.8-5.6-4.6-8.8C107.8,186.2,108.1,184.3,108.1,182.5z"/>
	<path id="XMLID_377_" fill="#463935" d="M155.9,55.8c-0.3,2.1,0.7,4.3-0.6,6.2c-0.3,0.4-1,0.7-1.5,0.7c-0.5,0-1.2-0.5-1.3-0.9
		c-0.3-2.1-0.4-4.2-0.6-6.3c0.2-0.6,0.3-1.2,0.6-1.7c0.6-1,1.6-1.2,2.1-0.4C155.2,54.1,155.5,55,155.9,55.8z"/>
	<path id="XMLID_376_" fill="#272825" d="M15.6,75.3c0.1-0.7,0.1-1.3,0.2-2c1.2-0.8,2.3-1.6,3.5-2.5c0,0,0.6,0.6,0.6,0.6
		c-0.1,0.4-0.2,0.9-0.3,1.3c-0.4,2.1-0.7,4.2-2.5,5.6c-0.4,0.4-0.9,0.6-1.5,0.6C15.6,77.7,15.6,76.5,15.6,75.3z"/>
	<path id="XMLID_375_" fill="#92937E" d="M151.9,182.6c-4.8-0.2-5.1-0.3-6.6-4.4C148.2,178.7,150.7,179.6,151.9,182.6z"/>
	<path id="XMLID_374_" fill="#292523" d="M19.6,72.7c0.1-0.4,0.2-0.9,0.3-1.3c2.5,0,4.9-0.1,7.4-0.1c0.7,0,1,0.6,0.9,1.3
		c-1.2-0.1-2.3-0.1-3.5-0.2C23,72.2,21.2,72,19.6,72.7z"/>
	<path id="XMLID_373_" fill="#857872" d="M128.6,49.6c1.4-1.3,1.4-1.3,2.9,0c-0.3,0.3-0.6,0.6-0.9,0.9c-0.4-0.1-0.7-0.1-1.1,0
		C129.2,50.2,128.9,49.9,128.6,49.6z"/>
	<path id="XMLID_372_" fill="#0A0D0D" d="M56.2,229.1c-0.4-0.4-0.8-0.8-1.3-1.1c-0.2-0.6-0.4-1.2-0.6-1.8c-0.4-2-1.5-3.4-3.7-3.6
		c-1.2-0.1-2.5-0.4-3.7-0.6c-0.7-0.5-1.4-1-2-1.6c-1.2-1.5-2.5-2.9-3.4-4.5c-0.4-0.6-0.2-2.1,0.3-2.6c3.8-3.8,7.9-7.3,13-9.2
		c1.8-0.7,4-1.1,5.5,0.1c3.4,3,7.8,4,11.2,6.9c1.3,1.1,1.8,2.5,2.2,4.1c-0.4,3.4-0.4,6.9-2.5,9.9c-1.4,2.2-1.6,4.7-2.1,7.2
		c-0.2,1-1.4,1.6-3,1.6c-0.6,0-1.2-0.2-1.9-0.3c-1.2-0.7-2.5-1.4-3.7-2.1C59.1,230.8,57.7,230,56.2,229.1z"/>
	<path id="XMLID_371_" fill="#050506" d="M221.2,153.6c0.1-1.1,0.1-2.4,0.2-3.6c0.2-2.2,1.5-3.7,3.5-3.7c3.2-0.1,6.3-0.2,9.5-0.2
		c2.5,0,5.1,0,7.6,0c2.7,0.1,4.4,1.8,3.8,4.2c-0.9,4-1.9,8-3.1,11.9c-0.6,1.9-2.1,3.1-4.3,3.2c-2.5,0.1-5,0.2-7.5-0.8
		c-1.5-0.6-3.1-0.8-4.6-1.2c-3.8-1-5.1-2.7-5.2-6.8C221.2,155.6,221.2,154.7,221.2,153.6z"/>
	<path id="XMLID_370_" fill="#020404" d="M90.9,244.8c-2.2-1.6-4.5-3.2-6.7-4.8c1-3.4,3.9-5.6,5.3-8.9c1.4-3.1,3.9-5.7,6.1-8.4
		c0.7-0.9,2.1-1.7,3.2-1.8c2.8-0.2,5.7-0.1,8.6,0.1c3.2,0.2,5.6,2.7,6.5,6c0.4,1.5,0.3,3.3,1.2,4.5c3.4,4.9,2.4,10.3,2.3,15.7
		c0,0.7-1.4,1.6-2.1,1.5C107.1,247.8,98.9,246.5,90.9,244.8z"/>
	<path id="XMLID_369_" fill="#050506" d="M141.4,247.7c-1.3,0-2.5,0-3.8,0c-1.2,0-2.6-1.4-2.3-2.5c0.9-3.1,1.2-6.2,1.1-9.4
		c-0.1-3.3,1.2-6.2,2.3-9.1c0.5-1.3,1.6-2,2.9-2.1c1.9-0.2,3.8-0.2,5.7-0.1c2.1,0.1,3.5,1.3,4.6,3c0.8,1.4,1.6,2.8,2,4.3
		c0.6,1.8,1.4,3.4,2.8,4.8c1.4,1.4,1.5,3.4,1.4,5.3c0,1.2-1,2.8-1.9,3C151.4,246.2,146.6,248,141.4,247.7z"/>
	<path id="XMLID_368_" fill="#080303" d="M203.5,29.4c0.7,0.6,1.3,1.2,2,1.7c1.4,1.8,3.2,3.3,5.3,4.3c0.2,0.3,0.3,0.6,0.5,0.8
		c4.2,5.9,1.9,7.2-2.5,9.5c-2.5,1.3-5.2,2.4-7.2,4.6c-0.9,1-2.4,1-3.5,0.3c-2.1-1.4-4.2-2.9-6.4-4.2c-1.9-1.2-3.8-2.4-5.8-3.4
		c-5.1-2.6-4.8-2.5-4-7.5c0.9-5.1,3.3-9.6,4.9-14.4c0.5-1.4,1.9-1.5,3.2-1.3c1.7,1.7,3.5,3.1,5.8,3.8c1.2,0.7,2.3,1.5,3.5,2.2
		C200.3,27.6,201.7,28.8,203.5,29.4z"/>
	<path id="XMLID_367_" fill="#0A0505" d="M132.8,4.2c-3.2-0.1-6.4-0.5-9.9,0.4c-1.5,1.6-3.2,3.4-5,5.3c-0.2,4.3-0.4,8.4-0.7,12.5
		c-0.1,2-1.3,3.6-2.8,4.8c-1,0.7-2.2,1.4-3.4,1.6c-1.5,0.3-3.2,0.1-4.8,0.2c-3.7,0.3-6.3-1.2-7.3-4.7c-0.9-3.5-3.2-6.1-5.2-8.9
		c-1.8-2.6-4-3.9-7-4.3c-0.4-0.1-0.8-1-0.8-1.4c0-0.5,0.5-1.2,0.9-1.4c5-2.1,10.4-3,15.6-4.2c10-2.3,20.2-2.3,30.4-1.7
		C132.9,2.9,132.8,3.6,132.8,4.2z"/>
	<path id="XMLID_366_" fill="#272825" d="M240.5,82.7c-0.2,0.3-0.4,0.7-0.5,0.7c-0.6-0.1-0.5-0.5,0.4-0.8
		C240.4,82.6,240.5,82.7,240.5,82.7z"/>
	<path id="XMLID_365_" fill="#0A0505" d="M19.3,70.8c-1.2,0.8-2.3,1.6-3.5,2.5c-2.3-1.4-1.6-3.4-1.1-5.4c0.7-1.3,1.3-2.5,2-3.8
		c0.5-0.7,1-1.4,1.6-2.1c1.8-1.6,3.1-3.5,3.8-5.8c1.7-1.6,3.1-3.4,3.9-5.7c0.6-0.7,1.1-1.4,1.7-2c0.8-1.2,1.6-2.4,2.4-3.5
		c0.6-0.6,1.1-1.2,1.7-1.8c2.1-1,4-2.4,5.2-4.5c1.1,0.7,1.8,1.6,1.9,2.9c0.3,5,3.3,8.2,7,11.1c0.3,1.2,0.7,2.5,1,3.7
		c0.4,1.2,0.9,2.3,1.3,3.5c-1.1,2.1-2.3,3.9-3.2,5.9c-0.8,1.7-1.4,3.5-2.2,5.2c-0.6,1.2-1.7,1.9-3,2c-2.2,0.2-4.6,0.3-6.3-1.4
		c-1.7-1.7-3.8-2.2-6-2.3c-1.9,0-3.8-0.1-5.7,0.1C20.8,69.5,20.1,70.3,19.3,70.8z"/>
	<path id="XMLID_364_" fill="#060404" d="M90.4,131.7c-1.1-0.5-2.4-0.8-2.2-2.6c2-0.6,4.2-1.1,6.1-2c3.2-1.5,6.4-2.4,9.9-2.5
		c2.3,0,3.7-1.6,4.4-4.1c0.5-1.6-0.1-3.1-0.6-4.5c-0.6-1.6-1.6-2.7-3.3-2.9c-0.2-1.8-0.3-3.7-0.5-5.5c0.5-0.8,1.4-1.6,1.4-2.4
		c0.1-2.8,0.1-5.7-0.2-8.5c-0.2-1.5-1.1-2.9-1.8-4.3c-0.7-1.3-3-1.9-4.2-1.1c-2.1,1.5-4,3-6,4.6c-0.1-3.8,1.5-6.8,4-9.5
		c0.5-1.9,0.8-3.8,1.5-5.5c1.3-3.2,2.8-6.4,4.2-9.7c4.4-2.7,9.4-3.8,14.5-4.1c9.6-0.4,19.2-0.9,28.7,0.5c0.5,1.9,1.5,3.3,3.6,3.3
		c2.1,0.1,4.1,0,6.2-0.1c0,0,0.3,0.1,0.3,0.1c1.5,5.2,2.1,10.6,1.7,16c-0.2,3.2,0.9,6.2,1.1,9.4c0,0.2-0.4,0.7-0.6,0.7
		c-0.6,0-1.6-0.1-1.6-0.3c-0.6-2.5-1-5-1.4-7.4c-0.2-1.2-1.4-2.1-2.8-2.2c-1.3-0.1-2.9-0.1-3.4,1.1c-1.7,4.4-5.5,8-5.1,13.1
		c-0.9,2.4-2,4.7-2.7,7.1c-0.5,1.5-0.7,3.1-0.6,4.7c0,0.8,0.9,1.5,1.5,2.3c-0.2,1.9-0.4,3.7-0.6,5.6c-0.6-0.1-1.1,0-1.6,0.3
		c-0.4,0.7-0.9,1.4-1.3,2.1c0,2.8-0.1,5.6,0,8.4c0.1,1.7,1.1,2.8,2.8,3.3c0.4,1.7,0.7,3.5,1.1,5.2c0,1.4,0,2.7-0.1,4.1
		c0.5,0.7,1,1.4,1.5,2.1c0.1,0.6,0.2,1.2,0.5,1.7c0.1,1.6,0.9,2.8,2,4.1c1.5,1.7,1.4,2.6-0.7,3.5c-1.5,0.7-2.7,1.5-3.8,2.6
		c-0.6,0.6-1.7,0.8-2.5,0.8c-1.2,0-2.4-0.6-3.7-0.5c-1.2,0-2.4,0.5-3.8,0.8c-1.5-2.2-2.8-4.3-4.3-6.6c-2.1,0.4-4.1,0.9-6.2,1.4
		l-0.5-0.5c0-0.3,0-0.6,0-0.9c-0.3-3.6-0.3-3.6-4.2-4.6c0.1-2.5,0.7-5.1,0.1-7.4c-0.7-2.8-0.9-5.3-0.1-8.1c0.8-2.5-1.3-4.9-3.9-5.3
		c-1.9-0.3-3.7-0.1-5.3,1.2c-0.7,0.6-1.3,1.4-1.9,2.1c-3.4,0-6.8-0.1-10.1,0.1C94,130.7,92.2,131.3,90.4,131.7z"/>
	<path id="XMLID_363_" fill="#4B3A10" d="M141.7,134.8c-1.7-0.5-2.7-1.5-2.8-3.3c-0.1-2.8,0-5.6,0-8.4c0.4-0.7,0.9-1.4,1.3-2.1
		c0.5-0.3,1-0.4,1.6-0.3C142.6,125.5,142.6,130.1,141.7,134.8z"/>
	<path id="XMLID_362_" fill="#4B3A10" d="M144.6,147.9c-0.2-0.5-0.4-1.1-0.5-1.7c0.1-0.6,0.1-1.2,0-1.9l0.7-0.6
		c1.8,0.9,2.9,2.2,3.3,4.2C147,147.9,145.8,147.9,144.6,147.9z"/>
	<path id="XMLID_361_" fill="#4B3A10" d="M142.7,144.1c0-1.4,0-2.7,0.1-4.1c1.7,0.7,2,2.2,2.1,3.7c0,0-0.7,0.6-0.7,0.6
		C143.7,144.2,143.2,144.1,142.7,144.1z"/>
	<path id="XMLID_360_" fill="#67511D" d="M121.6,182.2c-1.3,0.1-2.6,0.2-3.9,0.3c-0.3-1.4-0.5-2.8-0.8-4.2c0-1,0-2.1,0-3.1
		c0.2-2,0.4-4.1,0.6-6.1c1-1.1,1.4-2.4,1.2-3.9c1.6,0.7,2.6,1.9,2.6,3.6C121.5,173.2,121.5,177.7,121.6,182.2z"/>
	<path id="XMLID_359_" fill="#060404" d="M118.8,165.2c0.2,1.5-0.3,2.8-1.2,3.9c-0.9-0.2-1.9-0.3-2.7-0.7c-1.3-0.8-1.4-3.2-0.3-4.1
		c0.4-0.3,1.2-0.5,1.7-0.3C117.2,164.1,117.9,164.7,118.8,165.2z"/>
	<path id="XMLID_358_" fill="#060404" d="M116.9,175.2c0,1,0,2.1,0,3.1c-1.5,0.9-3,1.9-4.5,2.8c-0.6-1.2-1.2-2.2-1.7-3.3
		c-0.3-1.3-0.2-2.6,0.5-3.8C113.1,174.5,115,174.8,116.9,175.2z"/>
	<path id="XMLID_357_" fill="#060404" d="M127.2,177c-0.2,1.3,0.3,2.6-0.8,3.6c-0.1,0.1-0.5,0-0.6-0.1c-1.3-2-0.7-4.2-0.5-6.4
		c0-0.5,0.6-1,1-1.5c0.3,0.5,0.7,1,0.8,1.6C127.2,175.2,127.2,176.1,127.2,177z"/>
	<path id="XMLID_356_" fill="#060404" d="M121.7,154c-0.3,0.8-0.6,1.7-1.1,2.4c-0.3,0.3-1.1,0.4-1.6,0.4c-0.8-0.1-1.1-1.7-0.3-2.2
		c0.7-0.5,1.6-0.7,2.4-1.1C121.2,153.4,121.7,154,121.7,154z"/>
	<path id="XMLID_355_" fill="#060404" d="M130.4,163.8c-0.5,0.3-1,0.8-1.5,0.8c-1,0-1.5-1.3-0.8-2c0.4-0.3,1.2-0.6,1.6-0.4
		C130.1,162.4,130.2,163.2,130.4,163.8z"/>
	<path id="XMLID_354_" fill="#463935" d="M135,195.9c-0.9-0.3-1.9-0.6-2.2-1.7c1.5-0.2,2.9,0.1,3.9,1.4
		C136.2,195.7,135.6,195.8,135,195.9z"/>
	<path id="XMLID_353_" fill="#463935" d="M132.8,194.1c-0.7-0.6-1.5-1.1-2.2-1.7C131.7,192.5,132.5,193,132.8,194.1z"/>
	<path id="XMLID_352_" fill="#92937E" d="M152.1,161.4L152.1,161.4C152.1,161.4,152.1,161.4,152.1,161.4z"/>
	<path id="XMLID_351_" fill="#463935" d="M129.5,50.5c0.4-0.1,0.7-0.1,1.1,0c0.9,2.4,2.1,4.6,4.9,5.2c0.9,0.2,1.9,0.5,2.1,1.6
		c0.1,0.5,0,1.5-0.3,1.7c-3.3,1.3-6.7,0.9-10.2,0.6c-1.3-0.1-2.3-2.6-1.6-3.8c0.3-0.5,0.6-1.1,1-1.5
		C127.6,52.9,128.5,51.7,129.5,50.5z"/>
	<path id="XMLID_350_" fill="#463935" d="M121.6,58.4c-0.1,0.8-0.2,1.7-0.5,2.5c-0.2,0.4-0.8,0.7-1.2,0.9c-0.2,0.1-0.6-0.1-0.8-0.3
		c-1.8-2-1.9-3.7-0.4-5.7c0.3-0.4,1.1-0.8,1.6-0.7c0.4,0.1,0.8,0.7,1,1.2C121.5,57,121.5,57.7,121.6,58.4z"/>
	<path id="XMLID_349_" fill="#4B3A10" d="M156.1,70.8c-2.1,0-4.1,0.1-6.2,0.1c-2.1-0.1-3.1-1.4-3.6-3.3
		C149.9,67.5,153.2,68.7,156.1,70.8z"/>
	<path id="XMLID_348_" fill="#463935" d="M145.2,59.1c-0.4,0.9-0.7,1.8-1.1,2.6c-0.1,0.1-0.6,0.2-0.8,0c-2-1.5-2.3-3.5-0.7-5.7
		c0.3-0.4,1-0.4,1.6-0.5c0.2,0,0.5,0.4,0.5,0.7C144.9,57.2,145,58.1,145.2,59.1z"/>
	<path id="XMLID_347_" fill="#584008" d="M93.4,95.9c2-1.5,4-3.1,6-4.6c1.2-0.8,3.5-0.2,4.2,1.1c0.7,1.4,1.6,2.8,1.8,4.3
		c0.3,2.8,0.3,5.7,0.2,8.5c0,0.8-0.9,1.6-1.4,2.4c-1.1-0.8-1.6-1.9-1.9-3.1c-0.5-1.8-1-3.6-1.7-5.3c-0.4-0.8-1.4-1.4-2.4-1
		c-1.5,0.5-2.9,1.2-4.3,1.8C92.3,98.7,92.4,97.4,93.4,95.9z"/>
	<path id="XMLID_346_" fill="#584008" d="M90.4,131.7c1.8-0.4,3.6-1,5.4-1.1c3.4-0.2,6.8-0.1,10.1-0.1c0.9,0.1,1.9,0.2,2.8,0.4
		c0.5,0.1,0.9,0.5,1.3,0.8c-0.5,0.3-0.9,0.7-1.4,0.9c-0.3,0.1-0.6,0.1-0.9,0.1c-4.4,0-8.8-0.8-13.2,0.6c-1.4-0.4-2.8-0.2-4.1,0.3
		C90.3,133,90.4,132.4,90.4,131.7z"/>
	<path id="XMLID_345_" fill="#B48F06" d="M94.8,139c1.5-3.8,1.9-4.1,6-4.1C99.6,137.3,97.5,138.5,94.8,139z"/>
	<path id="XMLID_344_" fill="#584008" d="M104.1,134.8c1.2-0.3,2.4-0.6,3.6-0.9c-0.5,0.6-0.9,1.6-1.5,1.8
		C105.6,135.9,104.8,135.2,104.1,134.8z"/>
	<path id="XMLID_343_" fill="#B48F06" d="M90.8,142.3c0.5-1.6,1.7-2,3.2-2.1C93.6,141.9,92.1,141.9,90.8,142.3z"/>
	<path id="XMLID_342_" fill="#B48F06" d="M90.3,133.6c1.3-0.5,2.7-0.7,4.1-0.3c-1.2,1.4-2.9,1.2-4.5,1.5
		C89.7,134.3,89.8,133.9,90.3,133.6z"/>
	<path id="XMLID_341_" fill="#060404" d="M167.8,102.6c0,0.2,0,0.5-0.1,0.7c-0.2,0.2-0.4,0.5-0.7,0.5c-1.1-0.1-2.3-0.2-3.4-0.4
		c-0.2,0-0.5-0.4-0.5-0.7c0-0.2,0.3-0.5,0.6-0.6C165.1,101.6,166.5,101.5,167.8,102.6z"/>
	<path id="XMLID_340_" fill="#1B1818" d="M140.2,121.1c-0.4,0.7-0.9,1.4-1.3,2.1C139.3,122.5,139.8,121.8,140.2,121.1z"/>
	<path id="XMLID_339_" fill="#372C16" d="M142.7,144.1c0.5,0,1,0.1,1.5,0.2c0.1,0.6,0.1,1.2,0,1.9
		C143.7,145.5,143.2,144.8,142.7,144.1z"/>
</g>
</svg>
