<?xml version="1.0" encoding="utf-8"?>
<!-- Generator: Adobe Illustrator 19.0.0, SVG Export Plug-In . SVG Version: 6.00 Build 0)  -->
<svg version="1.1" id="Layer_1" xmlns="http://www.w3.org/2000/svg" xmlns:xlink="http://www.w3.org/1999/xlink" x="0px" y="0px"
	 viewBox="0 0 80 79.9" style="enable-background:new 0 0 80 79.9;" xml:space="preserve">
<style type="text/css">
	.st0{clip-path:url(#XMLID_21_);}
	.st1{fill-rule:evenodd;clip-rule:evenodd;fill:#461344;}
</style>
<g id="XMLID_2_">
	<defs>
		<ellipse id="XMLID_3_" cx="40" cy="39.9" rx="40" ry="39.9"/>
	</defs>
	<clipPath id="XMLID_21_">
		<use xlink:href="#XMLID_3_"  style="overflow:visible;"/>
	</clipPath>
	<g id="CoMIv9.tif_1_" class="st0">
		<g id="XMLID_4_">
			<path id="XMLID_1403_" class="st1" d="M-61.1-4.4c2.2,4,5,7.7,9.5,9.8c2.5,1.2,4.7,3,7,4.4c1.1,0.7,1.4,1.6,0.8,2.8
				c-3.1,5.9-5.4,12.1-6.8,18.7c-0.1,0.4-0.3,0.9-0.5,1.3c-2.5,4.3-5,8.6-7.5,12.9c-1.2,2-2.5,3.9-3.5,6c-0.6,1.1-0.9,2.4-1.1,3.7
				c-0.4,3.3-0.6,6.6-1.1,9.9c-0.5,3.1-1.3,6.1-2.1,9.1c-0.4,1.7-1,3.4-1.3,5.1c-1,4.4-2.8,8.4-4.9,12.3c-0.3,0.5-1,0.9-1.8,1
				c1.1-2.3,2.2-4.5,3.3-6.8c1.3-2.7,2.7-5.3,2.5-8.4c0-0.4,0.1-0.9,0.3-1.4c1.2-2.8,1-5.9,2.5-8.6c0.2-0.4,0.2-1.1,0.1-1.6
				c-0.2-1.3,0-2.5,0.6-3.7c0.5-1,0.5-2.3,0.4-3.5c-0.2-1.8,0-3.4,0.7-5.1c0.9-2,1.5-4.1,2.2-6.3c-0.9-1.2-2.2-1.1-3.5-1
				c-4,0.3-7.9,0.6-11.9,0.9 M93.8-15.6c0,4.6-0.2,9.2-0.1,13.9c0.2,7.9,0.2,15.7-0.2,23.5c-0.2,5.1,0.1,10.3,0.1,15.5
				c0,9.2,0.1,18.5-0.3,27.7c-0.1,2.8-0.4,5.5-0.1,8.3c0.1,1.5-0.1,2.9-0.2,4.4c0,1.2-0.1,2.4-0.1,3.6c0.1,2.9,0.3,5.7,0.3,8.6
				c0.1,2.4,0.1,4.8,0.1,7.2c0,2.4-0.3,2.7-2.7,2.7c-7.6-0.1-15.1-1.5-22.6-2.6c-1.7-0.3-3.5-0.4-5.2-0.6c-1.6-0.2-2-0.7-1.5-2.2
				c1.8-4.7-0.3-7.9-3.6-9.9c-4.2-2.6-8.5-5.2-13.1-7.2c-4.1-1.8-5-5-5.5-8.7c0.3-0.2,0.5-0.4,0.6-0.4c6.1,1.3,9.6-2.4,12.5-6.7
				c1.4-2.1,2.7-3.8,5.6-3.7c1.8,0.1,3.1-1.2,4-2.7c0.2-0.4,0.1-1,0.1-1.8c-0.9,0.4-1.4,0.6-2,0.9c-0.8,0.5-1.4,0.5-2.3,0
				c-2.3-1.4-3.7-1.1-5.6,0.8c-2.2,2.1-4.4,4.2-6.6,6.3c-1.8,1.7-4.3,1.7-5.9,0.1c-0.3-0.3-0.5-0.9-0.4-1.2c0.2-0.4,0.7-0.9,1.1-1
				c1-0.2,2-0.2,3-0.3c2.9-0.3,4.9-2,6.2-4.5c0.9-1.8,1.9-3.6,2.6-5.5c0.6-1.7,1.5-2.8,3.3-3.3c2.3-0.6,3-2.7,3.7-4.6
				c-0.5-0.2-0.6-0.4-0.8-0.4c-0.2,0-4.8,1.3-5.1,1.3c-1.3,0.1-2.2,0.9-2.8,2c-1.3,2.4-2.7,4.8-4.1,7.2c-1.3,2.3-2.1,2.7-4.7,2.3
				c-1.6-0.2-3.3-0.1-5-0.3c-1.4-0.2-2.9-0.6-4.2-1.2c-1.2-0.6-1.2-1.5-0.1-2.3c1-0.8,2-1.6,3-2.5c-1-2.8-1.5-5.6-4.5-6.8
				c-0.4-0.2-0.6-1.1-0.8-1.8c-0.1-0.3,0.3-0.7,0.2-1.1c-0.2-1-0.1-2.2-0.7-2.8c-0.9-1-2.1-0.3-3,0.4c-1.6,1.3-3.1,1.6-5.1,0.5
				c-1.4-0.8-2.4-0.2-2.9,1.4c-0.4,1.3-0.9,2.3-2.1,3.1c-1.3,0.8-1.5,1.8-0.4,3c1.3,1.4,1.7,2.6,0.8,4.4c-0.3,0.6-0.2,1.5-0.1,2.2
				c0.3,1.8,1.6,2.5,3.3,1.8c0.5-0.2,0.9-0.7,1.4-0.8c0.6-0.2,1.7-0.5,2-0.2c0.5,0.5,0.7,1.4,0.7,2.2c0,0.5-0.3,1.1-0.7,1.5
				c-1.8,2.1-2.1,4.7-1.8,7.3c0.5,4.7,1,9.4,1.8,14c0.3,1.8,0.5,3.9,2.8,5.1c1.5,0.7,0.7,2.4,0.3,3.7c-1.2,0.3-1.6-0.3-1.9-1.2
				c-0.4-1-0.9-1.9-1.4-2.9c-0.9-2.1-2-4.2-2.8-6.3c-0.5-1.4-1.1-2.2-2.6-2.6c-1.1-0.3-2.1-1-3.3-1.7c0,0.6-0.1,1,0,1.4
				c0.2,0.7,0.5,1.4,0.6,2.1c0.4,3.8-1.2,5.5-5,5.4c-0.2,0-0.4,0-0.6,0c-3.4-1.5-7.3-0.8-10.8-1.9C-2.4,75.8-4,76-5.4,76.9
				c-0.6,0.3-1.1,0.7-1.7,1c-1.9,0.9-2.2,0.7-2.9-1.3c-1.5-4.3-0.8-8.8-1.9-13.1c-0.1-0.3-0.1-0.7-0.3-1.5c-0.5,0.9-1,1.3-1.1,1.9
				c-0.7,3.2-1.3,6.4-0.4,9.8c0.3,1.3,0.3,2.7,0.4,4.6c-1.1-0.7-1.7-1-2.4-1.5c-0.5,1.6-0.9,3.1-1.4,4.7c-0.2,0-0.4-0.1-0.6-0.1
				c0.1-1,0.1-2.1,0.3-3.1c0.8-5.1,1.7-10.2,2.5-15.3c0.1-0.5,0.1-0.9,0.2-1.4c1.4-5.7-1-10.7-3.4-15.5c-1-1.9-2.7-3.5-4.1-5.2
				c-1.3-1.6-1.8-3.4-0.8-5.4c1.1-2.1,2.6-3.3,5.1-3.2c4,0.1,7.8-0.9,10.9-3.2c4.7-3.5,6.3-6,4.6-11.6c-0.7-2.4-2.8-4.5-4.5-6.6
				c-5-5.8-11.6-9-18.8-11.1c-1.8-0.5-2.6-1.3-2.6-3.2c0-3.5-0.2-7-0.5-10.5 M58.8,80.3c2.8,0.2,3.5,0.6,3.1,1.8
				c-0.6,1.4,0.1,2.5,0.5,3.7c0.6,1.9,1.3,3.8,1.9,5.8c0.6,1.7,1.3,3.2,3.4,3.5c2.8-4,2.8-4.9,0-8.5c-0.1-0.1-0.1-0.1-0.2-0.2
				c-1.3-2.7-3.7-4.8-3.4-8.2c0.1-1.1-0.5-2.3-1-3.4c-0.4-1.1-1.4-1.3-2.2-0.5c-0.9,1-1.6,2.3-2.1,3.5
				C58.4,78.3,58.7,79.3,58.8,80.3z M-16.7,45.5c1,2.3,1.6,4.6,2.9,6.4c1.1,1.5,1.5,2.8,1.1,4.5c-0.2,0.9-0.1,1.8,1.1,2.3
				c0.6,0.3,1,1.1,1.6,1.4c0.6,0.3,1.5,0.7,1.9,0.4c0.4-0.3,0.8-1.4,0.6-1.9c-0.4-0.8-1.2-1.5-1.9-2.1c-0.3-0.3-0.8-0.5-1.5-0.8
				C-9.8,55-9,54.5-8.2,54c-0.5-1.6-2.7-0.8-2.9-2.5c-0.2-1.2-0.7-2.4-1-3.2c-1-0.3-1.5-0.4-2-0.5c0.3-0.5,0.6-1,1.1-1.4
				c0.3-0.2,0.9-0.3,1.3-0.3c2.7,0.1,5.3,0.2,8,0.3c1.1,0.1,2.1,0.3,2.8,1.4c0.7,1,1.5,0.9,2.2-0.1c0.5-0.7,0.9-1.4,1.5-2.4
				c-2.4,0-4.5,0-6.6,0c-2.2,0-4.4,0-6.6,0C-12.4,45.5-14.5,45.5-16.7,45.5z M47.1,69.1c-1.2,0.8-2.3,1.3-3.2,2
				c-0.5,0.4-0.9,1-1.3,1.6c0.6,0.5,1.2,1.1,1.8,1.4c0.4,0.2,1,0,1.7-0.1c-0.3,1.9,0.8,2.8,2.2,3.2c1.7,0.5,3.1,2.4,5.5,1.3
				c-1.6-1.3-2.9-2.3-4.2-3.4c-1-0.8-1.6-1.7-1-3.1C48.9,70.9,48.2,69.9,47.1,69.1z M81.6,96c-2.2-4-5.4-3.5-8.4-3.2
				c-1.5,0.1-2.6,0.8-2.8,2.9c2.9,0,5.5,1.4,8.3,1C79.5,96.5,80.3,96.2,81.6,96z M56.8,65.2c1.1,0.4,1.6,0.6,2.2,0.8
				c1,0.2,2,0.3,3,0.6c1.3,0.5,2.4,0.4,3.7-0.1c0.9-0.4,1.9-0.5,2.9-0.4c2.6,0.3,5.1,0.8,7.7,1.2c1.4,0.2,2.8,0.1,4-0.8
				C73,65.6,65.7,65,58.5,64.5C58.1,64.5,57.7,64.8,56.8,65.2z M2.5,70.2c2.6,1,4.5,1.8,6.6,1.8c0.9,0,1.9-0.2,2.1-1.4
				c0.3-1.8-1.5-3.8-3.2-3.2C6.3,68,4.7,69,2.5,70.2z M48.7,68c0.1,0.1,0.3,0.3,0.4,0.4c0.4-0.3,0.9-0.6,1.3-0.9
				c1.3-1.1,2.3-2.6,4.4-2.4c0.4,0,1.3-1,1.3-1.4c-0.1-0.6-0.9-1.1-1.2-1.5c-1.3,1-2.4,1.8-3.4,2.6C50.5,65.8,49.6,67,48.7,68z
				 M45.7,32.3c-0.1-1.1-0.5-1.9-1.8-2c-1.1,0-2.1,1-2.1,2.1c0,1.2,0.9,2,2.1,1.9C45.2,34.2,45.6,33.4,45.7,32.3z M55.8,36.3
				c-0.1-1-0.6-1.8-1.8-1.9c-1.1-0.2-2.2,0.8-2.3,1.9c-0.1,1.1,0.8,2.2,1.9,2.3C54.7,38.6,55.7,37.6,55.8,36.3z M48.3,18.9
				c0-1.1-1.1-2.3-2-2.3c-0.8,0-2.1,1.5-1.8,2.4c0.3,0.7,1,1.5,1.7,1.8C47,21.3,48.3,20,48.3,18.9z M17.9,62.8
				c-0.3-0.9-0.4-1.7-0.7-2.4c-0.3-0.5-1.1-1.2-1.5-1.1c-0.7,0.2-1.5,0.8-1.8,1.5c-0.3,0.7,0.6,1.8,1.1,1.4
				C16.3,60.8,16.6,62.9,17.9,62.8z M65.3,69.4c-5-1.6-5-1.6-6-0.3C61.3,70.3,63.3,69.9,65.3,69.4z M-3.7,64.7
				c-0.8-0.6-1.3-1.1-1.8-1.1c-0.5,0-1.2,0.5-1.4,1c-0.2,0.9,0.5,1.4,1.3,1.3C-5,65.7-4.5,65.2-3.7,64.7z M8,59.8
				c-1.7-0.1-2.7,0.3-3.1,1.8C7.2,62,7.2,62,8,59.8z"/>
			<path id="XMLID_264_" class="st1" d="M19.6,79.6c-2.3-0.5-2.5-2-0.5-4.5C19.3,76.8,19.5,78.1,19.6,79.6z"/>
			<path id="XMLID_135_" class="st1" d="M58.8,80.3c0-1-0.4-2-0.1-2.7c0.5-1.3,1.2-2.5,2.1-3.5c0.7-0.9,1.7-0.6,2.2,0.5
				c0.4,1.1,1.1,2.3,1,3.4c-0.3,3.4,2.1,5.6,3.4,8.2c0,0.1,0.1,0.1,0.2,0.2c2.9,3.7,2.9,4.5,0,8.5c-2-0.2-2.8-1.7-3.4-3.5
				c-0.6-1.9-1.2-3.9-1.9-5.8c-0.4-1.2-1-2.2-0.5-3.7C62.3,80.9,61.5,80.4,58.8,80.3z"/>
			<path id="XMLID_133_" class="st1" d="M81.6,96c-1.2,0.3-2.1,0.5-3,0.6c-2.9,0.4-5.4-1-8.3-1c0.2-2.1,1.4-2.8,2.8-2.9
				C76.2,92.5,79.4,91.9,81.6,96z"/>
			<path id="XMLID_132_" class="st1" d="M2.5,70.2C4.7,69,6.3,68,8.1,67.4c1.7-0.6,3.5,1.4,3.2,3.2c-0.2,1.2-1.1,1.4-2.1,1.4
				C7.1,71.9,5.1,71.2,2.5,70.2z"/>
			<path id="XMLID_119_" class="st1" d="M-3.7,64.7c-0.9,0.5-1.3,1-1.8,1.1c-0.8,0.1-1.5-0.4-1.3-1.3c0.1-0.4,0.9-0.9,1.4-1
				C-5,63.5-4.5,64.1-3.7,64.7z"/>
			<path id="XMLID_1364_" class="st1" d="M104.6,69.6c2-1.1,4.1-1,6.1-0.5"/>
		</g>
	</g>
</g>
</svg>
