<?xml version="1.0" encoding="utf-8"?>
<!-- Generator: Adobe Illustrator 19.0.0, SVG Export Plug-In . SVG Version: 6.00 Build 0)  -->
<svg version="1.1" id="Layer_1" xmlns="http://www.w3.org/2000/svg" xmlns:xlink="http://www.w3.org/1999/xlink" x="0px" y="0px"
	 viewBox="0 0 250 250" enable-background="new 0 0 250 250" xml:space="preserve">
<g id="XMLID_108_">
	<path id="XMLID_166_" fill="#FDBE09" d="M8.1,164.9c-1.3-2.3-3.1-4.5-3.7-7c-9.5-37.7-3.7-72.8,18.9-104.6
		C59,3.1,126.8-13.3,181.9,14.8c3.5,1.8,6.6,4.6,9.8,6.9c-0.3,1.1-1.1,2.4-0.8,3.2c2.2,5.4,6.9,7,13.4,4.7
		c24.9,20.2,39.4,46.4,44.3,77.8c2.4,15,1.7,30-1.6,44.9c-0.6,2.5-1.6,4.9-2.4,7.3c-9.5-3.5-19.3-4.2-29.3-3.5
		c-3-6.4-3.6-13.1-3.4-20.1c0.1-3,0.2-6.1-0.4-9c-3.1-15.2-2.9-30.7-4.6-46.1c-0.2-1.6,0.3-3.3,0.5-4.9c1.6-0.3,2.6-0.4,3.7-0.7
		c4.6-1,6.1-2.8,6.2-7.5c0-1.5,0-3-0.1-4.5c-0.4-4.4-1.6-5.1-6.2-5c-8.6,0.1-17.2-0.3-25.9-0.4c1.7-1.6,3.7-3.1,5-4.9
		c1.7-2.5,0.8-7.3-1.3-8.8c-2.2-1.6-6.5-0.6-8.6,2.1c-0.8,1-1.3,2.2-2.1,3.7c2.2,2.7,4.3,5.3,6.5,7.9c-2.3,0.3-4.7,0.7-7,0.9
		c-2.8,0.2-5.6-0.1-8.4,0.2c-1.2,0.2-3,1.2-3.4,2.3c-2.7,6.7,0.1,12.5,7.6,15c0.2,1.7,0.8,3.5,0.6,5.4c-0.7,9.2-1.5,18.3-2.3,27.5
		c-0.9,10.7-1.8,21.4-2.7,32.1c-0.3,3.6-0.4,7.3-0.6,10.9c-2.3,0.1-4.7,0.1-7,0.2c-4.6,0.3-9.3,0.6-13.9,1c-1-4.2-2.4-8.3-2.9-12.5
		c-1.3-9.8-2.3-19.6-3.3-29.5c-0.2-2.1-0.9-4.6,0-6.2c0.9-1.8,3.4-2.8,5.4-4.2c0-3.8,0.1-7.9,0-11.9c-0.2-5.1-1.1-5.9-6.3-5.9
		c-8.4,0-16.9,0.2-25.3,0.3c-4.1,0.1-8.2,0.2-12.3,0.3c-3.1,0.1-4.9,1.7-5,4.8c-0.1,4.5,0,9,0,13.2c8.8,2.4,9,2.4,8.8,11.1
		c-0.3,13.3-0.7,26.7-1.1,40c-7.8,0.3-15.6,0.6-23.4,0.8c-0.9-5.9-2.1-11.9-2.5-17.8c-0.6-9.2-0.5-18.5-0.9-27.8
		c-0.3-6.4-1.4-12.8-1.5-19.3c-0.3-9.9-0.1-9.9,9.9-11.4c1.9-4.6,2.1-9.7,2.3-14.8c0-1.1-1.4-2.7-2.5-3.2c-1.5-0.7-3.4-0.7-5.1-0.7
		c-11.3-0.1-22.5-0.1-33.8-0.1c-4.3,0-8.7-0.1-13,0c-2.2,0.1-4.7,0.5-4.8,3.3c-0.2,6.1-0.1,12.3-0.1,18.4c10.6,0.7,10.8,1,10.7,10.8
		c-0.1,21.8-0.1,43.5-0.2,65.3c-6.4,0.9-12.7,2-19.1,2.8C16.4,159.9,11.7,161.1,8.1,164.9z M54.5,40.8c-7,0.3-8.5,2.4-6.8,9.7
		c1.3,0.1,2.8,0.3,4.2,0.5c1,0.7,1.9,1.9,2.9,1.9c3.3,0,5.3-2.4,5.5-5.8C60.4,43.1,58.9,41.4,54.5,40.8z M114.2,64.8
		c6.4,0.1,10.1-3.3,10-9.2c-0.1-4.9-5-9.7-10.1-9.7c-5.6,0-9.9,3.8-9.9,8.9C104.4,60.3,107.2,65.2,114.2,64.8z M133.4,71.4
		c-0.1-3.1-2.7-5.7-5.7-5.5c-3,0.1-6.4,3.6-6.2,6.2c0.3,3.1,3.3,5.6,6.7,5.7C132,77.8,133.5,75.8,133.4,71.4z M122.8,19.1
		c-0.7,4-1.7,7.8,2.2,9.7c1.6,0.8,4.4,0.8,6-0.1c3.7-2.2,2.4-5.8,2-9.6C129.5,19.1,126.4,19.1,122.8,19.1z"/>
	<path id="XMLID_165_" fill="#FBBE0B" d="M237.1,176.6c-0.7,2.6-0.8,5.5-2.1,7.8c-19.9,34.8-48.8,57.7-89.2,62.8
		c-24,3-48.4,2.8-71.4-7.9c-21.3-9.9-38.8-24.1-52.3-43.2c-1.2-1.7-2.1-3.7-3.1-5.6c0.2-1.7-0.1-3.5,0.6-5c1.6-3.5,1.5-8.5,5.9-9.8
		c4.8-1.5,9.9-1.9,14.9-2.8c0.1,8,0,15.9,0.3,23.9c0.3,10.1,4.4,15.3,14,18c6.2,1.8,12.4,0.3,17.2-3.3c6.7-5,11-11.7,10.1-21
		c-0.6-6.8,0.1-13.7,0.3-20.6c7.7,0.2,15.3,0.3,23,0.5c0.1,0.3,0.1,0.7,0,1c-2.4,1.1-2.4,3.3-2.4,5.4c0,4.9-0.2,9.8,0,14.8
		c0.3,7.9,4,14.3,9.5,19.6c1.1,1,3.1,1.1,4.6,1.7c0.8,0.2,1.6,0.3,2.5,0.5c0.7,2.8,2.8,3.6,5.3,3.3c3.8-0.5,8.1,0.5,10.6-3.6
		c0.3-0.2,0.7-0.3,1.1-0.3c1.8,0.3,2.7-0.6,2.8-2.4c0.9-0.9,1.9-1.7,2.8-2.6c0.8-0.9,1.5-1.9,2.3-2.8c3.4-4,5.5-8.4,5.5-13.7
		c0-7,0.1-14.1,0.1-21.1c0.8-0.1,1.6-0.2,2.4-0.4c4.9,0.3,9.8,0.6,14.7,0.8c-0.2,4.5-0.6,9-0.6,13.5c0,9.7,2.2,18.6,8.6,26.3
		c4.7,5.6,10.8,8.7,18.1,7.9c8.7-0.9,15.1-6,18.7-13.7c3-6.4,4-13.4,4.1-20.5c0.1-3.8,0.9-7.6,1.4-11.4c3.8,0.6,7.6,1.1,11.4,1.8
		C231.5,175,234.3,175.9,237.1,176.6z"/>
	<path id="XMLID_164_" fill="#1E180F" d="M40.4,172.8c-5,0.9-10.1,1.3-14.9,2.8c-4.4,1.3-4.4,6.3-5.9,9.8c-0.7,1.5-0.4,3.3-0.6,5
		c-3.3-6.2-6.8-12.3-9.8-18.7c-1-2-0.7-4.6-1-6.8c3.6-3.8,8.2-5,13.2-5.6c6.4-0.8,12.7-1.8,19.1-2.8
		C45.1,160.5,45.1,168.1,40.4,172.8z"/>
	<path id="XMLID_163_" fill="#1C160C" d="M237.1,176.6c-2.8-0.7-5.5-1.5-8.4-2.1c-3.8-0.7-7.6-1.2-11.4-1.8
		c-0.7-5.5-1.4-11.1-2-16.6c10-0.6,19.8,0.1,29.3,3.5c-1.5,4.6-2.8,9.3-4.5,13.9C239.7,174.7,238.1,175.6,237.1,176.6z"/>
	<path id="XMLID_162_" fill="#6E945F" d="M204.3,29.7c-6.5,2.3-11.1,0.7-13.4-4.7c-0.3-0.8,0.5-2.1,0.8-3.2
		C197.2,22.4,200.6,26.1,204.3,29.7z"/>
	<path id="XMLID_157_" fill="#F6E3CF" d="M40.4,172.8c4.7-4.7,4.7-12.3,0-16.3c0.1-21.8,0.1-43.5,0.2-65.3c0-9.8-0.2-10-10.7-10.8
		c0-6.1-0.1-12.2,0.1-18.4c0.1-2.8,2.6-3.3,4.8-3.3c4.3-0.1,8.7,0,13,0c11.3,0,22.5,0,33.8,0.1c1.7,0,3.6,0,5.1,0.7
		c1.1,0.5,2.6,2.1,2.5,3.2c-0.2,5.1-0.4,10.2-2.3,14.8c-10,1.5-10.2,1.5-9.9,11.4c0.2,6.4,1.2,12.8,1.5,19.3
		c0.4,9.2,0.3,18.5,0.9,27.8c0.4,6,1.7,11.9,2.5,17.8c0.1,5.4,0.2,10.7,0.4,16.1c-0.2,6.9-0.9,13.8-0.3,20.6
		c0.9,9.3-3.4,15.9-10.1,21c-4.8,3.6-11,5.1-17.2,3.3c-9.6-2.7-13.7-7.9-14-18C40.4,188.8,40.5,180.8,40.4,172.8z M49.9,135.7
		c0,6.6,0,12.4,0,18.1c0,14.4-0.1,28.9,0,43.3c0,4.1,0.9,8.8,5.3,10c6.3,1.7,12.5,1.8,17.7-4.2c3.2-3.7,4-7.4,3.9-11.8
		c-0.3-12.5-0.6-25-0.9-37.5c-0.1-4.1-0.4-8.1-0.6-12.1c-0.1-2.8-1.2-5.6-4.2-5.7C64.3,135.4,57.4,135.7,49.9,135.7z M57,118
		c3.2,0.1,6.9-3.1,7.1-6.2c0.3-4.1-3.3-8.4-7.1-8.5c-4-0.1-7.5,3.3-7.5,7.3C49.6,114.5,52.9,117.8,57,118z M60.5,84.2
		c-1.6,3.6-2.2,6.9,0.3,9.9c6,0.5,7.6-0.5,7.7-4.6C68.7,85.1,66.6,83.7,60.5,84.2z"/>
	<path id="XMLID_152_" fill="#ECE4CF" d="M215.3,156.1c0.7,5.5,1.4,11.1,2,16.6c-0.5,3.8-1.3,7.6-1.4,11.3
		c-0.1,7.1-1.1,14.1-4.1,20.5c-3.6,7.8-10,12.8-18.7,13.7c-7.3,0.8-13.3-2.3-18.1-7.9c-6.4-7.6-8.6-16.6-8.6-26.3
		c0-4.5,0.4-9,0.6-13.5c0.3-0.2,0.5-0.4,0.7-0.6c0.8-0.3,2.2-0.5,2.2-0.8c0.4-5,0.8-10,0.9-15c0-0.6-1.6-1.3-2.4-1.9
		c0.2-3.6,0.4-7.3,0.6-10.9c0.9-10.7,1.8-21.4,2.7-32.1c0.8-9.2,1.6-18.3,2.3-27.5c0.1-1.8-0.4-3.7-0.6-5.4
		c-7.5-2.5-10.3-8.3-7.6-15c0.4-1.1,2.2-2.1,3.4-2.3c2.8-0.4,5.6-0.1,8.4-0.2c2.3-0.1,4.7-0.6,7-0.9c0,0,0.5,0,0.5,0
		c8.6,0.2,17.2,0.5,25.9,0.4c4.6,0,5.8,0.6,6.2,5c0.1,1.5,0.2,3,0.1,4.5c-0.1,4.7-1.6,6.5-6.2,7.5c-1.1,0.2-2.1,0.4-3.7,0.7
		c-0.2,1.6-0.7,3.3-0.5,4.9c1.7,15.3,1.6,30.9,4.6,46.1c0.6,2.9,0.5,6,0.4,9C211.7,143,212.2,149.7,215.3,156.1z M181.8,200.1
		c6.7,7.6,13,8.4,20.5,2.4c8.2-6.7,8.9-16.2,8.9-25.8c0-2-1.3-4-1.5-6c-1.2-12.4-2.3-24.9-3.4-37.3c-0.1-1.1-0.4-2.1-0.5-3.2
		c-0.1-2.6-1.8-4-4.1-4.1c-5.2-0.3-10.3-0.8-15.5-0.6c-4.9,0.2-6.3,1.9-6.5,6.8c-0.3,5.2-0.5,10.3-0.7,15.5
		c-0.6,0.8-1.7,1.5-1.8,2.3c-0.6,4.6-1,9.2-1.3,13.9c-0.1,1.2,0.6,2.3,0.9,3.5c0.1,8.1,0.2,16.3,0.3,24.4c0.6,1,1.3,2,1.9,3
		c0.2,0.8,0.3,1.5,0.5,2.3C179.3,199.1,180,200,181.8,200.1z M192.5,83.2c-5,0-7.9,3-8,8.1c-0.1,5.3,3.2,8.7,8.2,8.6
		c4.2-0.1,7.9-4.2,7.8-8.6C200.5,86.5,197.1,83.1,192.5,83.2z M195.6,115.7c3.6,0.2,5.7-1.7,5.9-5.2c0.1-3.2-1.6-5.3-4.8-5.5
		c-3.6-0.2-6,1.6-6.4,4.8C189.9,113,192.2,115.5,195.6,115.7z"/>
	<path id="XMLID_149_" fill="#F6E4D3" d="M105.3,171.4c0.1-0.3,0.1-0.7,0-1c1-1.2,2.8-2.3,3-3.7c0.4-3.5,0.4-7.2,0-10.7
		c-0.1-1.1-1.9-2-2.9-3c0.4-13.3,0.9-26.7,1.1-40c0.2-8.7,0-8.7-8.8-11.1c0-4.3-0.1-8.7,0-13.2c0.1-3.1,1.9-4.7,5-4.8
		c4.1-0.1,8.2-0.3,12.3-0.3c8.4-0.1,16.9-0.3,25.3-0.3c5.2,0,6,0.8,6.3,5.9c0.2,4.1,0,8.1,0,11.9c-2,1.5-4.5,2.5-5.4,4.2
		c-0.9,1.6-0.2,4.1,0,6.2c1,9.8,2,19.7,3.3,29.5c0.6,4.2,1.9,8.3,2.9,12.5c0.7,3,1.4,6,2.1,9c0.2,2.6,0.3,5.1,0.5,7.7
		c0,7-0.1,14.1-0.1,21.1c0,5.3-2.1,9.8-5.5,13.7c-0.8,0.9-1.5,1.9-2.3,2.8c-0.9,0.9-1.9,1.7-2.8,2.6c-0.9,0.8-1.9,1.6-2.8,2.4
		c-0.4,0-0.7,0.1-1.1,0.3c-5.1,0.9-10.2,1.1-15.3,0.2c-0.2,0-0.4,0.1-0.6,0.1c-0.8-0.2-1.6-0.3-2.5-0.5c-1-1.3-2-2.5-3-3.8
		c-2.4-3.2-5.5-6.2-6.8-9.8c-1.5-4.1-1.5-8.7-1.7-13.2C105.2,181.2,105.3,176.3,105.3,171.4z M117.6,110.8c-1.1,14.9-2.4,29-3,43.1
		c-0.5,11.4,0.1,22.9-0.3,34.3c-0.2,4.7,2.1,8.2,4.1,11.8c1.2,2.2,4.1,4.1,6.6,4.7c9,2.3,19.7-6.2,19.3-15.6
		c-0.5-11.1-0.9-22.4-3.1-33.3c-1.6-8.3-2.2-16.6-3.4-24.8c-1-6.7-2.3-13.4-3.5-20.3C128.8,110.8,123.4,110.8,117.6,110.8z"/>
	<path id="XMLID_148_" fill="#F992B4" d="M114.2,64.8c-7,0.4-9.9-4.5-10-10c-0.1-5.1,4.3-8.8,9.9-8.9c5,0,10,4.7,10.1,9.7
		C124.3,61.5,120.6,64.9,114.2,64.8z"/>
	<path id="XMLID_145_" fill="#594728" d="M105.3,153c1,1,2.8,1.9,2.9,3c0.4,3.5,0.4,7.2,0,10.7c-0.2,1.3-1.9,2.4-3,3.7
		c-7.7-0.2-15.3-0.3-23-0.5c-0.1-5.4-0.2-10.7-0.4-16.1C89.7,153.5,97.5,153.3,105.3,153z M84.9,167.2c7.1,0,13.5,0,20,0
		c0-3.6,0-6.6,0-10.1c-7-0.2-13.5-0.6-20,0.2C84.9,161,84.9,163.9,84.9,167.2z"/>
	<path id="XMLID_144_" fill="#427746" d="M185,58c0,0-0.5,0-0.5,0c-2.1-2.6-4.3-5.2-6.5-7.9c0.8-1.5,1.3-2.7,2.1-3.7
		c2.1-2.7,6.3-3.7,8.6-2.1c2.1,1.5,3.1,6.3,1.3,8.8C188.7,54.9,186.7,56.4,185,58z"/>
	<path id="XMLID_143_" fill="#5E523B" d="M149.5,162.5c-0.7-3-1.4-6-2.1-9c4.6-0.3,9.3-0.7,13.9-1c2.3-0.1,4.7-0.2,7-0.2
		c0.8,0.6,2.4,1.3,2.4,1.9c-0.1,5-0.4,10-0.9,15c0,0.3-1.4,0.6-2.2,0.8c-0.1-4.7,1.1-9.4-0.6-14.2c-2.7-0.5-5.2-1.1-7.8-1.4
		c-7.1-0.6-7.3-0.3-9.2,6.8C149.9,161.7,149.7,162.1,149.5,162.5z"/>
	<path id="XMLID_142_" fill="#FAA298" d="M133.4,71.4c0.1,4.4-1.5,6.4-5.2,6.4c-3.4,0-6.4-2.6-6.7-5.7c-0.2-2.7,3.1-6.1,6.2-6.2
		C130.7,65.7,133.3,68.3,133.4,71.4z"/>
	<path id="XMLID_141_" fill="#FAA298" d="M122.8,19.1c3.6,0,6.7,0,10.1,0c0.4,3.8,1.8,7.5-2,9.6c-1.5,0.9-4.4,0.9-6,0.1
		C121.1,26.9,122.1,23.2,122.8,19.1z"/>
	<path id="XMLID_140_" fill="#F4350C" d="M54.5,40.8c4.4,0.6,5.9,2.3,5.8,6.3c-0.1,3.4-2.2,5.8-5.5,5.8c-1,0-1.9-1.2-2.9-1.9
		C51.3,47.3,52.1,43.8,54.5,40.8z"/>
	<path id="XMLID_139_" fill="#FCA04D" d="M54.5,40.8c-2.4,3-3.2,6.4-2.6,10.2c-1.4-0.2-2.9-0.3-4.2-0.5C46,43.3,47.6,41.1,54.5,40.8
		z"/>
	<path id="XMLID_138_" fill="#0A0805" d="M150.2,161.3c1.9-7,2.2-7.3,9.2-6.8c2.6,0.2,5.1,0.9,7.8,1.4c1.7,4.8,0.4,9.5,0.6,14.2
		c-0.2,0.2-0.4,0.4-0.7,0.6c-4.9-0.3-9.8-0.6-14.7-0.8C151.5,167,153.6,163.5,150.2,161.3z"/>
	<path id="XMLID_137_" fill="#FBD053" d="M105.3,171.4c0,4.9-0.1,9.8,0.2,14.7c0.3,4.4,0.3,9.1,1.7,13.2c1.3,3.6,4.4,6.6,6.8,9.8
		c0.9,1.3,2,2.5,3,3.8c-1.6-0.5-3.5-0.6-4.6-1.7c-5.5-5.3-9.3-11.7-9.5-19.6c-0.2-4.9,0-9.8,0-14.8
		C102.8,174.7,102.8,172.5,105.3,171.4z"/>
	<path id="XMLID_136_" fill="#FBD053" d="M119.4,213.4c0.2-0.1,0.4-0.2,0.6-0.1c5.1,0.9,10.2,0.6,15.3-0.2
		c-2.5,4.1-6.8,3.2-10.6,3.6C122.3,217,120.1,216.2,119.4,213.4z"/>
	<path id="XMLID_135_" fill="#594728" d="M150.2,161.3c3.4,2.1,1.4,5.7,2.2,8.5c-0.8,0.1-1.6,0.2-2.4,0.4c-0.2-2.6-0.3-5.1-0.5-7.7
		C149.7,162.1,149.9,161.7,150.2,161.3z"/>
	<path id="XMLID_134_" fill="#FBD053" d="M142.1,207.8c0.8-0.9,1.5-1.9,2.3-2.8C143.6,205.9,142.8,206.9,142.1,207.8z"/>
	<path id="XMLID_133_" fill="#FBD053" d="M136.4,212.7c0.9-0.8,1.9-1.6,2.8-2.4C139.1,212.1,138.3,213,136.4,212.7z"/>
	<path id="XMLID_130_" fill="#F51F1F" d="M49.9,135.7c7.5,0,14.4-0.3,21.3,0.1c3,0.2,4,2.9,4.2,5.7c0.2,4,0.5,8.1,0.6,12.1
		c0.3,12.5,0.6,25,0.9,37.5c0.1,4.4-0.7,8.1-3.9,11.8c-5.2,6-11.4,6-17.7,4.2c-4.4-1.2-5.2-5.9-5.3-10c-0.2-14.4,0-28.9,0-43.3
		C49.9,148,49.9,142.3,49.9,135.7z M70.1,178.6c0.1-1.3,0.2-2.5,0.3-3.8c0.2-2.9-1.1-4.7-3.8-5.9c-3.1-1.3-6.2-1.3-8,1.5
		c-1.2,1.9-1.8,4.9-1.2,7c0.8,3,2.7,5.7,4.6,8.2c1,1.3,3.3,2.6,4.6,2.2c1.4-0.4,2.7-2.5,3.3-4.1C70.5,182.2,70.1,180.3,70.1,178.6z"
		/>
	<path id="XMLID_129_" fill="#F43132" d="M57,118c-4.1-0.2-7.4-3.5-7.4-7.4c0-4,3.5-7.3,7.5-7.3c3.8,0.1,7.4,4.4,7.1,8.5
		C63.8,114.9,60.2,118.1,57,118z"/>
	<path id="XMLID_128_" fill="#F25552" d="M60.5,84.2c6.1-0.5,8.2,0.9,8,5.3c-0.2,4.1-1.7,5.1-7.7,4.6C58.4,91.1,58.9,87.8,60.5,84.2
		z"/>
	<path id="XMLID_124_" fill="#176A5C" d="M179,147.8c0.2-5.2,0.4-10.3,0.7-15.5c0.3-4.9,1.6-6.7,6.5-6.8c5.2-0.2,10.3,0.2,15.5,0.6
		c2.4,0.2,4,1.5,4.1,4.1c0.1,1.1,0.4,2.1,0.5,3.2c1.1,12.4,2.2,24.9,3.4,37.3c0.2,2,1.6,4,1.5,6c-0.1,9.5-0.7,19.1-8.9,25.8
		c-7.5,6.1-13.7,5.2-20.5-2.4c-0.8-0.9-1.5-1.9-2.3-2.8c-0.2-0.8-0.3-1.5-0.5-2.3c0.6-1.8,0-2.8-1.9-3c-0.1-8.1-0.2-16.3-0.3-24.4
		C179.8,161.2,179.8,154.5,179,147.8z M185.4,148.6c-0.1,2.6-0.3,3.7-0.2,4.7c0.2,2.7,2.5,4.8,5.1,4.9c2.8,0.2,4.4-1.4,5.3-4.4
		c0.7-2.4,1.9-4.6,2.7-6.9c0.7-1.9,1.8-4.1,1.6-5.9c-0.7-4.4-4.5-6.6-9.1-5.9c-3.6,0.6-6.1,3.8-5.9,7.9
		C184.9,145.5,185.3,147.8,185.4,148.6z M195.7,186.7c3.3,0,6.5-2.5,6.5-5.1c0-2.6-3.8-6.1-6.6-6.1c-3,0-5.6,2.7-5.6,5.8
		C189.9,184.8,191.8,186.7,195.7,186.7z"/>
	<path id="XMLID_123_" fill="#297465" d="M192.5,83.2c4.6,0,8,3.4,8.1,8.1c0.1,4.4-3.6,8.5-7.8,8.6c-5,0.1-8.3-3.3-8.2-8.6
		C184.5,86.2,187.5,83.2,192.5,83.2z"/>
	<path id="XMLID_122_" fill="#3A7D71" d="M195.6,115.7c-3.4-0.2-5.6-2.7-5.3-5.9c0.4-3.2,2.8-5,6.4-4.8c3.1,0.2,4.9,2.2,4.8,5.5
		C201.3,114,199.1,115.9,195.6,115.7z"/>
	<path id="XMLID_121_" fill="#89AD9F" d="M179,147.8c0.8,6.7,0.8,13.4-2.2,19.7c-0.3-1.2-1-2.4-0.9-3.5c0.3-4.6,0.7-9.3,1.3-13.9
		C177.3,149.3,178.4,148.6,179,147.8z"/>
	<path id="XMLID_120_" fill="#89AD9F" d="M177.1,192c1.9,0.2,2.5,1.3,1.9,3C178.4,194,177.8,193,177.1,192z"/>
	<path id="XMLID_119_" fill="#89AD9F" d="M179.6,197.3c0.8,0.9,1.5,1.9,2.3,2.8C180,200,179.3,199.1,179.6,197.3z"/>
	<path id="XMLID_115_" fill="#F78BCF" d="M117.6,110.8c5.8,0,11.1,0,16.7,0c1.2,6.9,2.5,13.6,3.5,20.3c1.2,8.2,1.8,16.5,3.4,24.8
		c2.1,10.9,2.6,22.1,3.1,33.3c0.4,9.4-10.3,17.9-19.3,15.6c-2.5-0.6-5.4-2.6-6.6-4.7c-1.9-3.6-4.2-7.2-4.1-11.8
		c0.4-11.4-0.2-22.9,0.3-34.3C115.3,139.8,116.6,125.7,117.6,110.8z M137.2,176.1c-3.7-1.7-6.4-0.7-8.7,2.1c-1.4,1.6-3,3-4.5,4.7
		c-2,2.3-2.4,6.7-0.9,8.9c1.7,2.5,6,3.8,9.3,2.8c2.5-0.7,5.2-4.1,5.2-6.8C137.6,183.9,137.3,180.2,137.2,176.1z M122.6,161.9
		c4.3,0.7,6.9-0.4,8.1-3.8c0.3-1,0.2-2.9-0.4-3.5c-2.4-2.1-5.1-1.8-7.6-0.2C122.6,156.9,122.6,159.2,122.6,161.9z"/>
	<path id="XMLID_114_" fill="#060503" d="M84.9,167.2c0-3.3,0-6.2,0-10c6.6-0.7,13-0.4,20-0.2c0,3.5,0,6.6,0,10.1
		C98.4,167.2,92,167.2,84.9,167.2z"/>
	<path id="XMLID_113_" fill="#F6C4BB" d="M70.1,178.6c0,1.7,0.4,3.6-0.1,5.1c-0.6,1.6-1.9,3.8-3.3,4.1c-1.3,0.3-3.6-1-4.6-2.2
		c-1.9-2.5-3.8-5.3-4.6-8.2c-0.6-2.1,0-5.1,1.2-7c1.8-2.8,4.9-2.8,8-1.5c2.7,1.2,4,3,3.8,5.9C70.3,176.1,70.2,177.3,70.1,178.6z"/>
	<path id="XMLID_112_" fill="#CCD6CB" d="M185.4,148.6c-0.1-0.8-0.5-3.2-0.6-5.5c-0.2-4.1,2.3-7.3,5.9-7.9c4.6-0.8,8.5,1.4,9.1,5.9
		c0.3,1.9-0.9,4-1.6,5.9c-0.8,2.3-2.1,4.6-2.7,6.9c-0.8,3-2.5,4.6-5.3,4.4c-2.6-0.2-4.8-2.3-5.1-4.9
		C185.1,152.3,185.3,151.2,185.4,148.6z"/>
	<path id="XMLID_111_" fill="#CCD6CB" d="M195.7,186.7c-3.9,0-5.8-1.8-5.7-5.4c0.1-3.1,2.7-5.8,5.6-5.8c2.8,0,6.6,3.5,6.6,6.1
		C202.2,184.1,198.9,186.7,195.7,186.7z"/>
	<path id="XMLID_110_" fill="#F8DAE2" d="M137.2,176.1c0.2,4.1,0.4,7.9,0.4,11.6c0,2.7-2.7,6.1-5.2,6.8c-3.3,1-7.6-0.3-9.3-2.8
		c-1.5-2.2-1.2-6.6,0.9-8.9c1.4-1.6,3.1-3,4.5-4.7C130.8,175.4,133.5,174.3,137.2,176.1z"/>
	<path id="XMLID_109_" fill="#F8DAE2" d="M122.6,161.9c0-2.7,0-5,0-7.5c2.6-1.6,5.2-1.8,7.6,0.2c0.7,0.6,0.8,2.5,0.4,3.5
		C129.6,161.5,126.9,162.5,122.6,161.9z"/>
</g>
</svg>
