<?xml version="1.0" encoding="utf-8"?>
<!-- Generator: Adobe Illustrator 19.0.0, SVG Export Plug-In . SVG Version: 6.00 Build 0)  -->
<svg version="1.1" id="Layer_1" xmlns="http://www.w3.org/2000/svg" xmlns:xlink="http://www.w3.org/1999/xlink" x="0px" y="0px"
	 viewBox="0 0 250 250" enable-background="new 0 0 250 250" xml:space="preserve">
<g id="XMLID_173_">
	<path id="XMLID_813_" fill="#040403" d="M63.4,233.8C29.9,214.3,9,185.5,2.1,147.3C-9.1,85.8,26,26.5,84.7,6.5
		c55.9-19.1,118.1,3.9,148,55c1.7,2.9,3,6,4.6,9c-1.1-0.7-2.4-1.2-3.3-2c-3.4-2.8-6.5-5.9-9.9-8.6c-3.4-2.7-7.7-2.9-11.6-2.4
		c-4,0.5-7.6,2.9-8.2,7.7l0,0c-0.7,0.7-1.3,1.4-2,2.1c0,0,0,0,0,0c-0.7,0.7-1.3,1.4-2,2.1c0,0,0,0,0,0c-0.7,0.7-1.4,1.4-2,2
		c-2.4,3.3-4.7,6.6-7.2,9.8c-0.7,0.8-1.8,1.3-2.8,1.9c-1.2-6-2.5-12-3.7-17.9c-1.7-9.8-5.5-18.9-10.9-27.1
		c-2.8-4.1-6.6-7.6-11.6-9.4c-7.1-2.6-14.5-2.2-21.9-1.7c-5.9,0-11.9-0.1-17.8-0.1c-10.6-1.1-20.3,1.9-29.5,6.7
		c-1.5,0.8-2.4,2.6-3.6,3.9c-0.3,0-0.5,0.2-0.6,0.5c-1.6,0.8-3.7,1.1-3.6,3.6c-0.3,0.1-0.4,0.2-0.5,0.5c-0.5,0.5-1,1.1-1.5,1.6
		c-6,6.6-8.3,14.9-10.2,23.2c-1.5,6.3-1.8,12.8-2.6,19.3c-0.1,1-0.4,2-0.6,3c-2.1-0.2-4-0.8-5-2.9c-3.4-7.1-8.4-13-13.6-18.9
		c0.4-3.4-2.7-4.4-4.4-6.4c-1-1.2-2.6-2.5-4.1-2.7c-3.3-0.3-6.9-0.5-10.1,0.4c-2.8,0.8-5.3,2.9-7.8,4.6c-0.6,0.4-0.7,1.4-1,2.1
		c0,0.3-0.1,0.6-0.1,0.9c-1.1,0.6-2.5,1.1-3.4,1.9c-2,1.9-3.6,4.1-5.6,5.9c-1.9,1.8-2.4,3.9-2.3,6.4c0.3,4.6,3.6,6.5,7.8,4.2
		c1.1-0.6,2.1-1.4,3.5-2.4c0.9,2.2,1.7,4,2.1,4.9c2.4,1.7,4.2,2.9,5.8,4.2c1.8,1.5,5.4,2.1,6.9,0.6c2.8-2.6,5.3-5.4,8.2-8.3
		c0.4,0.3,1.5,0.5,1.7,1.1c1,2.3,2.1,4.6,2.6,7c0.5,2.6,1.7,4.3,4.2,5.1c0.1,0.8,0,1.8,0.3,2.5c2.8,6.4,5.6,12.8,8.4,19.2
		c-0.6,1.1-1.2,2.2-1.9,3.2l-0.2,0.2c-0.7,1.5-1.4,3-2.1,4.6c-0.2,0.6-0.3,1.2-0.5,1.8c-2.1,0.2-2,1.7-1.8,3.2
		c-0.1,0.3-0.1,0.7-0.2,1c-2.3,1.1-2,3.2-1.8,5.2c-0.1,2.4-0.2,4.8-0.3,7.2c0.1,3.7,0.2,7.3,0.4,11c-0.3,1.6-0.5,3.1,1.8,3.1
		c0.2,0.2,0.3,0.5,0.2,0.8c-0.5,1.8-0.4,3.1,2,3.1l0,0.1c-0.8,1.9,0.3,3.3,1.5,4.5c2.1,2.1,2.5,4.5,2.5,7.3
		c-0.2,7.6-0.1,15.2-0.1,22.9C63.5,209.8,63.4,221.8,63.4,233.8z"/>
	<path id="XMLID_812_" fill="#030303" d="M242.1,81.5c3.9,8.8,5.9,18.1,7,27.6c4.4,39.1-6.7,73.3-33.5,102.2
		c-8,8.6-17.2,16-27.6,21.7c-0.1-2.5-0.2-5-0.1-7.5c0.1-2.9,0.6-5.7,0.7-8.6c0.9-15.8,1.8-31.5,2.8-47.3c0.1-1.4,0.5-3.1,1.3-4.3
		c3.7-5.5,6.4-11.4,8.3-17.7c1.5-5.1,1-10.1,0.6-15.1c0-0.7-1-1.2-1.6-1.9c-0.1-0.6-0.1-1.3-0.2-1.9c0.4-1.8,0.6-3.6-1.8-4.2
		c-0.3-0.7-0.7-1.4-1-2c-0.4-1.4-0.7-2.7-1.1-4.1c-1.4-2.1-2.8-4.1-4.1-6.2c2.9-6.9,5.7-13.8,8.6-20.7c1.2-2.8,2.6-5.5,4.1-8.1
		c1.1-1.9,2.4-1.8,4,0c-0.2,4.1,3.5,5.5,5.7,7.8c2.3,2.4,5.3,2,7.9-0.3c1.4-1.3,3.3-2.2,5.4-3.5c0.1-0.4,0.1-1.4,0.4-2.3
		c0.8-2.5,1.8-2.9,4-1.5C237.1,86.9,238.5,86.6,242.1,81.5z"/>
	<path id="XMLID_811_" fill="#FBBE05" d="M185.1,234.3c-9.9,6.5-21,10-32.3,12.7c-1.1,0.3-2.3,0.4-3.5,0.6c-0.6-2.2-1.4-4.4-1.8-6.7
		c-0.3-1.6-0.4-3.4,0-5c1-4.2,2.3-8.3,3.5-12.5c1.7-6,3.4-12,5.2-17.9c2-6.6,4.1-13.3,6.1-19.9c2-0.7,4-1.4,6-2.2
		c1.1-0.4,2.1-0.9,3.1-1.4c1.8-0.9,3.5-1.8,5.3-2.7c2.7-1.4,5.2-2.9,5.7-6.2l0.2-0.1c1.6,0.2,3.2,0.4,4.8,0.6
		c-0.2,11.1-0.3,22.3-0.5,33.4c-1.8,0.3-1.9,1.6-1.9,3c0.1,4.9,0.1,9.8,0.1,14.7C185.1,228,185.1,231.2,185.1,234.3z"/>
	<path id="XMLID_810_" fill="#FBBE05" d="M96.2,246.5c-10.5-1.9-20.3-5.7-29.6-11c-0.1-20.7-0.2-41.3-0.2-62c2.1,1.4,4.2,3,6.4,4.2
		c4,2.2,8.2,4.1,12.3,6.1c1.3,3,2.8,6,3.8,9c1.1,3.3,1.7,6.7,2.8,10c0.3,1,1.5,1.7,2.2,2.5c0.1,0.5,0.2,1.1,0.3,1.6
		c0,1-0.2,2.1,0.1,3c1.8,7.5,3.6,15,5.4,22.4c0.8,3,1.2,5.9-0.7,8.7C97.8,242.8,97.1,244.7,96.2,246.5z"/>
	<path id="XMLID_809_" fill="#056151" d="M146.5,248.1c-13.4,2.7-26.8,2.9-40.2,0.5c-0.5-1.3-1-2.7-1.5-4c3.9-5.1,9.8-0.9,14.2-3.2
		c1-2.7-1.1-6.5,3.2-8.5c0.8,3.2,1.5,5.9,2.2,8.9c3.4-2.4,0.4-5.9,2.4-9.2c1,3.3,3.6,5.5,0.8,8.4c4.1,1,4.7,0.3,5-5.8
		c1.3,0.9,2.5,1.8,3.7,2.7c2.2,1.7,3.7,1.1,4.8-1.2c0.7,0.2,1.3,0.5,2,0.7C144.2,240.9,145.4,244.5,146.5,248.1z"/>
	<path id="XMLID_808_" fill="#062C28" d="M242.1,81.5c-3.6,5.1-4.9,5.3-10.1,2.1c-2.2-1.4-3.2-1-4,1.5c-0.3,0.9-0.3,2-0.4,2.3
		c-2.1,1.4-3.9,2.2-5.4,3.5c-2.6,2.3-5.6,2.7-7.9,0.3c-2.2-2.3-5.9-3.7-5.7-7.8c1.3,0.9,2.9,1.6,3.9,2.8c1.7,2.1,3.8,3.1,6.4,3.3
		c1.6-2.2,0.5-3.6-0.8-5.1c-1.7-1.9-3.5-3.7-5-5.7c-0.4-0.6-0.3-2.2,0.3-2.7c0.5-0.5,2-0.4,2.7,0c1,0.5,1.7,1.6,2.5,2.4
		c1.6,1.7,3.1,3.6,4.9,5.2c0.5,0.5,1.7,0.4,3.2,0.6c-1.3-6.6-8-8.8-9.4-14.5c2.2-1.2,3.8-0.3,5.3,1.3c2.9,3.1,6,6,9,9
		c1.7,1.7,3.5,3.1,6.1,3c1.1-4,0.5-7.1-2.7-9.8c-2.6-2.2-4.9-4.7-7.2-7.2c-2.6-2.9-5.9-4.4-9.3-5.9c-4-1.7-7.2-0.6-10.2,2.1
		c-1.2,1.1-2.6,1.9-4,2.9c0.5-4.9,4.2-7.2,8.2-7.7c3.8-0.5,8.2-0.3,11.6,2.4c3.4,2.7,6.6,5.8,9.9,8.6c1,0.8,2.2,1.3,3.3,2
		C238.9,74.1,240.5,77.8,242.1,81.5z"/>
	<path id="XMLID_804_" fill="#13604F" d="M141.1,236.6c-1.1,2.4-2.6,2.9-4.8,1.2c-1.2-0.9-2.4-1.7-3.7-2.7c-0.3,6.2-0.9,6.9-5,5.8
		c2.8-3,0.2-5.1-0.8-8.4c-2,3.3,1,6.8-2.4,9.2c-0.7-2.9-1.4-5.7-2.2-8.9c-4.2,2.1-2.2,5.8-3.2,8.5c-4.4,2.3-10.3-1.9-14.2,3.2
		c0.5,1.3,1,2.7,1.5,4c-2.4-0.3-4.8-0.6-7.2-1c0.6-1.2,1.2-2.3,1.7-3.5c1.2-2.8,2.4-5.6,3.6-8.4c1.1-0.1,2.3,0.2,3.2-0.3
		c2.1-1.3,4.1-2.9,6.1-4.3c3.3-2.3,6.6-4.5,9.9-6.7c0.4,0.6,0.8,1.2,1.1,1.7c0,0,0.3-0.2,0.3-0.2c-0.3-0.6-0.7-1.2-1-1.8
		c1.1-1.9,2.2-2.3,3.9-0.5c2.8,2.9,5.7,5.6,8.6,8.4C138.1,233.5,139.6,235,141.1,236.6z M115,232.4c-0.5,2.9-0.8,5-1.2,7.2
		C118.3,237.8,118.4,237.3,115,232.4z M124.4,229.1c-0.1,0.3-0.2,0.6-0.4,0.9c0.3,0.1,0.6,0.4,0.8,0.3c0.2-0.1,0.3-0.5,0.4-0.8
		C125,229.3,124.7,229.2,124.4,229.1z"/>
	<path id="XMLID_803_" fill="#9B9171" d="M185.1,234.3c0-3.2,0-6.3,0-9.5c2-0.5,1.7-2.2,1.8-3.7c0-4.7,0-9.4,0-14.1
		c0.2-11.1,0.3-22.3,0.5-33.4c2.3-1.9,2.3-2.8-0.2-4.6c0.5-0.6,1-1.3,1.5-1.9c7.2-9.1,12-19.1,11.3-31.2c-0.1-1.8,0-3.6,0-5.4
		c0.5,0.6,1.5,1.2,1.6,1.9c0.4,5,0.9,10-0.6,15.1c-1.9,6.4-4.6,12.2-8.3,17.7c-0.8,1.2-1.2,2.8-1.3,4.3c-1,15.8-1.9,31.5-2.8,47.3
		c-0.2,2.9-0.6,5.7-0.7,8.6c-0.1,2.5,0.1,5,0.1,7.5C187,233.4,186.1,233.9,185.1,234.3z"/>
	<path id="XMLID_802_" fill="#534722" d="M66.4,173.5c0.1,20.7,0.2,41.3,0.2,62c-1.1-0.5-2.1-1.1-3.2-1.6c0-12,0-24,0.1-36
		c0-7.6-0.1-15.2,0.1-22.9c0.1-2.9-0.4-5.3-2.5-7.3c-1.2-1.2-2.3-2.6-1.5-4.5C62.9,165.8,65.5,169.1,66.4,173.5z"/>
	<path id="XMLID_801_" fill="#5F6D15" d="M146.5,248.1c-1.1-3.6-2.3-7.2-3.4-10.8c3.5-1.6,0.9-4.1,0.9-6.2c1-1.1,2.4-2,2.9-3.2
		c1-2.3,1.6-4.7,2.2-7.1c2-8.3,4.2-16.6,7.8-24.4c1.4-3.1,1.6-6.7,2.3-10.1c0.7-0.4,1.4-0.9,2.1-1.3c0.3,0.2,0.7,0.5,1,0.7
		c-2,6.6-4.1,13.2-6.1,19.9c-1.8,6-3.5,12-5.2,17.9c-1.2,4.2-2.5,8.3-3.5,12.5c-0.4,1.6-0.2,3.3,0,5c0.4,2.3,1.2,4.5,1.8,6.7
		C148.4,247.8,147.4,247.9,146.5,248.1z"/>
	<path id="XMLID_800_" fill="#C8B974" d="M104.4,235.6c-1.2,2.8-2.4,5.6-3.6,8.4c-0.5,1.2-1.1,2.3-1.7,3.5c-1-0.4-2-0.7-3-1.1
		c0.9-1.8,1.7-3.7,2.7-5.3c1.9-2.8,1.5-5.7,0.7-8.7c-1.9-7.5-3.7-14.9-5.4-22.4c-0.2-1,0-2-0.1-3c0.6,0.1,1.3,0.2,1.9,0.3
		c0,0,0,0,0,0c0.2,1.6-0.6,3.6,1.7,4.3c0.8,2.9,1.6,5.7,2.3,8.6c0.9,3.9,1.5,7.8,2.5,11.6c0.2,0.6,1.1,1.1,1.7,1.6
		C104.3,234.1,104.4,234.9,104.4,235.6z"/>
	<path id="XMLID_799_" fill="#F9BC05" d="M122.4,26.8c5.9,0,11.9,0.1,17.8,0.1c0.9,0.5,1.8,1.3,2.8,1.4c3.4,0.2,6.8,0.1,10.1,0.1
		c1.2,0,2.5-0.1,3.5,0.4c5.3,2.6,10.1,6,13.5,10.9c2.6,3.6,4.7,7.6,6.6,11.7c1.2,2.5,1.3,5.5,2.4,8.1c1.2,2.6,0.8,6,3.7,7.8
		c0.2,2.7-0.1,5.6,0.8,8c1.5,3.6,1.9,7.4,1.2,10.9c-1.3,6.2-5.1,11.3-10.1,15.2c-0.7-0.2-1.5-0.3-2.2-0.5c-0.4-2.5-2.2-1.8-3.7-1.8
		l-0.4-0.2c-0.6-0.6-1.1-1.6-1.8-1.8c-1.6-0.3-3.2-0.1-4.9-0.2c0,0-0.4-0.2-0.4-0.2c-0.6-0.6-1.2-1.5-1.9-1.7
		c-1.4-0.4-2.9-0.3-4.4-0.5c0.7-5,1.4-10,2.1-15.1c0.8-6.2,1.5-12.4,2.3-18.6c3.4-2.5,3.9-6,1.3-9.1c-2.2-2.5-4.9-2.5-7.3,0.1
		c-3.1,1.8-3.7,2.8-2.4,5.9c1.1,2.4,1.5,4.6,0.6,7.3c-0.5,1.5-0.1,3.4-0.3,5c-0.7,6.1-1.4,12.3-2.4,18.4c-0.7,4-1.4,4.4-5.4,4.4
		c-1.9,0-3.7-0.1-5.6-0.1c0-1.8-0.4-3.5-2.5-3.8c-2.1-0.2-4.1-0.8-5.7,1.8c-1.5,2.4-2.8,2.4-4.8,0.3c-2.2-2.3-4.4-2.8-7.1-2
		c-1.1,2.1-2.1,4-3.1,5.9c-1.4,0.1-2.9,0.2-4.3,0.2c-2.6,0-5.1,0-7.7,0c-0.4-2.3-0.5-4.7-1.1-7c-2.6-9.3-5.3-18.6-7.9-27.9
		c-0.1-0.8-0.2-1.7-0.2-2.5c-0.2-1.8,0.1-3.8-0.6-5.2c-1.5-2.7-3.4-2.6-7.7-0.3C82,54.1,82.1,57,85,58.6c0.1,0.4,0.3,0.8,0.4,1.1
		c1.2,2.5,2.7,5,3.4,7.6c1.4,4.8,2.4,9.7,3.5,14.6c0.9,4.1,3.1,7.8,2.8,12.2c-0.2,2.4-1.2,3.8-3.3,4.5c-2.5,0.8-5.1,1.6-7.6,2.4
		c-1.9,0.6-3.3,1.6-3.5,3.8c-1.4,0.5-2.7,0.9-4.1,1.4c-0.7-0.7-1.4-1.4-2-2.2c-3.3-4.5-4.8-9.6-5.1-15.2c0.2-1,0.5-2,0.6-3
		c0.8-6.4,1.1-13,2.6-19.3c2-8.3,4.2-16.6,10.2-23.2c0.5-0.5,1-1.1,1.5-1.6c0-0.3,0.2-0.5,0.5-0.5c1.2-1.2,2.4-2.4,3.6-3.6
		c0.1-0.3,0.3-0.5,0.6-0.5c4.3-1.4,7.8-4.3,12.2-5.8c5.5-1.9,10.9-3.2,16.7-3.4C119.6,28.2,121.7,29.3,122.4,26.8z"/>
	<path id="XMLID_798_" fill="#085B4B" d="M69.7,89c0.3,5.5,1.7,10.7,5.1,15.2c0.6,0.8,1.3,1.5,2,2.2c-0.1,0.6-0.1,1.2-0.2,1.8
		c-1.4,0.9-2.9,1.6-4.1,2.7c-2.9,2.5-5.7,5.2-8.5,7.8c-2.8-6.4-5.7-12.8-8.4-19.2c-0.3-0.7-0.2-1.7-0.3-2.5
		c-0.9-5.4-3-10.5-5.6-15.3c-1.5-2.8-3-2.7-5-0.3c-0.8,1.1-1.4,2.4-2.3,3.3c-2.3,2.3-4.1,5.5-8.8,5.7c0.6-1.9,0.7-3.6,1.5-4.8
		c1.7-2.5,3.9-4.7,5.8-7.1c1.1-1.5,1.6-3.1-1.2-3.9c-3.9,3.6-7.1,8.1-12.4,11.6c-0.2-4.1,0.4-6.7,3-8.8c2.7-2.2,5-4.7,7.5-7
		c-2.1-2.3-3.9-2.2-5.4-0.7c-1.9,1.9-3.7,3.9-5.4,6c-2.7,3.5-6,6.2-10.1,7.7c-2.4-1.5-2.6-3.3-1.3-5.3c1.8-2.6,3.9-5.1,5.8-7.7
		c0.9-1.3,1.6-2.8,2.3-4.3c0-0.3,0.1-0.6,0.1-0.9c2.1-0.8,4.5-1.3,6.4-2.5c6.8-4.3,11.1-4,17.1,1.5c1.2,1.1,2.6,2,3.9,3
		c5.2,5.8,10.1,11.8,13.6,18.9C65.7,88.2,67.6,88.8,69.7,89z"/>
	<path id="XMLID_797_" fill="#065A4D" d="M204.3,65.1c1.3-0.9,2.8-1.8,4-2.9c3-2.8,6.2-3.9,10.2-2.1c3.4,1.5,6.8,3.1,9.3,5.9
		c2.3,2.5,4.6,5,7.2,7.2c3.2,2.7,3.7,5.8,2.7,9.8c-2.6,0.1-4.4-1.3-6.1-3c-3-3-6.1-5.9-9-9c-1.6-1.6-3.1-2.5-5.3-1.3
		c1.4,5.6,8.1,7.9,9.4,14.5c-1.5-0.3-2.7-0.1-3.2-0.6c-1.7-1.6-3.3-3.4-4.9-5.2c-0.8-0.9-1.5-1.9-2.5-2.4c-0.7-0.4-2.2-0.4-2.7,0
		c-0.5,0.5-0.7,2.1-0.3,2.7c1.5,2,3.3,3.9,5,5.7c1.3,1.5,2.4,2.9,0.8,5.1c-2.6-0.1-4.6-1.2-6.4-3.3c-1-1.2-2.6-1.9-3.9-2.8
		c-1.7-1.8-2.9-1.9-4,0c-1.5,2.6-2.9,5.3-4.1,8.1c-2.9,6.9-5.7,13.8-8.6,20.7c-0.3-0.1-0.6-0.2-0.9-0.3c-3.4-3-6.9-6-10.3-9.1
		c0.5-4.3,3-7.6,5.3-11c1.8-2.7,3.2-5.5,2.4-8.8c0.9-0.6,2.1-1.1,2.8-1.9c2.5-3.2,4.8-6.5,7.2-9.8c0.7-0.7,1.4-1.4,2-2c0,0,0,0,0,0
		c0.7-0.7,1.3-1.4,2-2.1c0,0,0,0,0,0C203,66.5,203.6,65.8,204.3,65.1L204.3,65.1z"/>
	<path id="XMLID_796_" fill="#E9E1D6" d="M66.4,173.5c-0.9-4.3-3.4-7.6-6.8-10.4c0,0,0-0.1,0-0.1c0-1.4,0.3-3.1-2-3.1
		c0.1-0.3,0-0.6-0.2-0.8c-0.1-0.9-0.1-1.9-0.2-2.8c-0.7-3.8-1.3-7.5-2-11.3c0.1-2.4,0.2-4.8,0.3-7.2c2.8-1,1.8-3.2,1.8-5.2
		c0.1-0.3,0.1-0.7,0.2-1c1.9-0.3,2.2-1.5,1.8-3.2c0.2-0.6,0.3-1.2,0.5-1.8c2.4-0.7,3-2.3,2.1-4.6c0,0,0.2-0.2,0.2-0.2
		c1.3-0.2,2.6-0.3,3.8-0.5c0,0.9,0.1,1.9,0.1,2.8c-1.2,3.7,1.7,6.3,2.4,9.4c-0.1,2.4-0.2,4.9-0.2,7.3c-1.1,2.5-0.1,4.1,2.3,5
		l0.1,0.1c0,1.3-0.1,2.5-0.1,3.8c-3.5,1.1-4.2,1.9-3.7,4.6c0.3,2,0.9,3.9,1.6,5.8c0.6,1.9,1.9,3.2,4.1,3.1c0.1,0.3,0.2,0.6,0.3,0.9
		c1.2,2.2,1.9,2.3,4.1,0.7c0.5,0,1.1-0.1,1.6-0.1c0.8,0.1,1.7,0.2,2.5,0.3c0.3,0.1,0.7,0.1,1,0.2c1.1,3.2,2.2,6.4,3.4,9.6
		c0,1.7-1.3,3.9,1.7,4.5c0.5,0.6,0.9,1.2,1.4,1.9c0.2,1.1,0.4,2.3,0.7,3.4c-1.3-0.4-2.5-0.7-3.8-1.1c-4.1-2-8.3-4-12.3-6.1
		C70.6,176.5,68.5,174.9,66.4,173.5z"/>
	<path id="XMLID_795_" fill="#062C28" d="M23.6,66.2c-0.8,1.4-1.4,3-2.3,4.3c-1.8,2.6-3.9,5.1-5.8,7.7c-1.3,2-1.2,3.8,1.3,5.3
		c4.1-1.5,7.4-4.2,10.1-7.7c1.6-2.1,3.5-4.2,5.4-6c1.5-1.5,3.3-1.7,5.4,0.7c-2.5,2.3-4.9,4.8-7.5,7c-2.6,2.1-3.2,4.7-3,8.8
		c5.3-3.5,8.5-8,12.4-11.6c2.8,0.8,2.3,2.4,1.2,3.9c-1.9,2.4-4,4.6-5.8,7.1c-0.8,1.2-0.9,2.9-1.5,4.8c4.7-0.3,6.5-3.4,8.8-5.7
		c0.9-0.9,1.5-2.3,2.3-3.3c2-2.4,3.4-2.6,5,0.3c2.6,4.8,4.7,9.9,5.6,15.3c-2.5-0.8-3.7-2.5-4.2-5.1c-0.5-2.4-1.6-4.7-2.6-7
		c-0.3-0.6-1.3-0.8-1.7-1.1c-2.9,3-5.5,5.7-8.2,8.3c-1.5,1.5-5.1,0.9-6.9-0.6c-1.6-1.4-3.4-2.5-5.8-4.2c-0.4-0.9-1.2-2.7-2.1-4.9
		c-1.4,1-2.4,1.8-3.5,2.4c-4.1,2.3-7.5,0.4-7.8-4.2c-0.2-2.5,0.3-4.6,2.3-6.4c2-1.8,3.6-4,5.6-5.9C21.1,67.3,22.5,66.9,23.6,66.2z"
		/>
	<path id="XMLID_794_" fill="#C7A94E" d="M182.8,67.2c-2.9-1.8-2.6-5.2-3.7-7.8c-1.1-2.5-1.2-5.5-2.4-8.1c-1.9-4-4-8-6.6-11.7
		c-3.4-4.9-8.2-8.3-13.5-10.9c-1-0.5-2.3-0.4-3.5-0.4c-3.4-0.1-6.8,0.1-10.1-0.1c-0.9-0.1-1.8-0.9-2.8-1.4
		c7.4-0.5,14.8-0.9,21.9,1.7c4.9,1.8,8.8,5.3,11.6,9.4c5.5,8.2,9.2,17.3,10.9,27.1C184,65.8,183.4,66.5,182.8,67.2z"/>
	<path id="XMLID_793_" fill="#C8B974" d="M182.8,67.2c0.6-0.7,1.2-1.4,1.8-2.1c1.2,6,2.5,11.9,3.7,17.9c0.8,3.4-0.5,6.1-2.4,8.8
		c-2.3,3.4-4.8,6.8-5.3,11c-0.6,0-1.2,0.1-1.8,0.1c-1.4-0.5-3.5,0.9-4-1.7c5.1-4,8.8-9,10.1-15.2c0.7-3.5,0.3-7.3-1.2-10.9
		C182.7,72.8,183.1,69.9,182.8,67.2z"/>
	<path id="XMLID_792_" fill="#C7A94E" d="M122.4,26.8c-0.7,2.5-2.8,1.4-4.3,1.4c-5.8,0.2-11.2,1.5-16.7,3.4
		c-4.4,1.5-7.9,4.3-12.2,5.8c1.2-1.3,2.1-3.2,3.6-3.9C102.1,28.8,111.8,25.7,122.4,26.8z"/>
	<path id="XMLID_791_" fill="#8C9DA6" d="M65.9,121.4c-1.3,0.2-2.6,0.3-3.8,0.5c0.6-1.1,1.2-2.2,1.9-3.2c2.8-2.6,5.6-5.3,8.5-7.8
		c1.2-1.1,2.7-1.8,4.1-2.7c0.7,1.4,1.4,2.7,2.1,4.1c-2.8-0.1-4.5,1.7-6.2,3.4C70.3,117.7,68.1,119.5,65.9,121.4z"/>
	<path id="XMLID_790_" fill="#062C28" d="M51.1,67.3c-1.3-1-2.7-1.9-3.9-3c-6-5.5-10.2-5.8-17.1-1.5c-1.9,1.2-4.2,1.7-6.4,2.5
		c0.3-0.7,0.5-1.7,1-2.1c2.5-1.7,5-3.9,7.8-4.6c3.2-0.9,6.7-0.7,10.1-0.4c1.4,0.1,3,1.4,4.1,2.7C48.4,62.8,51.5,63.9,51.1,67.3z"/>
	<path id="XMLID_789_" fill="#8C9DA6" d="M55.2,145c0.7,3.8,1.3,7.5,2,11.3c-0.6-0.1-1.1-0.2-1.7-0.3
		C55.4,152.3,55.3,148.6,55.2,145z"/>
	<path id="XMLID_788_" fill="#C7A94E" d="M88.7,37.9c-1.2,1.2-2.4,2.4-3.6,3.6C85,39,87.1,38.7,88.7,37.9z"/>
	<path id="XMLID_787_" fill="#8C9DA6" d="M57.3,132.6c0.1,1.9,1,4.2-1.8,5.2C55.3,135.8,54.9,133.8,57.3,132.6z"/>
	<path id="XMLID_786_" fill="#8C9DA6" d="M61.8,122.1c0.9,2.3,0.3,3.8-2.1,4.6C60.4,125.1,61.1,123.6,61.8,122.1z"/>
	<path id="XMLID_785_" fill="#534722" d="M55.6,155.9c0.6,0.1,1.1,0.2,1.7,0.3c0.1,0.9,0.1,1.9,0.2,2.8
		C55.1,159,55.3,157.5,55.6,155.9z"/>
	<path id="XMLID_784_" fill="#8C9DA6" d="M59.2,128.5c0.4,1.6,0.1,2.9-1.8,3.2C57.3,130.2,57.1,128.6,59.2,128.5z"/>
	<path id="XMLID_783_" fill="#534722" d="M57.6,159.9c2.3,0,1.9,1.7,2,3.1C57.2,163,57.1,161.6,57.6,159.9z"/>
	<path id="XMLID_782_" fill="#062C28" d="M200.3,69.3c-0.7,0.7-1.4,1.4-2,2C198.9,70.7,199.6,70,200.3,69.3z"/>
	<path id="XMLID_781_" fill="#062C28" d="M202.3,67.2c-0.7,0.7-1.3,1.4-2,2.1C201,68.6,201.6,67.9,202.3,67.2z"/>
	<path id="XMLID_780_" fill="#062C28" d="M204.3,65.1c-0.7,0.7-1.3,1.4-2,2.1C203,66.5,203.6,65.8,204.3,65.1z"/>
	<path id="XMLID_779_" fill="#C7A94E" d="M84.7,42c-0.5,0.5-1,1.1-1.5,1.6C83.7,43.1,84.2,42.6,84.7,42z"/>
	<path id="XMLID_778_" fill="#E9E4DB" d="M200.1,130.6c0,1.8-0.1,3.6,0,5.4c0.7,12-4.1,22-11.3,31.2c-0.5,0.6-1,1.3-1.5,1.9
		c-2.7,0-4.8,0.7-4.6,4c0,0-0.2,0.1-0.2,0.1c-2.7-0.2-4.8,1.2-6.9,2.7c-3.7,2.7-7.5,4.9-12.1,5.7c0.7-2.1,1.4-4.2,2.2-6.3
		c1.5-3.7,3-7.3,4.5-11c0.4-0.5,0.8-1.1,1.2-1.6c2-3.2,4.3-5.6,8.6-3.9c2.9,1.1,5.1-1.2,6.3-3.1c1.5-2.5,2.4-5.6,2.8-8.5
		c0.6-4.7-0.1-5.3-5-6c-0.3,0-0.5-0.4-0.8-0.6c-0.2-1-0.5-1.9-0.7-2.9c0.1-0.4,0.3-0.7,0.4-1.1c2.4-0.5,2.2-2.2,2-4l0.1-0.2
		c0.6-0.8,1.7-1.6,1.8-2.5c0.4-2.5,0.3-5,0.4-7.4c0.5-0.6,1.4-1.2,1.5-1.8c0.3-2.4,1.9-3.8,3.7-5.1c0.6,0.9,1.2,1.7,1.7,2.6
		c1,1.4,1.9,2.8,2.9,4.1c0.3,0.7,0.7,1.4,1,2c-0.9,2,0,3.3,1.8,4.2C199.9,129.3,200,130,200.1,130.6z"/>
	<path id="XMLID_777_" fill="#534722" d="M194.2,118.3c-0.6-0.9-1.2-1.7-1.7-2.6c-0.5-1.3-1-2.5-1.5-3.8c0.3,0.1,0.6,0.2,0.9,0.3
		c1.4,2.1,2.8,4.1,4.1,6.2C195.4,118.4,194.8,118.3,194.2,118.3z"/>
	<path id="XMLID_776_" fill="#9B9171" d="M194.2,118.3c0.6,0,1.2,0.1,1.8,0.1c0.4,1.4,0.7,2.7,1.1,4.1
		C196.1,121.1,195.1,119.7,194.2,118.3z"/>
	<path id="XMLID_775_" fill="#9B9171" d="M199.9,128.7c-1.9-0.8-2.7-2.1-1.8-4.2C200.5,125.1,200.2,126.9,199.9,128.7z"/>
	<path id="XMLID_774_" fill="#D9B866" d="M163.5,181.7c4.5-0.9,8.4-3.1,12.1-5.7c2.1-1.5,4.1-3,6.9-2.7c-0.6,3.3-3,4.9-5.7,6.2
		c-1.8,0.9-3.5,1.8-5.3,2.7c-1,0.5-2.1,1-3.1,1.4c-2,0.7-4,1.4-6,2.2c-0.3-0.2-0.7-0.5-1-0.7c0.5-1.1,0.9-2.1,1.4-3.2
		c0,0,0.4-0.1,0.4-0.1L163.5,181.7z"/>
	<path id="XMLID_773_" fill="#D9B866" d="M186.9,207.1c0,4.7,0,9.4,0,14.1c0,1.5,0.2,3.1-1.8,3.7c0-4.9-0.1-9.8-0.1-14.7
		C185,208.7,185.1,207.4,186.9,207.1z"/>
	<path id="XMLID_772_" fill="#D9B866" d="M182.6,173.1c-0.2-3.3,1.9-4.1,4.6-4c2.4,1.8,2.5,2.7,0.2,4.6
		C185.8,173.5,184.2,173.3,182.6,173.1z"/>
	<path id="XMLID_771_" fill="#C8B974" d="M85.1,183.8c1.3,0.4,2.5,0.7,3.8,1.1c0.3,1,0.5,1.9,0.8,2.9l0.2,0.3c0.6,1.3,1.1,2.6,1.7,4
		c0.2,0.9,0.4,1.8,0.6,2.7c0,1.7-0.6,3.7,1.7,4.5c0.1,0.6,0.2,1.1,0.3,1.7c0,1.5-0.1,3-0.1,4.5c-0.8-0.8-1.9-1.6-2.2-2.5
		c-1.1-3.3-1.7-6.8-2.8-10C87.8,189.7,86.4,186.8,85.1,183.8z"/>
	<path id="XMLID_770_" fill="#8C9DA6" d="M93.9,205.4c0-1.5,0.1-3,0.1-4.4c3,1.3,1.6,4.1,2,6.3c-0.6-0.1-1.3-0.2-1.9-0.3
		C94.1,206.5,94,205.9,93.9,205.4z"/>
	<path id="XMLID_769_" fill="#C91416" d="M104.4,235.6c-0.1-0.8-0.1-1.6-0.2-2.3c0.6-0.5,1.5-0.8,1.9-1.5c3-5.8,5.8-11.6,8.8-17.4
		c0.7-1.3,1.7-2.3,3-3.9c2,2.2,3.5,3.9,5,5.7c2.7,3.2,2.9,3.3,5.8,0.5c2.2-2,4.3-4.1,6.9-6.6c1,2.2,1.8,3.8,2.4,5.5
		c2,5.2,3.9,10.3,5.9,15.5c0,2.1,2.6,4.6-0.9,6.2c-0.7-0.2-1.3-0.5-2-0.7c-1.5-1.5-3-3-4.5-4.5c-2.9-2.8-5.8-5.5-8.6-8.4
		c-1.7-1.8-2.8-1.4-3.9,0.5c-0.2,0-0.4,0.1-0.5,0.2c-3.3,2.2-6.6,4.4-9.9,6.7c-2.1,1.4-4,3-6.1,4.3
		C106.8,235.9,105.5,235.6,104.4,235.6z"/>
	<path id="XMLID_768_" fill="#056151" d="M115,232.4c3.4,4.9,3.3,5.4-1.2,7.2C114.2,237.4,114.5,235.3,115,232.4z"/>
	<path id="XMLID_767_" fill="#056151" d="M123.6,224.4c0.1-0.2,0.3-0.3,0.5-0.2c0.3,0.6,0.7,1.2,1,1.8c0,0-0.3,0.2-0.3,0.2
		C124.4,225.6,124,225,123.6,224.4z"/>
	<path id="XMLID_766_" fill="#056151" d="M124.4,229.1c0.3,0.1,0.6,0.2,0.9,0.4c-0.1,0.3-0.2,0.7-0.4,0.8c-0.2,0.1-0.6-0.2-0.8-0.3
		C124.1,229.7,124.3,229.4,124.4,229.1z"/>
	<path id="XMLID_765_" fill="#13604F" d="M144,231.1c-2-5.2-3.9-10.3-5.9-15.5c-0.6-1.7-1.5-3.3-2.4-5.5c-2.6,2.5-4.7,4.6-6.9,6.6
		c-2.9,2.7-3.1,2.7-5.8-0.5c-1.5-1.8-3-3.5-5-5.7c-1.3,1.6-2.4,2.6-3,3.9c-3,5.8-5.8,11.6-8.8,17.4c-0.3,0.6-1.2,1-1.9,1.5
		c-0.6-0.5-1.6-1-1.7-1.6c-0.9-3.8-1.6-7.7-2.5-11.6c-0.7-2.9-1.5-5.7-2.3-8.6c0-1.7,0.9-3.7-1.7-4.3c0,0,0,0,0,0
		c-0.4-2.2,1-5-2-6.3c-0.1-0.6-0.2-1.1-0.3-1.7c0-1.7,0.7-3.7-1.7-4.5c-0.2-0.9-0.4-1.8-0.6-2.7c-0.6-1.3-1.1-2.6-1.7-4
		c0,0-0.2-0.3-0.2-0.3c2.3-2.5,5.3-1.5,7.5-0.6c4.2,1.6,8.5,1.5,12.9,1.8c1.1,3,2.1,6,3.3,9c2.9,6.6,2.9,6.6,5,7.8
		c-0.1-1.6-0.2-3.1-0.3-4.6c0.3-2.3,0.8-4.6,1-6.9c0.3-4.5,0.5-4.7,5.1-4.8c2.7,0,5.3-0.2,8-0.3c1.5,1.5,2.1,3.2,2,5.4
		c-0.1,2.2-0.1,4.3,0.2,6.5c0.1,0.7,1.1,1.3,1.6,2c0.2,0.9,0.4,1.7,0.6,2.6c1.7-3.5,4.2-6.5,3.5-10.5l0.2,0.2c2-0.8,1.9-2.5,1.8-4.2
		c0.9-0.9,1.9-1.9,2.8-2.8c2.1-0.1,4.3-0.1,6.4-0.4c2.7-0.4,5.3-1,7.9-1.5c-0.7,3.4-0.9,7.1-2.3,10.1c-3.7,7.8-5.8,16.1-7.8,24.4
		c-0.6,2.4-1.2,4.8-2.2,7.1C146.3,229.2,145,230.1,144,231.1z"/>
	<path id="XMLID_764_" fill="#82ADB6" d="M159.3,186.3c-2.6,0.5-5.2,1.1-7.9,1.5c-2.1,0.3-4.3,0.3-6.4,0.4c-0.2-1.1-0.6-2.2-0.6-3.3
		c-0.1-2.1-0.1-4.3,2.3-5.3l0.3-0.1l0.3,0.2c-0.3,1.2-0.6,2.5-1.1,4.6c4.1-0.5,7.5-0.8,10.9-1.3c1.9-0.3,3.8-0.8,5.7-1.2
		c-0.5,1.1-0.9,2.2-1.4,3.2C160.6,185.4,159.9,185.8,159.3,186.3z"/>
	<path id="XMLID_763_" fill="#8C9DA6" d="M96,207.2c2.6,0.6,1.8,2.6,1.7,4.3C95.5,210.8,96.2,208.8,96,207.2z"/>
	<path id="XMLID_762_" fill="#EEE3D3" d="M78.6,112.2c-0.7-1.4-1.4-2.7-2.1-4.1c0.1-0.6,0.1-1.2,0.2-1.8c1.4-0.5,2.7-0.9,4.1-1.4
		c1-0.2,2-0.2,2.9-0.6c4.8-1.9,9.6-3.9,14.3-5.9c4.4,0.7,8.1-1.9,12.1-2.9c0.1,0,0.1-0.3,0.1-0.5c1.4-0.1,2.9-0.2,4.3-0.2
		c1.2,0.1,2.4,0.3,3.6,0.4c0.7,2.4,1.5,4.8,2,7.2c0.2,0.8-0.4,1.8-0.6,2.7c-2.2,0.3-4.8-0.8-6.1,2c-1.6,0.1-3.2,0.2-4.8,0.3
		c-4.5-0.3-8.5,0.6-11.8,3.9c-0.6,0.2-1.3,0.3-1.9,0.5c-2.2-1.2-3.4-0.2-4.2,1.9c-0.6,0.2-1.2,0.4-1.9,0.6c-2.2,0.7-4.3,1.3-6,1.9
		C81.3,114.7,80,113.5,78.6,112.2L78.6,112.2z"/>
	<path id="XMLID_761_" fill="#EEE3D3" d="M174.7,101.3c0.5,2.5,2.7,1.2,4,1.7c-0.1,0.5,0,1.3-0.3,1.4c-3.3,1.5-4.1,4.5-4.4,7.7
		c-1.5-0.2-3.2-0.1-4.5-0.7c-6.7-3.1-13.9-4-21.2-4.9c-4.9-0.6-9.7-1.2-14.6-1.8c0.7-2.1,1.5-4.3,2.2-6.4c0.1-1.2,0.2-2.3,0.3-3.5
		c4.9-0.1,9.8-0.2,14.7-0.3c0.7,0.2,1.3,0.4,2,0.5c0.7,0.5,1.4,1.4,2.2,1.5c1.9,0.2,3.9,0.1,5.9,0.1c0,0,0.4,0.2,0.4,0.2
		c0.6,0.6,1.1,1.6,1.8,1.7c1.6,0.3,3.2,0.2,4.8,0.2c0,0,0.4,0.2,0.4,0.2c0.4,2.4,2.2,1.8,3.7,1.8C173.2,101,174,101.2,174.7,101.3z"
		/>
	<path id="XMLID_760_" fill="#D9B866" d="M98.1,98.5c-4.8,2-9.5,3.9-14.3,5.9c-0.9,0.4-1.9,0.4-2.9,0.6c0.1-2.2,1.6-3.2,3.5-3.8
		c2.5-0.8,5.1-1.6,7.6-2.4c2.2-0.7,3.2-2.1,3.3-4.5c0.3-4.4-1.9-8.1-2.8-12.2c-1.1-4.9-2.1-9.8-3.5-14.6c-0.8-2.7-2.3-5.1-3.4-7.6
		c3.1,1.3,5.2-1.4,7.8-2.1c0.1,0.8,0.2,1.7,0.2,2.5c-1.2,0.4-2.3,0.7-3.5,1.1c2.1,8.3,4.1,15.9,6,23.6c0.8,3.2,1.4,6.5,2.1,9.8
		C98.1,96,98.1,97.3,98.1,98.5z"/>
	<path id="XMLID_759_" fill="#D9B866" d="M151.2,94.6c-4.9,0.1-9.8,0.2-14.7,0.3c0-0.7,0-1.4,0-2.1c0.5,0,0.9-0.1,1.4-0.1
		c1.9,0,3.7,0.1,5.6,0.1c4,0,4.7-0.4,5.4-4.4c1-6.1,1.7-12.2,2.4-18.4c0.2-1.7-0.2-3.5,0.3-5c0.9-2.6,0.4-4.8-0.6-7.3
		c-1.4-3.1-0.8-4.1,2.4-5.9c0,0,0.3,0.3,0.3,0.3c-0.1,2-0.3,4-0.3,5.9c0,1.4,0.3,2.7,2,3c-0.2,3.4,0.1,6.8-0.6,10.1
		C153,79,151.2,86.7,151.2,94.6z"/>
	<path id="XMLID_758_" fill="#534722" d="M98.1,94.8c-0.7-3.3-1.3-6.6-2.1-9.8c-1.9-7.7-3.9-15.3-6-23.6c1.2-0.4,2.3-0.7,3.5-1.1
		c2.7,9.3,5.4,18.6,7.9,27.9c0.6,2.3,0.8,4.6,1.1,7c-0.7,1.4-1.3,2.6-2.8,0.7C99.4,95.4,98.7,95.1,98.1,94.8z"/>
	<path id="XMLID_757_" fill="#C8B974" d="M137.8,92.7c-0.5,0-0.9,0.1-1.4,0.1c-0.3-0.9-0.5-1.8-0.9-3.1c-4.2,2.7-5,7-6.5,10.6
		c-2.3,0.5-2.8-0.7-3.2-2.4c-0.6-2.1-1.3-4.2-2.2-6.2c-0.3-0.7-1.7-1.4-2.2-1.2c-0.7,0.3-1.3,1.5-1.4,2.3c-0.1,1.3,0.3,2.7,0.5,4
		c0.4,2.3,1.1,4.6,1.3,7c0.1,0.9-0.8,1.9-1.2,2.8c-0.3-0.5-0.7-1-1-1.5c0.2-0.9,0.7-1.8,0.6-2.7c-0.5-2.4-1.3-4.8-2-7.2
		c-1.2-0.1-2.4-0.3-3.6-0.4c1-1.9,2-3.8,3.1-5.9c2.6-0.8,4.9-0.3,7.1,2c2,2.2,3.4,2.2,4.8-0.3c1.6-2.6,3.6-2.1,5.7-1.8
		C137.5,89.2,137.8,90.9,137.8,92.7z"/>
	<path id="XMLID_756_" fill="#534722" d="M151.2,94.6c0-7.9,1.8-15.6,3.5-23.3c0.7-3.3,0.4-6.7,0.6-10.1c1-0.4,2-0.8,2.9-1.2
		c0.4,0.3,0.8,0.6,1.2,1c-0.8,6.2-1.5,12.4-2.3,18.6c-0.7,5-1.4,10.1-2.1,15.1c-0.6,0.2-1.2,0.3-1.8,0.5
		C152.5,95,151.8,94.8,151.2,94.6z"/>
	<path id="XMLID_755_" fill="#EEE3D3" d="M93.3,57.7c-2.6,0.7-4.7,3.4-7.8,2.1c-0.1-0.4-0.3-0.8-0.4-1.1c0-2.2,0-4.3-0.1-6.5
		c4.4-2.3,6.2-2.4,7.7,0.3C93.5,53.9,93.1,55.9,93.3,57.7z"/>
	<path id="XMLID_754_" fill="#D9B866" d="M159.4,60.9c-0.4-0.3-0.8-0.6-1.2-1c2.7-6.5,1.6-8.3-4.6-7.8c0,0-0.3-0.3-0.3-0.3
		c2.4-2.6,5.2-2.7,7.3-0.1C163.2,54.9,162.7,58.4,159.4,60.9z"/>
	<path id="XMLID_753_" fill="#C8B974" d="M98.1,94.8c0.6,0.4,1.3,0.6,1.7,1.1c1.5,1.9,2.2,0.6,2.8-0.7c2.6,0,5.1,0,7.7,0
		c0,0.2-0.1,0.5-0.1,0.5c-4,1-7.7,3.6-12.1,2.9C98.1,97.3,98.1,96,98.1,94.8z"/>
	<path id="XMLID_752_" fill="#C8B974" d="M153.2,95.1c0.6-0.2,1.2-0.3,1.8-0.5c1.5,0.1,3,0.1,4.4,0.5c0.7,0.2,1.3,1.1,1.9,1.7
		c-2,0-4,0.1-5.9-0.1C154.6,96.6,153.9,95.7,153.2,95.1z"/>
	<path id="XMLID_751_" fill="#C8B974" d="M168.3,98.9c-1.6-0.1-3.3,0.1-4.8-0.2c-0.7-0.1-1.2-1.1-1.8-1.7c1.6,0,3.3-0.1,4.9,0.2
		C167.2,97.3,167.7,98.3,168.3,98.9z"/>
	<path id="XMLID_750_" fill="#D9B866" d="M85,52.2c0,2.2,0,4.3,0.1,6.5C82.1,57,82,54.1,85,52.2z"/>
	<path id="XMLID_749_" fill="#C8B974" d="M172.5,100.8c-1.6,0-3.3,0.6-3.7-1.8C170.3,99,172.1,98.4,172.5,100.8z"/>
	<path id="XMLID_748_" fill="#82ADB6" d="M174.1,112.1c0.3-3.2,1-6.1,4.4-7.7c0.3-0.1,0.2-0.9,0.3-1.4c0.6,0,1.2-0.1,1.8-0.1
		c3.4,3,6.9,6,10.3,9.1c0.5,1.3,1,2.5,1.5,3.8c-1.8,1.3-3.3,2.7-3.7,5.1c-0.1,0.7-1,1.2-1.5,1.8c-0.2-0.1-0.3-0.3-0.5-0.4
		c0.6-2.4,1.1-4.8,1.8-7.5c-1.6-1.5-3.2-3.2-5-4.7c-4.3-3.6-4.3-3.5-7.6,0.9c-0.5,0.7-1.1,1.3-1.7,1.9c0,0-0.3-0.3-0.3-0.3
		L174.1,112.1z"/>
	<path id="XMLID_747_" fill="#070709" d="M120.6,106.6c0.4-0.9,1.3-1.9,1.2-2.8c-0.2-2.4-0.9-4.7-1.3-7c-0.2-1.3-0.6-2.7-0.5-4
		c0.1-0.8,0.7-2,1.4-2.3c0.5-0.2,1.9,0.6,2.2,1.2c0.9,2,1.6,4.1,2.2,6.2c0.5,1.7,1,2.9,3.2,2.4c1.5-3.6,2.3-7.9,6.5-10.6
		c0.4,1.3,0.7,2.2,0.9,3.1c0,0.7,0,1.4,0,2.1c-0.1,1.2-0.2,2.3-0.3,3.5c-2.6,1.3-2.6,3.9-3.1,6.2c0.3,0.1,0.6,0.1,1,0.2
		c4.9,0.6,9.7,1.3,14.6,1.8c7.2,0.8,14.4,1.8,21.2,4.9c1.3,0.6,3,0.5,4.5,0.7c0,0-0.1,0.4-0.1,0.4s0.3,0.3,0.3,0.3
		c3.6,3.2,7.3,6.5,10.9,9.7c-0.1,3.4-0.1,6.8-0.2,10.1c0,0-0.1,0.2-0.1,0.2c-1.9,0.7-2.4,2.1-2,4c-0.1,0.4-0.3,0.7-0.4,1.1
		c-4.2,1.9-7.2,5.7-11.9,7.1c-7,2.1-10.1,1.1-12.2-5.7c-3.2-1.2-4.8,1.6-7.1,2.7c-1.5-0.2-2.9-0.1-3.2,1.8c-0.3,0-0.6,0-0.9,0.1
		c-2.8,0-5.6,0-8.3,0.1c-0.3-0.1-0.6-0.2-0.9-0.2c-0.7-0.7-1.4-1.3-2.1-2c0,0,0,0,0,0c0-1.2,0.2-2.4,0-3.5c-0.2-0.8-0.8-2-1.4-2.2
		c-0.6-0.2-1.6,0.6-2.4,1.1c-1.6,1.1-3.2,2.3-4.7,3.5c-1.3,1-2.5,2-3.7,3.1l0,0c-4.3,0-8.7,1.4-13-0.2c-0.2-1.6-0.6-3.3-0.4-4.9
		c0.2-2.1-0.7-3.1-2.6-3.5c-5.9,4.5-19.2,11.9-27.2,13.1c-0.6,0.1-1.1,1-1.7,1.6c-1.2-0.1-2.3-0.1-3.5-0.2c-1.5-1.2-3.1-2.5-4.6-3.7
		c0,0-0.1-0.1-0.1-0.1c-0.8-1.7-1.5-3.3-2.3-5c0.1-2.4,0.2-4.9,0.2-7.3c1.4-0.5,2.1-1.5,1.6-3c1.5-1.5,3-3,4.5-4.4
		c2.7-2.6,5.3-5.2,8-7.7c2.7-0.5,5-1.6,6.4-4.1c0.6-0.2,1.2-0.4,1.9-0.6c1.9,0.5,3.2-0.3,4.2-1.9c0.6-0.2,1.3-0.3,1.9-0.5
		c4.2-0.4,8.3-1.4,11.8-3.9c1.6-0.1,3.2-0.2,4.8-0.3C115.8,107,118.2,106.8,120.6,106.6z"/>
	<path id="XMLID_746_" fill="#0A1921" d="M85.2,175.1c-1.1-3.2-2.2-6.4-3.3-9.6c2.2-1.8,4.4-0.6,6,0.6c4.9,3.4,10.6,4.5,16.2,6
		c0.5,1.1,1,2.3,1.5,3.4c0.3,1.4,0.6,2.7,0.9,4.1c-4.7-1-9.4-2-14.2-3c-1.9-0.4-3.9-0.7-5.9-1C86,175.4,85.6,175.2,85.2,175.1z"/>
	<path id="XMLID_745_" fill="#0F71B4" d="M82.5,118.5c-2.7,2.6-5.4,5.2-8,7.7c-1.5,1.5-3,2.9-4.5,4.4c-0.5-0.7-1.1-1.5-1.6-2.3
		c-0.9-1.4-1.6-2.8-2.5-4.2c0-0.9-0.1-1.9-0.1-2.8c2.2-1.9,4.5-3.7,6.5-5.8c1.8-1.8,3.5-3.5,6.2-3.4c0,0,0.1,0.1,0.1,0.1
		C78.7,115.1,80.1,117.1,82.5,118.5z"/>
	<path id="XMLID_744_" fill="#0F71B4" d="M86.4,175.5c2,0.3,3.9,0.6,5.9,1c4.7,1,9.4,2,14.2,3c0.8,0.9,1.5,1.8,2.3,2.7
		c-0.2,0.3-0.2,0.6,0,0.9c0,0.5,0,1.1,0.1,1.6c-1.7,1.4-3.3,0.8-5.2,0.3c-5.1-1.3-10.3-2.4-15.4-3.6c-0.5-0.6-0.9-1.2-1.4-1.9
		C86.7,178.2,86.5,176.9,86.4,175.5z"/>
	<path id="XMLID_743_" fill="#056BB4" d="M104.1,172c-5.6-1.5-11.3-2.6-16.2-6c-1.7-1.1-3.8-2.4-6-0.6c-0.3-0.1-0.7-0.1-1-0.2
		c0-0.7,0-1.4-0.1-2.1c0.9-3.4,1.6-3.8,3.9-1.5c2.1,2.1,4.1,3.2,6.9,1.6c0.1,0.5,0.3,1.1,0.4,1.6c0.2,0.9,0.4,1.4,1,0.2
		c1.3,0.1,2.7,0.2,4,0.3c0.2,2,1.3,3.6,3.2,2.7c2.4-1.1,4.4-3,5.8-4c-0.8-2.3-1.4-3.9-1.9-5.4c1.8-0.4,3.6-0.8,5.6-1.2
		c0.2,1,0.4,1.9,0.6,2.9c-0.1,0.6-0.3,1.1-0.4,1.7c-1.9,0.5-1.9,1.9-1.6,3.5c-0.1,0.6-0.3,1.2-0.4,1.8c-0.6,0-1.2,0.1-1.8,0.1
		c-2.8,0.3-1.9,2.4-2.1,4C104.2,171.6,104.1,171.8,104.1,172z"/>
	<path id="XMLID_742_" fill="#82ADB6" d="M88.2,181.4c5.1,1.2,10.3,2.2,15.4,3.6c1.8,0.5,3.5,1.1,5.2-0.3c0.5,0,0.9,0.1,1.4,0.1
		c0,0,0.1,0.2,0.1,0.2c-0.1,0.2-0.1,0.4,0,0.5c0,0.8,0.1,1.6,0.1,2.4c0,0.3-0.1,0.6-0.3,0.9c-4.3-0.2-8.6-0.1-12.9-1.7
		c-2.2-0.9-5.2-1.9-7.5,0.6c-0.3-1-0.5-1.9-0.8-2.9C88.7,183.7,88.4,182.6,88.2,181.4z"/>
	<path id="XMLID_741_" fill="#064879" d="M78.3,164.9c-0.5,0-1.1,0.1-1.6,0.1c-0.6-0.4-1.2-0.7-1.8-1.1c-0.7-0.6-1.4-1.3-2.1-1.9
		c-1.3-1.9-2.9-3.6-3.8-5.7c-0.6-1.5-1.4-3.7,1.4-4.3c0.6,3.3,3.7,1.3,5.5,2.7c0.8,2.6,3.4,4.9,2.6,8.4
		C78.5,163.7,78.4,164.3,78.3,164.9z"/>
	<path id="XMLID_740_" fill="#82ADB6" d="M70.4,152.1c-2.8,0.7-2,2.9-1.4,4.3c0.9,2,2.5,3.8,3.8,5.7c-0.2,0.4-0.3,0.8-0.5,1.3
		c-2.2,0.1-3.4-1.3-4.1-3.1c-0.7-1.9-1.3-3.8-1.6-5.8c-0.5-2.8,0.2-3.5,3.7-4.6c0.2,0.2,0.3,0.3,0.5,0.5
		C70.7,150.9,70.6,151.5,70.4,152.1z"/>
	<path id="XMLID_739_" fill="#8C9DA6" d="M66,124.2c0.8,1.4,1.6,2.8,2.5,4.2c0.5,0.8,1.1,1.5,1.6,2.3c0.4,1.5-0.3,2.5-1.7,3
		C67.6,130.5,64.8,127.9,66,124.2z"/>
	<path id="XMLID_738_" fill="#8C9DA6" d="M70.5,146c1.5,1.2,3.1,2.5,4.6,3.7c-1.4,0.2-2.8,0.4-4.2,0.5c-0.2-0.2-0.3-0.3-0.5-0.5
		C70.4,148.5,70.5,147.3,70.5,146z"/>
	<path id="XMLID_737_" fill="#8C9DA6" d="M68.2,140.9c0.8,1.7,1.5,3.3,2.3,5C68.1,145,67,143.5,68.2,140.9z"/>
	<path id="XMLID_736_" fill="#82ADB6" d="M74.9,164c0.6,0.4,1.2,0.7,1.8,1.1c-2.1,1.6-2.9,1.5-4.1-0.7
		C73.4,164.2,74.2,164.1,74.9,164z"/>
	<path id="XMLID_735_" fill="#82ADB6" d="M86.4,175.5c0.2,1.4,0.3,2.7,0.5,4.1c-3-0.6-1.6-2.8-1.7-4.5
		C85.6,175.2,86,175.4,86.4,175.5z"/>
	<path id="XMLID_734_" fill="#0F71B4" d="M74.9,164c-0.7,0.1-1.5,0.2-2.2,0.3c-0.1-0.3-0.2-0.6-0.3-0.9c0.1-0.4,0.3-0.8,0.5-1.3
		C73.5,162.7,74.2,163.4,74.9,164z"/>
	<path id="XMLID_733_" fill="#82ADB6" d="M78.3,164.9c0.1-0.6,0.1-1.2,0.2-1.8c0.7,0,1.5,0,2.2,0.1c0,0.7,0,1.4,0.1,2.1
		C80,165.1,79.2,165,78.3,164.9z"/>
	<path id="XMLID_729_" fill="#0F71B4" d="M151.3,142c2.3-1.1,3.9-3.9,7.1-2.7c2.1,6.8,5.2,7.8,12.2,5.7c4.7-1.4,7.7-5.2,11.9-7.1
		c0.2,1,0.5,2,0.7,2.9c0.3,0.2,0.5,0.6,0.8,0.6c4.9,0.7,5.6,1.2,5,6c-0.4,2.9-1.3,6-2.8,8.5c-1.2,1.9-3.4,4.2-6.3,3.1
		c-4.4-1.7-6.6,0.7-8.6,3.9c-0.4,0.6-0.8,1.1-1.2,1.6c-1.6,0.4-3.3,0.6-4.7,1.4c-5.2,2.8-10.8,4.3-16.4,6c-1.3-0.1-2.5-0.2-3.8-0.3
		c-0.6-4,0.7-8.3-1.8-12.1c0-0.1,1-0.9,1.6-1.3c8.1,0.6,12-4.5,8.7-12.3c-1.1,2-2.1,3.4-2.7,5.1c-1.3,3.9-3.1,4.3-6.4,1.4
		c-0.1-2.6-2-2.8-3.3-1.5c-1.8,1.7-3.6,1.2-5.6,1.3l0,0c-0.8-1-1.3-2.4-2.3-2.8c-2-0.8-4.1-1-6.2-1.3c-2.4-0.4-4.2-1.2-3.8-4.1
		c0,0,0,0,0,0c1.3,0,2.7,0,4,0c0.7-0.7,1.4-1.3,2.2-2c2-3,4-0.9,6,0c0,0,0,0,0,0c0,1.4,0.7,2.1,2.1,2c0.3,0,0.6,0.1,0.9,0.2
		c2.7,2.7,5.9,2.6,8.3-0.1c0.3-0.1,0.6-0.2,0.9-0.1C149.6,144,151.1,144.1,151.3,142z M157,157.8c-2.1-0.1-3.4,1.2-3.6,3.4
		c-0.2,2.5,1.1,4.2,3.3,4.2c2.1,0,4.4-2,4.5-4.1C161.3,159.3,159.5,157.9,157,157.8z M179.2,155.6c3.3,0.3,4.1,0.1,5.3-1.7
		c2.1-3.1,1.3-6.1-0.4-9.2C182.4,148.3,180.9,151.8,179.2,155.6z"/>
	<path id="XMLID_728_" fill="#0A1921" d="M149.1,171.8c5.6-1.7,11.2-3.2,16.4-6c1.4-0.8,3.1-0.9,4.7-1.4c-1.5,3.7-3,7.3-4.5,11
		c-6.2,1.4-12.3,2.8-18.5,4.2l-0.3-0.2c0,0-0.3,0.1-0.3,0.1c0.2-1.3,0.4-2.7,0.5-4C149.4,175.1,148.8,173.2,149.1,171.8z"/>
	<path id="XMLID_727_" fill="#0F71B4" d="M147.2,179.6c6.2-1.4,12.3-2.8,18.5-4.2c-0.7,2.1-1.4,4.2-2.2,6.3c0,0-0.4,0-0.4,0
		s-0.4,0.1-0.4,0.1c-1.9,0.4-3.8,0.9-5.7,1.2c-3.4,0.5-6.8,0.8-10.9,1.3C146.6,182.1,146.9,180.8,147.2,179.6z"/>
	<path id="XMLID_726_" fill="#8C9DA6" d="M185,132.6c0.1-3.4,0.1-6.8,0.2-10.1c0.5-0.1,1-0.1,1.5-0.2c0.1,0.1,0.3,0.3,0.5,0.4
		c-0.1,2.5-0.1,5-0.4,7.4C186.7,131,185.6,131.8,185,132.6z"/>
	<path id="XMLID_725_" fill="#8C9DA6" d="M183,136.8c-0.4-1.9,0.1-3.3,2-4C185.2,134.6,185.3,136.3,183,136.8z"/>
	<path id="XMLID_724_" fill="#8C9DA6" d="M92,194.7c2.4,0.8,1.7,2.8,1.7,4.5C91.5,198.4,92.1,196.5,92,194.7z"/>
	<path id="XMLID_723_" fill="#82ADB6" d="M89.8,188.1c0.6,1.3,1.1,2.6,1.7,4C90.9,190.7,90.4,189.4,89.8,188.1z"/>
	<path id="XMLID_722_" fill="#C4CAC2" d="M147.2,175.5c-0.2,1.3-0.4,2.7-0.5,4c-2.5,1-2.5,3.2-2.3,5.3c0.1,1.1,0.4,2.2,0.6,3.3
		c-0.9,0.9-1.9,1.9-2.8,2.8c-0.4,0-0.7,0-1.1-0.1c-0.2-2-1.3-3.1-3.4-2.8c-1.8,0.3-3.6,0.6-5.5,0.9c-2.7,0.1-5.3,0.3-8,0.3
		c-4.6,0.1-4.8,0.3-5.1,4.8c-0.2,2.3-0.6,4.6-1,6.9c-0.2-2.1-0.3-4.3-0.6-6.4c-0.3-2.1-0.7-4.2-1-6.3c0.1-2.5,0.4-4.9-1.4-7
		c-0.6-0.7-0.4-2.2-0.6-3.3c0.3-0.1,0.6-0.2,0.9-0.3c1.1,1.5,2.2,3,3.3,4.4c0.6,4.2,0.6,4.3,4.3,4.3c2.2,0,4.4,0.1,6.5,0
		c3.5-0.1,3.8-0.5,4.4-4.5c0.9-1.4,1.8-2.8,2.6-4.2c3.6,0,7.6,0.8,8.8-4.2C145.9,174.3,146.5,174.9,147.2,175.5z"/>
	<path id="XMLID_721_" fill="#C7A94E" d="M116.5,188.4c0.3,2.1,0.8,4.2,1,6.3c0.3,2.1,0.4,4.3,0.6,6.4c0.1,1.5,0.2,3,0.3,4.6
		c-2.1-1.3-2.2-1.2-5-7.8c-1.3-2.9-2.2-6-3.3-9c0.2-0.3,0.3-0.6,0.3-0.9C112.4,188.1,114.4,188.2,116.5,188.4z"/>
	<path id="XMLID_720_" fill="#C7A94E" d="M132.2,189.1c1.8-0.3,3.6-0.7,5.5-0.9c2.1-0.3,3.2,0.7,3.4,2.8c-0.2,1.4-0.5,2.9-0.7,4.3
		c0,0-0.2-0.2-0.2-0.2c-1.4,2.6-2.7,5.3-4.1,7.9c-0.6-0.7-1.6-1.3-1.6-2c-0.3-2.1-0.3-4.3-0.2-6.5
		C134.2,192.3,133.7,190.5,132.2,189.1z"/>
	<path id="XMLID_719_" fill="#C8B974" d="M136,202.9c1.4-2.6,2.7-5.3,4.1-7.9c0.7,4-1.8,7-3.5,10.5
		C136.4,204.6,136.2,203.8,136,202.9z"/>
	<path id="XMLID_718_" fill="#82ADB6" d="M140.3,195.2c0.2-1.4,0.5-2.9,0.7-4.3c0.4,0,0.7,0,1.1,0.1
		C142.2,192.7,142.3,194.4,140.3,195.2z"/>
	<path id="XMLID_717_" fill="#8C9DA6" d="M82.5,118.5c-2.4-1.3-3.8-3.3-3.8-6.2c1.3,1.2,2.6,2.4,4.2,3.9c1.7-0.5,3.9-1.2,6-1.9
		C87.5,116.8,85.3,118,82.5,118.5z"/>
	<path id="XMLID_716_" fill="#8C9DA6" d="M108.7,107.5c-3.5,2.5-7.6,3.5-11.8,3.9C100.2,108.1,104.2,107.2,108.7,107.5z"/>
	<path id="XMLID_715_" fill="#8C9DA6" d="M120.6,106.6c-2.4,0.2-4.8,0.4-7.1,0.6c1.3-2.9,4-1.7,6.1-2
		C119.9,105.6,120.3,106.1,120.6,106.6z"/>
	<path id="XMLID_714_" fill="#8C9DA6" d="M95,111.9c-0.9,1.6-2.2,2.4-4.2,1.9C91.5,111.7,92.8,110.7,95,111.9z"/>
	<path id="XMLID_713_" fill="#C8B974" d="M133.9,104.7c-0.3-0.1-0.6-0.1-1-0.2c0.6-2.3,0.5-4.9,3.1-6.2
		C135.4,100.5,134.6,102.6,133.9,104.7z"/>
	<path id="XMLID_712_" fill="#EEE3D3" d="M153.6,52.2c6.2-0.5,7.3,1.3,4.6,7.8c-1,0.4-2,0.8-2.9,1.2c-1.7-0.3-2-1.6-2-3
		C153.3,56.2,153.5,54.2,153.6,52.2z"/>
	<path id="XMLID_711_" fill="#0F71B4" d="M186.8,122.2c-0.5,0.1-1,0.1-1.5,0.2c-3.6-3.2-7.3-6.5-10.9-9.7c0.6-0.6,1.2-1.2,1.7-1.9
		c3.3-4.4,3.3-4.4,7.6-0.9c1.8,1.5,3.4,3.2,5,4.7C187.9,117.4,187.4,119.8,186.8,122.2z"/>
	<path id="XMLID_710_" fill="#0F71B4" d="M80.8,163.2c-0.7,0-1.5,0-2.2-0.1c0.8-3.4-1.8-5.7-2.6-8.4c-1.8-1.3-4.9,0.6-5.5-2.7
		c0.2-0.6,0.3-1.2,0.5-1.8c1.4-0.2,2.8-0.4,4.2-0.5c1.1,0.1,2.3,0.1,3.5,0.2c4.8,0.5,9.3,0.2,13.2-3.1c1-0.8,2.8-0.6,4.3-0.9
		c0,0.7,0,1.4,0,2.1c-0.1,0.7-0.1,1.4-0.2,2c-0.6,0.8-1.5,1.5-1.6,2.4c-0.1,0.4,1.2,1.1,1.9,1.6c0,0,0.2-0.1,0.2-0.1
		c0.1,0.9,0.1,1.8,0.2,2.7c-2.4,1.6-6.3,2.1-4.9,6.5c-2.8,1.7-4.8,0.6-6.9-1.6C82.4,159.4,81.7,159.8,80.8,163.2z"/>
	<path id="XMLID_709_" fill="#064879" d="M96.1,145.9c-1.4,0.3-3.3,0.1-4.3,0.9c-4,3.3-8.5,3.6-13.2,3.1c0.6-0.6,1.1-1.5,1.7-1.6
		c8.1-1.2,21.3-8.5,27.2-13.1c1.9,0.4,2.8,1.4,2.6,3.5c-0.1,1.6,0.3,3.2,0.4,4.9c-0.1,0.1-0.2,0.3-0.4,0.4c-1.1-1.3-2.2-2.6-3.5-4.2
		C102.2,139.5,99.3,143.2,96.1,145.9z"/>
	<path id="XMLID_708_" fill="#064879" d="M123.6,143.8c-0.4,2.9,1.4,3.7,3.8,4.1c2.1,0.3,4.3,0.6,6.2,1.3c1,0.4,1.6,1.8,2.3,2.8
		c-4.2-1.3-8.4-2.8-12.9-2c-0.8,0.1-1.6,0-2.5,0c0.3-1.1,0.6-2.2,0.9-3.7c-1.4,0.1-2.5,0.2-3.7,0.2c-2.8,0-5.7,0.6-7.6-2.3
		c0.1-0.1,0.2-0.3,0.4-0.4C114.9,145.2,119.3,143.8,123.6,143.8z"/>
	<path id="XMLID_707_" fill="#064879" d="M127.6,143.8c-1.3,0-2.7,0-4,0c1.2-1,2.4-2.1,3.7-3.1c1.5-1.2,3.1-2.4,4.7-3.5
		c0.7-0.5,1.8-1.3,2.4-1.1c0.7,0.2,1.3,1.4,1.4,2.2c0.2,1.1,0,2.3,0,3.5c-2-0.9-4-3-6,0C129.1,142.5,128.4,143.2,127.6,143.8z"/>
	<path id="XMLID_706_" fill="#064879" d="M147.2,144c-2.5,2.7-5.7,2.7-8.3,0.1C141.7,144.1,144.4,144,147.2,144z"/>
	<path id="XMLID_705_" fill="#064879" d="M151.3,142c-0.2,2-1.7,1.9-3.2,1.8C148.4,141.9,149.8,141.8,151.3,142z"/>
	<path id="XMLID_704_" fill="#064879" d="M137.9,143.9c-1.4,0.1-2.1-0.5-2.1-2C136.5,142.6,137.2,143.2,137.9,143.9z"/>
	<path id="XMLID_703_" fill="#C4CAC2" d="M108.7,182.2c-0.8-0.9-1.5-1.8-2.3-2.7c-0.3-1.4-0.6-2.7-0.9-4.1c0.9-0.7,1.9-1.3,2.8-2
		c0,0.4,0,0.8,0.1,1.1c0.2,0.4,0.4,0.7,0.6,1.1l0.3,0.1c0.1,2.2,2,1.6,3.2,2.1C111.6,179.6,108.5,179.5,108.7,182.2z"/>
	<path id="XMLID_702_" fill="#064879" d="M108.3,173.4c-0.9,0.7-1.8,1.3-2.8,2c-0.5-1.1-1-2.3-1.5-3.4c0-0.2,0.1-0.4,0.2-0.6
		c3-0.1,1.8-2.5,2.1-4c0.6,0,1.2-0.1,1.8-0.1C108.2,169.3,108.3,171.4,108.3,173.4z"/>
	<path id="XMLID_701_" fill="#E9E4DB" d="M108.7,182.2c-0.3-2.8,2.9-2.6,3.8-4.4c0.6,0.1,1.3,0.2,1.9,0.3c0.2,1.1,0,2.6,0.6,3.3
		c1.8,2.2,1.6,4.6,1.4,7c-2-0.1-4.1-0.3-6.1-0.4c0-0.8-0.1-1.6-0.1-2.4c0.4,0,0.9-0.1,1.3-0.1c0-0.1,0-0.2,0-0.3
		c-0.4,0-0.9-0.1-1.3-0.1c0,0-0.1-0.2-0.1-0.2c-0.5-0.6-0.9-1.1-1.4-1.7C108.5,182.8,108.5,182.5,108.7,182.2z"/>
	<path id="XMLID_700_" fill="#C4CAC2" d="M108.7,183.1c0.5,0.6,1,1.1,1.4,1.7c-0.5,0-0.9-0.1-1.4-0.1
		C108.8,184.2,108.7,183.6,108.7,183.1z"/>
	<path id="XMLID_697_" fill="#10070C" d="M108.3,173.4c-0.1-2-0.1-4.1-0.2-6.1c0.1-0.6,0.3-1.2,0.4-1.8c2-0.5,1.9-1.9,1.6-3.5
		c0.1-0.6,0.3-1.1,0.4-1.7c2.5-0.5,1.9-2.4,2-4l0.1-0.1c0.7-0.7,1.3-1.4,2-2.1l0,0c0.7-0.7,1.4-1.3,2.1-2c0.2-0.1,0.5-0.2,0.7-0.3
		c0.8-0.6,1.6-1.1,2.4-1.7c0.3-0.1,0.6-0.2,0.9-0.3c0.8,0,1.7,0.2,2.5,0c4.5-0.7,8.7,0.8,12.9,2c0,0,0,0,0,0
		c0.2,0.6,0.3,1.4,0.8,1.8c3.9,3.6,6,8,6.4,13.3c0.1,1.6,0.9,3.2,1.4,4.8c0,0.6-0.1,1.1-0.1,1.7c-1.9,1.7-3.9,2.9-6.6,2.7
		c-0.4,0-1,1-1.5,1.5c-0.9,1.4-1.8,2.8-2.6,4.2c-3.2,0.1-6.7-0.7-9.4,0.5c-2.4,1-3.9,0.9-5.8-0.3c-1.1-1.5-2.2-3-3.3-4.4
		c-1.1-3.4-4-1.5-6-2c0,0-0.3-0.1-0.3-0.1c-0.2-0.4-0.4-0.7-0.6-1.1C108.4,174.2,108.4,173.8,108.3,173.4z M126.1,164.4
		c-1.7-1.1-3.3-2.3-5-3.4c-1.6-1-3.3-1.2-4.7,0.2c-1.5,1.5-0.9,3.1,0.3,4.5c1.1,1.3,2.3,2.4,3.5,3.7c2.5,2.8,5.9,2.9,8.9,1.8
		c3.3-1.2,6.3-3.3,7.2-7.1c0.7-2.8-0.9-4.5-3.6-3.5C130.6,161.4,128.7,162.9,126.1,164.4z"/>
	<path id="XMLID_696_" fill="#033052" d="M112.5,156.3c-0.1,1.6,0.5,3.6-2,4c-0.2-0.9-0.4-1.9-0.6-2.9c-2.1,0.4-3.8,0.8-5.6,1.2
		c-1.4-0.2-2.7-0.4-4.1-0.7c-1.3-1.3-2.6-2.7-3.9-4c0,0-0.2,0.1-0.2,0.1c0-1,0-2,0-3c1.3,0,2.6,0,4,0.1c1.5,1,3.4,3.1,4.3,2.7
		c2.2-1,3.8-3.1,5.8-4.9c1.1,0.9,2.4,1.9,1.5,4.3C111.3,154,112.2,155.2,112.5,156.3z"/>
	<path id="XMLID_695_" fill="#C7A94E" d="M91.6,163.2c-1.4-4.4,2.6-4.9,4.9-6.5c1.1,1,2.1,2,3.2,3c0.5,2.5-1.3,4-2.6,5.6
		c-1.3-0.1-2.7-0.2-4-0.3c-0.3-0.1-0.7-0.2-1-0.2C91.9,164.3,91.7,163.8,91.6,163.2z"/>
	<path id="XMLID_694_" fill="#0F71B4" d="M97.1,165.3c1.3-1.7,3.1-3.1,2.6-5.6c0.2-0.6,0.3-1.2,0.5-1.7c1.4,0.2,2.7,0.4,4.1,0.7
		c0.5,1.5,1.1,3.1,1.9,5.4c-1.4,1-3.4,2.9-5.8,4C98.4,168.9,97.3,167.3,97.1,165.3z"/>
	<path id="XMLID_693_" fill="#0F71B4" d="M106.3,167.4c-0.3,1.5,0.9,3.9-2.1,4C104.4,169.8,103.6,167.6,106.3,167.4z"/>
	<path id="XMLID_692_" fill="#033052" d="M110.1,162c0.4,1.5,0.5,3-1.6,3.5C108.2,163.9,108.2,162.5,110.1,162z"/>
	<path id="XMLID_691_" fill="#0F71B4" d="M92,164.8c0.3,0.1,0.7,0.2,1,0.2C92.4,166.2,92.2,165.7,92,164.8z"/>
	<path id="XMLID_690_" fill="#C4CAC2" d="M110.3,185c0.4,0,0.9,0.1,1.3,0.1c0,0.1,0,0.2,0,0.3c-0.4,0-0.9,0.1-1.3,0.1
		C110.2,185.3,110.2,185.2,110.3,185z"/>
	<path id="XMLID_689_" fill="#064879" d="M144.6,171.9c-0.5-1.6-1.3-3.2-1.4-4.8c-0.5-5.3-2.6-9.7-6.4-13.3
		c-0.4-0.4-0.5-1.2-0.8-1.8c1.9-0.1,3.8,0.4,5.6-1.3c1.3-1.3,3.2-1.1,3.3,1.5c-2.4,0.5-2,2-1.2,3.6c0.4,0.8,1,1.6,1.5,2.3
		c-0.6,0.5-1.6,1.3-1.6,1.3c2.5,3.7,1.2,8,1.8,12.1C145.1,171.7,144.9,171.8,144.6,171.9z"/>
	<path id="XMLID_688_" fill="#033052" d="M145.1,158.1c-0.5-0.8-1.1-1.5-1.5-2.3c-0.8-1.6-1.2-3.1,1.2-3.6c3.2,3,5,2.5,6.4-1.4
		c0.6-1.6,1.6-3.1,2.7-5.1C157.2,153.7,153.2,158.7,145.1,158.1z"/>
	<path id="XMLID_687_" fill="#C7A94E" d="M157,157.8c2.5,0.1,4.3,1.5,4.2,3.5c-0.1,2.1-2.3,4.1-4.5,4.1c-2.2,0-3.5-1.7-3.3-4.2
		C153.6,159,154.9,157.7,157,157.8z"/>
	<path id="XMLID_686_" fill="#033052" d="M179.2,155.6c1.7-3.8,3.2-7.2,4.9-10.9c1.7,3.1,2.5,6.1,0.4,9.2
		C183.3,155.6,182.5,155.9,179.2,155.6z"/>
	<path id="XMLID_685_" fill="#8C9DA6" d="M144.6,171.9c0.3-0.1,0.5-0.2,0.7-0.4c1.3,0.1,2.5,0.2,3.8,0.3c-0.3,1.4,0.3,3.3-1.9,3.7
		c-0.6-0.6-1.2-1.2-1.9-1.9c-0.2-0.1-0.5-0.1-0.7-0.1C144.6,173,144.6,172.4,144.6,171.9z"/>
	<path id="XMLID_684_" fill="#056BB4" d="M127.6,143.8c0.7-0.7,1.4-1.3,2.2-2C129.1,142.5,128.4,143.2,127.6,143.8z"/>
	<path id="XMLID_683_" fill="#0F71B4" d="M118.6,182.2c1.9,1.2,3.4,1.3,5.8,0.3c2.7-1.1,6.2-0.4,9.4-0.5c-0.6,4-0.9,4.4-4.4,4.5
		c-2.2,0.1-4.4,0-6.5,0C119.2,186.4,119.2,186.4,118.6,182.2z"/>
	<path id="XMLID_682_" fill="#9B9171" d="M144.6,173.6c0.3,0,0.5,0,0.7,0.1c-1.2,5-5.2,4.2-8.8,4.2c0.5-0.5,1-1.6,1.5-1.5
		C140.7,176.5,142.7,175.2,144.6,173.6z"/>
	<path id="XMLID_681_" fill="#9B9171" d="M109.3,175.7c2.1,0.4,4.9-1.5,6,2c-0.3,0.2-0.6,0.3-0.9,0.3c-0.6-0.1-1.3-0.2-1.9-0.3
		C111.3,177.3,109.4,177.9,109.3,175.7z"/>
	<path id="XMLID_680_" fill="#056BB4" d="M112.5,156.3c-0.3-1-1.2-2.3-0.9-3.1c0.9-2.3-0.4-3.3-1.5-4.3c-2,1.8-3.6,3.9-5.8,4.9
		c-0.8,0.4-2.8-1.7-4.3-2.7c-0.7-1.8-1.9-3-4-3.1c0-0.7,0-1.4,0-2.1c3.3-2.7,6.1-6.3,10.7-6.1c1.3,1.6,2.4,2.9,3.5,4.2
		c1.8,3,4.8,2.3,7.6,2.3c1.1,0,2.2-0.1,3.7-0.2c-0.4,1.5-0.7,2.6-0.9,3.7c-0.3,0.1-0.6,0.2-0.9,0.3c-0.8,0.6-1.6,1.1-2.4,1.7
		c-0.3,0.1-0.5,0.2-0.8,0.3c-1.5-0.1-2.1,0.6-2.1,2c0,0,0,0,0,0C113.1,154.1,112.4,154.8,112.5,156.3
		C112.5,156.2,112.5,156.3,112.5,156.3z"/>
	<path id="XMLID_679_" fill="#064879" d="M100.2,158c-0.2,0.6-0.3,1.2-0.5,1.7c-1.1-1-2.2-2-3.2-3c-0.1-0.9-0.1-1.8-0.2-2.7
		C97.6,155.3,98.9,156.6,100.2,158z"/>
	<path id="XMLID_678_" fill="#064879" d="M96.1,148c2.1,0.1,3.3,1.3,4,3.1c-1.3,0-2.6,0-4-0.1c-0.1-0.3-0.2-0.7-0.2-1
		C95.9,149.3,96,148.6,96.1,148z"/>
	<path id="XMLID_677_" fill="#056BB4" d="M95.9,150c0.1,0.3,0.2,0.7,0.2,1c0,1,0,2,0,3c-0.7-0.6-2-1.2-1.9-1.6
		C94.4,151.5,95.3,150.8,95.9,150z"/>
	<path id="XMLID_676_" fill="#9B9171" d="M108.4,174.5c0.2,0.4,0.4,0.7,0.6,1.1C108.8,175.3,108.6,174.9,108.4,174.5z"/>
	<path id="XMLID_675_" fill="#C91416" d="M126.1,164.4c2.6-1.5,4.5-3,6.7-3.8c2.7-1,4.3,0.6,3.6,3.5c-0.9,3.9-4,5.9-7.2,7.1
		c-3,1.1-6.4,1-8.9-1.8c-1.1-1.3-2.3-2.4-3.5-3.7c-1.3-1.4-1.8-3-0.3-4.5c1.4-1.4,3.1-1.2,4.7-0.2
		C122.8,162.1,124.4,163.2,126.1,164.4z"/>
	<path id="XMLID_674_" fill="#033052" d="M112.5,156.2c-0.2-1.5,0.5-2.1,2-2.1C113.9,154.8,113.2,155.5,112.5,156.2z"/>
	<path id="XMLID_673_" fill="#033052" d="M117.3,151.8c0.8-0.6,1.6-1.1,2.4-1.7C118.9,150.7,118.1,151.3,117.3,151.8z"/>
	<path id="XMLID_672_" fill="#033052" d="M114.5,154.1c-0.1-1.4,0.6-2.1,2.1-2C115.9,152.8,115.2,153.5,114.5,154.1z"/>
</g>
</svg>
