<svg version="1.1" viewBox="0.0 0.0 50.0 275.0" fill="none" stroke="none" stroke-linecap="square" stroke-miterlimit="10" xmlns:xlink="http://www.w3.org/1999/xlink" xmlns="http://www.w3.org/2000/svg"><clipPath id="p.0"><path d="m0 0l50.0 0l0 275.0l-50.0 0l0 -275.0z" clip-rule="nonzero"/></clipPath><g clip-path="url(#p.0)"><path fill="#000000" fill-opacity="0.0" d="m0 0l50.0 0l0 275.0l-50.0 0z" fill-rule="evenodd"/><path fill="#e06000" d="m0 0l2.8031497 0l0 25.070866l-2.8031497 0z" fill-rule="evenodd"/><path fill="#e06000" d="m13.889764 25.070866l-11.086615 -12.535433l11.086615 -12.535433z" fill-rule="evenodd"/><path fill="#e06000" d="m24.989174 25.070866l-11.086615 -12.535433l11.086615 -12.535433z" fill-rule="evenodd"/><path fill="#e06000" d="m12.493439 75.2126l-11.086615 -12.535435l11.086615 -12.535435z" fill-rule="evenodd"/><path fill="#e06000" d="m23.592848 75.2126l-11.086614 -12.535435l11.086614 -12.535435z" fill-rule="evenodd"/><path fill="#e06000" d="m18.043306 125.35433l-11.086614 -12.535431l11.086614 -12.535439z" fill-rule="evenodd"/><path fill="#e06000" d="m24.994423 275.77954l-2.8031502 0l0 -25.070877l2.8031502 0z" fill-rule="evenodd"/><path fill="#e06000" d="m11.104659 250.70866l11.086614 12.535416l-11.086614 12.535461z" fill-rule="evenodd"/><path fill="#e06000" d="m0.005249344 250.70866l11.086615 12.535416l-11.086615 12.535461z" fill-rule="evenodd"/><path fill="#e06000" d="m12.500984 200.56693l11.086615 12.535431l-11.086615 12.535446z" fill-rule="evenodd"/><path fill="#e06000" d="m1.4015749 200.56693l11.086614 12.535431l-11.086614 12.535446z" fill-rule="evenodd"/><path fill="#e06000" d="m6.9511156 150.4252l11.086614 12.535431l-11.086614 12.535431z" fill-rule="evenodd"/><path fill="#ffffff" d="m25.002625 0l2.8031502 0l0 25.070866l-2.8031502 0z" fill-rule="evenodd"/><path fill="#ffffff" d="m38.892387 25.070866l-11.086613 -12.535433l11.086613 -12.535433z" fill-rule="evenodd"/><path fill="#ffffff" d="m49.9918 25.070866l-11.086613 -12.535433l11.086613 -12.535433z" fill-rule="evenodd"/><path fill="#ffffff" d="m37.496063 75.2126l-11.086615 -12.535435l11.086615 -12.535435z" fill-rule="evenodd"/><path fill="#ffffff" d="m48.595474 75.2126l-11.0866165 -12.535435l11.0866165 -12.535435z" fill-rule="evenodd"/><path fill="#ffffff" d="m43.045933 125.35433l-11.086615 -12.535431l11.086615 -12.535439z" fill-rule="evenodd"/><path fill="#ffffff" d="m49.997047 275.77954l-2.8031502 0l0 -25.070877l2.8031502 0z" fill-rule="evenodd"/><path fill="#ffffff" d="m36.107285 250.70866l11.086613 12.535416l-11.086613 12.535461z" fill-rule="evenodd"/><path fill="#ffffff" d="m25.007874 250.70866l11.0866165 12.535416l-11.0866165 12.535461z" fill-rule="evenodd"/><path fill="#ffffff" d="m37.50361 200.56693l11.0866165 12.535431l-11.0866165 12.535446z" fill-rule="evenodd"/><path fill="#ffffff" d="m26.4042 200.56693l11.086615 12.535431l-11.086615 12.535446z" fill-rule="evenodd"/><path fill="#ffffff" d="m31.953741 150.4252l11.086615 12.535431l-11.086615 12.535431z" fill-rule="evenodd"/></g></svg>