<?xml version="1.0" encoding="UTF-8" standalone="no"?>
<svg
   xmlns:dc="http://purl.org/dc/elements/1.1/"
   xmlns:cc="http://creativecommons.org/ns#"
   xmlns:rdf="http://www.w3.org/1999/02/22-rdf-syntax-ns#"
   xmlns:svg="http://www.w3.org/2000/svg"
   xmlns="http://www.w3.org/2000/svg"
   xmlns:sodipodi="http://sodipodi.sourceforge.net/DTD/sodipodi-0.dtd"
   xmlns:inkscape="http://www.inkscape.org/namespaces/inkscape"
   version="1.1"
   viewBox="0.0 0.0 50.0 250.0"
   fill="none"
   stroke="none"
   stroke-linecap="square"
   stroke-miterlimit="10"
   id="svg2"
   inkscape:version="0.91 r13725"
   sodipodi:docname="book-icons.svg">
  <metadata
     id="metadata43">
    <rdf:RDF>
      <cc:Work
         rdf:about="">
        <dc:format>image/svg+xml</dc:format>
        <dc:type
           rdf:resource="http://purl.org/dc/dcmitype/StillImage" />
      </cc:Work>
    </rdf:RDF>
  </metadata>
  <defs
     id="defs41" />
  <sodipodi:namedview
     pagecolor="#ffffff"
     bordercolor="#666666"
     borderopacity="1"
     objecttolerance="10"
     gridtolerance="10"
     guidetolerance="10"
     inkscape:pageopacity="0"
     inkscape:pageshadow="2"
     inkscape:window-width="1284"
     inkscape:window-height="925"
     id="namedview39"
     showgrid="false"
     inkscape:zoom="1.4254587"
     inkscape:cx="-116.42156"
     inkscape:cy="125"
     inkscape:window-x="0"
     inkscape:window-y="0"
     inkscape:window-maximized="0"
     inkscape:current-layer="svg2" />
  <path
     style="fill:#000000;fill-opacity:0;fill-rule:evenodd"
     id="path4256"
     d="m 0,0 50,0 0,275 -50,0 z" />
  <path
     style="fill:#e06000;fill-rule:evenodd"
     id="path4258"
     d="m 0,0 2.8031497,0 0,25.070866 -2.8031497,0 z" />
  <path
     style="fill:#e06000;fill-rule:evenodd"
     id="path4260"
     d="M 13.889764,25.070866 2.803149,12.535433 13.889764,0 Z" />
  <path
     style="fill:#e06000;fill-rule:evenodd"
     id="path4262"
     d="M 24.989174,25.070866 13.902559,12.535433 24.989174,0 Z" />
  <path
     style="fill:#e06000;fill-rule:evenodd"
     id="path4264"
     d="M 12.493439,50.14173 1.406824,37.606299 12.493439,25.070864 Z" />
  <path
     style="fill:#e06000;fill-rule:evenodd"
     id="path4266"
     d="M 23.592848,50.14173 12.506234,37.606299 23.592848,25.070864 Z" />
  <path
     style="fill:#e06000;fill-rule:evenodd"
     id="path4268"
     d="M 18.043306,75.2126 6.956692,62.677165 18.043306,50.14173 Z" />
  <path
     style="fill:#e06000;fill-rule:evenodd"
     id="path4270"
     d="M 6.9511156,75.2126 18.03773,87.748031 6.9511156,100.28346 Z" />
  <path
     style="fill:#ffffff;fill-rule:evenodd"
     id="path4272"
     d="m 25.002625,0 2.80315,0 0,25.070866 -2.80315,0 z" />
  <path
     style="fill:#ffffff;fill-rule:evenodd"
     id="path4274"
     d="M 38.892387,25.070866 27.805774,12.535433 38.892387,0 Z" />
  <path
     style="fill:#ffffff;fill-rule:evenodd"
     id="path4276"
     d="M 49.9918,25.070866 38.905187,12.535433 49.9918,0 Z" />
  <path
     style="fill:#ffffff;fill-rule:evenodd"
     id="path4278"
     d="M 37.496063,50.14173 26.409448,37.606299 37.496063,25.070864 Z" />
  <path
     style="fill:#ffffff;fill-rule:evenodd"
     id="path4280"
     d="M 48.595474,50.14173 37.508858,37.606299 48.595474,25.070864 Z" />
  <path
     style="fill:#ffffff;fill-rule:evenodd"
     id="path4282"
     d="M 43.045933,75.2126 31.959318,62.677165 43.045933,50.14173 Z" />
  <path
     style="fill:#ffffff;fill-rule:evenodd"
     id="path4284"
     d="M 31.953741,75.2126 43.040356,87.748031 31.953741,100.28346 Z" />
  <path
     style="fill:#e06000;fill-rule:evenodd"
     id="path4286"
     d="m 2.2887433,185.29288 19.8949527,0 c 0.389828,0 0.763689,0.15485 1.039339,0.4305 0.27565,0.27565 0.430508,0.64952 0.430508,1.03935 l 0,7.34904 c 0,1.1e-4 -8.6e-5,1.9e-4 -1.91e-4,1.9e-4 l -22.83445467,-1.9e-4 0,0 c -1.0515e-4,0 -1.9032e-4,-9e-5 -1.9032e-4,-1.8e-4 l 1.9032e-4,-7.34886 0,0 c 0,-0.81178 0.65807227,-1.46985 1.46984547,-1.46985 z" />
  <path
     style="fill:#e06000;fill-rule:evenodd"
     id="path4288"
     d="m 5.1653543,180.53549 14.1417327,0 0,3.65355 -14.1417327,0 z" />
  <path
     style="fill:#ffffff;fill-rule:evenodd"
     id="path4290"
     d="m 5.1653543,191.5429 14.1417327,0 0,5.98425 -14.1417327,0 z" />
  <path
     style="fill-rule:evenodd;stroke:#e06000;stroke-width:1;stroke-linecap:butt;stroke-linejoin:round"
     id="path4292"
     d="m 5.1653543,191.5429 14.1417327,0 0,5.98425 -14.1417327,0 z" />
  <path
     style="fill:#ffffff;fill-rule:evenodd"
     id="path4294"
     d="m 27.548586,185.29288 19.894953,0 c 0.389828,0 0.763691,0.15485 1.039341,0.4305 0.275646,0.27565 0.430508,0.64952 0.430508,1.03935 l 0,7.34904 c 0,1.1e-4 -8.8e-5,1.9e-4 -1.91e-4,1.9e-4 l -22.834455,-1.9e-4 0,0 c -1.07e-4,0 -1.91e-4,-9e-5 -1.91e-4,-1.8e-4 l 1.91e-4,-7.34886 0,0 c 0,-0.81178 0.658071,-1.46985 1.469845,-1.46985 z" />
  <path
     style="fill:#ffffff;fill-rule:evenodd"
     id="path4296"
     d="m 30.425198,180.53549 14.141731,0 0,3.65355 -14.141731,0 z" />
  <path
     style="fill:#e06000;fill-rule:evenodd"
     id="path4298"
     d="m 30.425198,191.5429 14.141731,0 0,5.98425 -14.141731,0 z" />
  <path
     style="fill-rule:evenodd;stroke:#ffffff;stroke-width:1;stroke-linecap:butt;stroke-linejoin:round"
     id="path4300"
     d="m 30.425198,191.5429 14.141731,0 0,5.98425 -14.141731,0 z" />
  <path
     style="fill:#ffffff;fill-rule:evenodd"
     id="path4302"
     d="m 3.5616798,153.99031 11.0866142,0 0,18.23622 -11.0866142,0 z" />
  <path
     style="fill-rule:evenodd;stroke:#e06000;stroke-width:1;stroke-linecap:butt;stroke-linejoin:round"
     id="path4304"
     d="m 3.5616798,153.99031 11.0866142,0 0,18.23622 -11.0866142,0 z" />
  <path
     style="fill:#e06000;fill-rule:evenodd"
     id="path4306"
     d="m 8.4042,160.93376 4.094164,0 0,-4.09418 4.315609,0 0,4.09418 4.094164,0 0,4.34709 -4.094164,0 0,4.09418 -4.315609,0 0,-4.09418 -4.094164,0 z" />
  <path
     style="fill-rule:evenodd;stroke:#ffffff;stroke-width:1;stroke-linecap:butt;stroke-linejoin:round"
     id="path4308"
     d="m 8.4042,160.93376 4.094164,0 0,-4.09418 4.315609,0 0,4.09418 4.094164,0 0,4.34709 -4.094164,0 0,4.09418 -4.315609,0 0,-4.09418 -4.094164,0 z" />
  <path
     style="fill:#e06000;fill-rule:evenodd"
     id="path4310"
     d="m 28.83071,153.99031 11.086615,0 0,18.23622 -11.086615,0 z" />
  <path
     style="fill-rule:evenodd;stroke:#ffffff;stroke-width:1;stroke-linecap:butt;stroke-linejoin:round"
     id="path4312"
     d="m 28.83071,153.99031 11.086615,0 0,18.23622 -11.086615,0 z" />
  <path
     style="fill:#ffffff;fill-rule:evenodd"
     id="path4314"
     d="m 33.67323,160.93376 4.094162,0 0,-4.09418 4.315609,0 0,4.09418 4.094166,0 0,4.34709 -4.094166,0 0,4.09418 -4.315609,0 0,-4.09418 -4.094162,0 z" />
  <path
     style="fill-rule:evenodd;stroke:#e06000;stroke-width:1;stroke-linecap:butt;stroke-linejoin:round"
     id="path4316"
     d="m 33.67323,160.93376 4.094162,0 0,-4.09418 4.315609,0 0,4.09418 4.094166,0 0,4.34709 -4.094166,0 0,4.09418 -4.315609,0 0,-4.09418 -4.094162,0 z" />
  <path
     style="fill:#e06000;fill-rule:evenodd"
     id="path4268-7"
     d="M 0,141 12.53544,129.91339 25.070874,141 Z"
     inkscape:connector-curvature="0" />
  <path
     style="fill:#e06000;fill-rule:evenodd"
     id="path4270-5"
     d="M 25.07086,108.91339 12.53543,120 0,108.91339 Z" />
  <path
     style="fill:#ffffff;fill-rule:evenodd"
     id="path4268-7-3"
     d="M 25.590368,141 38.125808,129.91339 50.661238,141 Z"
     inkscape:connector-curvature="0" />
  <path
     style="fill:#ffffff;fill-rule:evenodd"
     id="path4270-5-5"
     d="M 50.661228,108.91339 38.125798,120 25.590368,108.91339 Z" />
</svg>
