<svg version="1.1" viewBox="0.0 0.0 50.0 275.0" fill="none" stroke="none" stroke-linecap="square" stroke-miterlimit="10" xmlns:xlink="http://www.w3.org/1999/xlink" xmlns="http://www.w3.org/2000/svg"><clipPath id="p.0"><path d="m0 0l50.0 0l0 275.0l-50.0 0l0 -275.0z" clip-rule="nonzero"/></clipPath><g clip-path="url(#p.0)"><path fill="#000000" fill-opacity="0.0" d="m0 0l50.0 0l0 275.0l-50.0 0z" fill-rule="evenodd"/><path fill="#e06000" d="m0 0l2.8031497 0l0 25.070866l-2.8031497 0z" fill-rule="evenodd"/><path fill="#e06000" d="m13.889764 25.070866l-11.086615 -12.535433l11.086615 -12.535433z" fill-rule="evenodd"/><path fill="#e06000" d="m24.989174 25.070866l-11.086615 -12.535433l11.086615 -12.535433z" fill-rule="evenodd"/><path fill="#e06000" d="m12.493439 50.14173l-11.086615 -12.535431l11.086615 -12.535435z" fill-rule="evenodd"/><path fill="#e06000" d="m23.592848 50.14173l-11.086614 -12.535431l11.086614 -12.535435z" fill-rule="evenodd"/><path fill="#e06000" d="m18.043306 75.2126l-11.086614 -12.535435l11.086614 -12.535435z" fill-rule="evenodd"/><path fill="#e06000" d="m6.9511156 75.2126l11.086614 12.535431l-11.086614 12.535431z" fill-rule="evenodd"/><path fill="#ffffff" d="m25.002625 0l2.8031502 0l0 25.070866l-2.8031502 0z" fill-rule="evenodd"/><path fill="#ffffff" d="m38.892387 25.070866l-11.086613 -12.535433l11.086613 -12.535433z" fill-rule="evenodd"/><path fill="#ffffff" d="m49.9918 25.070866l-11.086613 -12.535433l11.086613 -12.535433z" fill-rule="evenodd"/><path fill="#ffffff" d="m37.496063 50.14173l-11.086615 -12.535431l11.086615 -12.535435z" fill-rule="evenodd"/><path fill="#ffffff" d="m48.595474 50.14173l-11.0866165 -12.535431l11.0866165 -12.535435z" fill-rule="evenodd"/><path fill="#ffffff" d="m43.045933 75.2126l-11.086615 -12.535435l11.086615 -12.535435z" fill-rule="evenodd"/><path fill="#ffffff" d="m31.953741 75.2126l11.086615 12.535431l-11.086615 12.535431z" fill-rule="evenodd"/><path fill="#e06000" d="m2.2887433 185.29288l19.894953 0c0.38982773 0 0.76368904 0.15484619 1.0393391 0.43049622c0.27565002 0.27565002 0.43050766 0.6495209 0.43050766 1.0393524l0 7.349045c0 1.0681152E-4 -8.583069E-5 1.8310547E-4 -1.9073486E-4 1.8310547E-4l-22.834455 -1.8310547E-4l0 0c-1.0514259E-4 0 -1.9031763E-4 -9.1552734E-5 -1.9031763E-4 -1.8310547E-4l1.9031763E-4 -7.3488617l0 0c0 -0.81178284 0.6580723 -1.4698486 1.4698455 -1.4698486z" fill-rule="evenodd"/><path fill="#e06000" d="m5.1653543 180.53549l14.141733 0l0 3.6535492l-14.141733 0z" fill-rule="evenodd"/><path fill="#ffffff" d="m5.1653543 191.5429l14.141733 0l0 5.984253l-14.141733 0z" fill-rule="evenodd"/><path stroke="#e06000" stroke-width="1.0" stroke-linejoin="round" stroke-linecap="butt" d="m5.1653543 191.5429l14.141733 0l0 5.984253l-14.141733 0z" fill-rule="evenodd"/><path fill="#ffffff" d="m27.548586 185.29288l19.894953 0c0.38982773 0 0.76369095 0.15484619 1.039341 0.43049622c0.2756462 0.27565002 0.43050766 0.6495209 0.43050766 1.0393524l0 7.349045c0 1.0681152E-4 -8.773804E-5 1.8310547E-4 -1.9073486E-4 1.8310547E-4l-22.834455 -1.8310547E-4l0 0c-1.0681152E-4 0 -1.9073486E-4 -9.1552734E-5 -1.9073486E-4 -1.8310547E-4l1.9073486E-4 -7.3488617l0 0c0 -0.81178284 0.6580715 -1.4698486 1.4698448 -1.4698486z" fill-rule="evenodd"/><path fill="#ffffff" d="m30.425198 180.53549l14.141731 0l0 3.6535492l-14.141731 0z" fill-rule="evenodd"/><path fill="#e06000" d="m30.425198 191.5429l14.141731 0l0 5.984253l-14.141731 0z" fill-rule="evenodd"/><path stroke="#ffffff" stroke-width="1.0" stroke-linejoin="round" stroke-linecap="butt" d="m30.425198 191.5429l14.141731 0l0 5.984253l-14.141731 0z" fill-rule="evenodd"/><path fill="#ffffff" d="m3.5616798 153.99031l11.086614 0l0 18.236221l-11.086614 0z" fill-rule="evenodd"/><path stroke="#e06000" stroke-width="1.0" stroke-linejoin="round" stroke-linecap="butt" d="m3.5616798 153.99031l11.086614 0l0 18.236221l-11.086614 0z" fill-rule="evenodd"/><path fill="#e06000" d="m8.4042 160.93376l4.094164 0l0 -4.0941772l4.315609 0l0 4.0941772l4.094164 0l0 4.3470917l-4.094164 0l0 4.0941772l-4.315609 0l0 -4.0941772l-4.094164 0z" fill-rule="evenodd"/><path stroke="#ffffff" stroke-width="1.0" stroke-linejoin="round" stroke-linecap="butt" d="m8.4042 160.93376l4.094164 0l0 -4.0941772l4.315609 0l0 4.0941772l4.094164 0l0 4.3470917l-4.094164 0l0 4.0941772l-4.315609 0l0 -4.0941772l-4.094164 0z" fill-rule="evenodd"/><path fill="#e06000" d="m28.83071 153.99031l11.086615 0l0 18.236221l-11.086615 0z" fill-rule="evenodd"/><path stroke="#ffffff" stroke-width="1.0" stroke-linejoin="round" stroke-linecap="butt" d="m28.83071 153.99031l11.086615 0l0 18.236221l-11.086615 0z" fill-rule="evenodd"/><path fill="#ffffff" d="m33.67323 160.93376l4.094162 0l0 -4.0941772l4.315609 0l0 4.0941772l4.094166 0l0 4.3470917l-4.094166 0l0 4.0941772l-4.315609 0l0 -4.0941772l-4.094162 0z" fill-rule="evenodd"/><path stroke="#e06000" stroke-width="1.0" stroke-linejoin="round" stroke-linecap="butt" d="m33.67323 160.93376l4.094162 0l0 -4.0941772l4.315609 0l0 4.0941772l4.094166 0l0 4.3470917l-4.094166 0l0 4.0941772l-4.315609 0l0 -4.0941772l-4.094162 0z" fill-rule="evenodd"/></g></svg>